<svg xmlns="http://www.w3.org/2000/svg" xmlns:xlink="http://www.w3.org/1999/xlink" width="277.41" height="192.228" viewBox="0 0 277.41 192.228">
    <defs>
        <linearGradient id="linear-gradient" y1=".5" x2="1" y2=".5" gradientUnits="objectBoundingBox">
            <stop offset="0" stop-color="#ffcb00"/>
            <stop offset=".29" stop-color="#fbbf06"/>
            <stop offset=".8" stop-color="#f1a116"/>
            <stop offset="1" stop-color="#ed931d"/>
        </linearGradient>
        <linearGradient id="linear-gradient-3" x1="14.483" y1="-56.828" x2="15.486" y2="-56.828" xlink:href="#linear-gradient"/>
        <linearGradient id="linear-gradient-4" y1=".503" x2="1" y2=".503" gradientUnits="objectBoundingBox">
            <stop offset="0" stop-color="#ffb400"/>
            <stop offset=".44" stop-color="#f9a80a"/>
            <stop offset="1" stop-color="#ed931d"/>
        </linearGradient>
        <linearGradient id="linear-gradient-5" x1="-21.158" y1="-192.459" x2="-20.16" y2="-192.459" xlink:href="#linear-gradient-4"/>
        <linearGradient id="linear-gradient-6" x1="-66.371" y1="-267.889" x2="-65.369" y2="-267.889" xlink:href="#linear-gradient-4"/>
        <style>
            .cls-10{isolation:isolate}.cls-2{fill:#666}.cls-10,.cls-4{fill:#fff}.cls-4{opacity:.8}.cls-10{mix-blend-mode:multiply}.cls-11{fill:#050402}.cls-13{fill:#feb300}.cls-14{fill:#c98e00}.cls-15{fill:#c98f00}.cls-18{fill:#c78d00}.cls-19{fill:#fcb200}.cls-20{fill:#fdfdfd}.cls-21{fill:#c8c8c8}.cls-22{fill:#f9f9f9}.cls-23{fill:#c5c5c5}.cls-24{fill:url(#linear-gradient)}.cls-29{fill:#a30b35}
        </style>
    </defs>
    <g id="accoount-notification" transform="translate(-151.106 -18.813)" style="isolation:isolate">
        <g id="Layer_1" data-name="Layer 1" transform="translate(151.106 18.813)">
            <path id="Path_1317" data-name="Path 1317" class="cls-2" d="M139.355 50.163 88.57 122.5l71.278-20.01 71.279-20-81.015-35.345a8.837 8.837 0 0 0-10.757 3.018z" transform="translate(-45.576 -22.546)"/>
            <path id="Path_1318" data-name="Path 1318" d="M139.355 50.163 88.57 122.5l71.278-20.01 71.279-20-81.015-35.345a8.837 8.837 0 0 0-10.757 3.018z" transform="translate(-45.576 -22.546)" style="opacity:.5;fill:#fff"/>
            <rect id="Rectangle_795" data-name="Rectangle 795" class="cls-2" width="153.141" height="98.128" rx="7.04" transform="rotate(-15.63 375.172 -95.799)"/>
            <rect id="Rectangle_796" data-name="Rectangle 796" class="cls-4" width="153.141" height="98.128" rx="7.04" transform="rotate(-15.63 375.172 -95.799)"/>
            <path id="Path_1319" data-name="Path 1319" d="m175.137 165.523-76-37.857a2.905 2.905 0 0 1 .51-5.4l60.6-17.009 60.608-17.009a2.905 2.905 0 0 1 3.243 4.324l-45.208 71.879a2.905 2.905 0 0 1-3.753 1.072z" transform="translate(-46.787 -28.192)" style="fill:#999"/>
            <path id="Path_1320" data-name="Path 1320" d="m170.6 159.02-48.35 68.866 67.863-19.024 67.863-19.024-77.141-33.7a8.4 8.4 0 0 0-10.235 2.882z" transform="translate(-50.133 -37.297)" style="fill:#903"/>
            <path id="Path_1321" data-name="Path 1321" class="cls-4" d="m170.6 159.02-48.35 68.866 67.863-19.024 67.863-19.024-77.141-33.7a8.4 8.4 0 0 0-10.235 2.882z" transform="translate(-50.133 -37.297)"/>
            <path id="Path_1322" data-name="Path 1322" d="m247.69 152.72 5.543 1.3 8.284 27.628a6.1 6.1 0 0 1-4.211 7.5l-135.76 38.1a6.114 6.114 0 0 1-7.506-4.22" transform="translate(-49.022 -36.929)" style="fill:#e2e2e2"/>
            <path id="Path_1323" data-name="Path 1323" d="m168.711 157.083-45.951 70.042 67.863-19.025 67.863-19.024-75.7-35.946a11.12 11.12 0 0 0-14.078 3.952z" transform="translate(-50.202 -36.838)" style="opacity:.2;fill:#4d4d4d"/>
            <path id="Path_1324" data-name="Path 1324" d="m171.115 158.706-48.355 68.866 67.863-19.024 67.863-19.024-77.124-33.646a8.422 8.422 0 0 0-10.247 2.828z" transform="translate(-50.202 -37.26)" style="fill:#4d4d4d"/>
            <path id="Path_1325" data-name="Path 1325" class="cls-4" d="m171.115 158.706-48.355 68.866 67.863-19.024 67.863-19.024-77.124-33.646a8.422 8.422 0 0 0-10.247 2.828z" transform="translate(-50.202 -37.26)"/>
            <path id="Path_1326" data-name="Path 1326" class="cls-10" d="M243.177 142.139a5.387 5.387 0 0 1-.631-.32 5.39 5.39 0 0 0 .631.32z" transform="translate(-66.299 -35.409)"/>
            <path id="Path_1327" data-name="Path 1327" class="cls-10" d="m282.036 48.447-2.88-2.047-.536-.268.536.268z" transform="translate(-71.287 -22.509)"/>
            <path id="Path_1328" data-name="Path 1328" class="cls-10" d="M256.644 127.534a18.876 18.876 0 0 1-1.591-1.262 33.912 33.912 0 0 1-2.793-2.291 33.913 33.913 0 0 0 2.793 2.291 18.871 18.871 0 0 0 1.591 1.262z" transform="translate(-67.721 -33.04)"/>
            <path id="Path_1329" data-name="Path 1329" class="cls-10" d="M276.521 204.72h-.061z" transform="translate(-70.995 -43.963)"/>
            <path id="Path_1330" data-name="Path 1330" class="cls-10" d="M275.55 203c.7.337.813.605.761 1.435.052-.856-.061-1.124-.761-1.435z" transform="translate(-70.872 -43.731)"/>
            <path id="Path_1331" data-name="Path 1331" class="cls-11" d="M264.091 217.842a4.056 4.056 0 0 1-.951-.813c-.545-.579-1.107-1.133-1.66-1.729l2.819 1.479v.51a.769.769 0 0 1-.208.553z" transform="translate(-68.968 -45.395)"/>
            <path id="Path_1332" data-name="Path 1332" class="cls-11" d="M275.17 202.78z" transform="translate(-70.82 -43.701)"/>
            <path id="Path_1333" data-name="Path 1333" class="cls-11" d="M238.074 180.106c-.614.277-1.211.588-1.816.865l4 2.11c.925-2.413 1.729-4.808 2.758-7.22.078.147.1.173.1.2a2.391 2.391 0 0 0 .052.605 11.527 11.527 0 0 0 3.666 7.86c1.375 1.409 2.776 2.8 4.159 4.2l2.819 1.479c.147-1.781.069-3.563.086-5.344 0-1.107 0-2.222.086-3.459a25.613 25.613 0 0 0 9.516 4.198 6.2 6.2 0 0 0-1.358 1.807c-.908 1.92-2.006 3.744-2.819 5.716l2.516 1.323c.865-2.17 1.729-4.324 2.793-6.4a5.647 5.647 0 0 1 3.286-2.975.8.8 0 0 1 .865.164c.865.657 1.773 1.28 2.655 1.92a.294.294 0 0 0 .061-.5c-.6-.709-1.133-1.461-1.729-2.119a23.537 23.537 0 0 1-2.006-2.257 7.9 7.9 0 0 1-1.729-3.606 15.775 15.775 0 0 1-.173-3.606 6.416 6.416 0 0 1 .648-2.828c.1-.277.311-.2.5-.182.571.061 1.141.138 1.729.182a9.685 9.685 0 0 0 4.894-.692 10.308 10.308 0 0 0 3.926-3.537 27.23 27.23 0 0 0 3.865-7.67 7.782 7.782 0 0 0 .649-3.787c-.061-.346.164-.441.441-.5a26.171 26.171 0 0 1 4.168-.674c3.787-.259 7.575-.259 11.371-.355h1.461c.138 0 .32 0 .363-.173s-.147-.3-.294-.363a5.042 5.042 0 0 0-1.435-.242c-1.669-.138-3.329-.182-4.989-.406a37.926 37.926 0 0 0-5.335-.225c-1.729 0-3.459.285-5.24.432-.934.078-.925.069-1.124-.8-.415-1.729-.562-3.58-1.116-5.309a1 1 0 0 1 0-.6c.285-1.09.329-2.222.536-3.321a17.745 17.745 0 0 0 .078-5.327c-.225-1.954-.96-3.615-3.061-4.263a.528.528 0 0 1-.156-.078c-2.966-1.582-6.053-1.418-9.131-.51a12.714 12.714 0 0 0-1.435.571c-.216.1-.415.251-.294.536s.329.156.519.147c.553 0 1.038-.337 1.6-.355 1.2 0 2.413-.138 3.615-.138a8.483 8.483 0 0 1 4.427 1.47 2.179 2.179 0 0 1 1.5 1.634 13.686 13.686 0 0 1 .579 3.736c0 2.093.086 4.2-.994 6.122a.951.951 0 0 0-.052.674c.372 1.859.744 3.718 1.081 5.586a29.557 29.557 0 0 1 .6 4.324 2.058 2.058 0 0 1-.173 1c-.424.865-.865 1.781-1.263 2.655a27.981 27.981 0 0 1-5.923 7.782.77.77 0 0 1-.605.259 13.133 13.133 0 0 1-2.4-.225c-2.248-.493-4.488-.986-6.7-1.626a6.433 6.433 0 0 1-3.208-1.565 2.438 2.438 0 0 0-.8-.5 33.9 33.9 0 0 0-3.909-1.582.484.484 0 0 0-.588.112c.1.355.4.519.683.709a19.326 19.326 0 0 1 2.819 1.816 1.41 1.41 0 0 1 .519 1.029 44.817 44.817 0 0 0 .458 4.8 24.818 24.818 0 0 0 2.032 6.563 20.611 20.611 0 0 0 1.937 3.234 6.166 6.166 0 0 1-1.729-.441c-1.211-.6-2.421-1.185-3.632-1.79a1.383 1.383 0 0 1-.631-.432 23.728 23.728 0 0 1-5.188-4.324 8.146 8.146 0 0 1-2.136-6.243c0-.138.112-.355-.173-.415-.043.1-.1.2-.138.3a13.873 13.873 0 0 0-.5 4.168 3.459 3.459 0 0 0 .605 2.2c.372.545.709 1.115 1.064 1.669l1.159 1.375a1.323 1.323 0 0 1 .337 1.029 26.322 26.322 0 0 0 .1 5.655c0 .138.121.329-.121.441a18.012 18.012 0 0 1-2.447-2.49 39.242 39.242 0 0 1-3.528-3.666 1.6 1.6 0 0 1-.329-.951 19.413 19.413 0 0 1 .476-5.915 53.844 53.844 0 0 1 3.891-11.388 2.412 2.412 0 0 1 1.167-1.211c.588-.294 1.15-.649 1.729-.977a15.513 15.513 0 0 1 2.594-1.237 52.528 52.528 0 0 1 6.053-1.729 21.728 21.728 0 0 1 6.183-1.02.571.571 0 0 0 .173 0 .536.536 0 0 0 .527-.562 8.646 8.646 0 0 0 0-2.058c-.458-2.49-.726-5.007-1.055-7.514-.1-.683-.2-1.366-.32-2.041-.061-.346-.2-.761-.623-.692s-.337.5-.311.865c.173 2.179.45 4.324.519 6.537 0 .917.147 1.833.1 2.758 0 .346-.121.51-.5.527a12.6 12.6 0 0 0-1.28.147q-4.531.649-8.993 1.643c-1.928.674-3.779 1.531-5.629 2.387a.284.284 0 0 1-.311-.1 15.221 15.221 0 0 1-.865-2.871 41.954 41.954 0 0 1-.994-8.811c0-3.018.8-5.923 1.314-8.872a1 1 0 0 1 .7-.778 41 41 0 0 0 4.375-2.041c2.879-1.626 5.8-3.174 8.526-5.076 1.859-1.3 3.77-2.542 5.526-3.986a131.3 131.3 0 0 0 11.28-10.644c.225-.233.406-.51.787-.346s.225.493.233.761a36.673 36.673 0 0 0 2.819 12.91 26.08 26.08 0 0 0 4.142 7.134 1.254 1.254 0 0 1 .355.579 37.189 37.189 0 0 0 2.767 2.836 41.561 41.561 0 0 0 9.512 5.716 95.983 95.983 0 0 0 10.377 3.986l1.729-2.594c-.96-.311-1.928-.623-2.879-.96-2.516-.865-5-1.868-7.437-2.983a48.656 48.656 0 0 1-7.7-4.367 22.361 22.361 0 0 1-4.142-3.995 28.74 28.74 0 0 1-5.612-12.374 35.627 35.627 0 0 1-.744-6.053 1.012 1.012 0 0 1 .614-1.09 40.884 40.884 0 0 0 10.6-7.782 31.7 31.7 0 0 0 7.179-10.843 48.563 48.563 0 0 0 3.027-14.026 45.37 45.37 0 0 0-.329-8.82 59.2 59.2 0 0 0-2.923-12.564c-.424-1.228-.821-2.456-1.271-3.666a325.218 325.218 0 0 0-2.006-5.188 13.456 13.456 0 0 0-1.193-2.4 10.379 10.379 0 0 1-.934-2.214c-.164-.476.112-.908.06-1.435a9.84 9.84 0 0 1 3.061.216 35.8 35.8 0 0 0 3.7.865 1.937 1.937 0 0 0 1.911-1.314 5.785 5.785 0 0 0-.277-3.666 25.449 25.449 0 0 0-8.1-11.786 11.043 11.043 0 0 0-4.938-2.317c-.562-.112-1.133-.19-1.729-.32a22.846 22.846 0 0 0-7.03-.311 30.827 30.827 0 0 0-13.629 4.43 21.619 21.619 0 0 0-5.335 4.064c-.363.406-.865.32-1.271.363-.208 0-.2-.173-.233-.294a9.512 9.512 0 0 0-1.427-2.931 25.941 25.941 0 0 0-4.28-5.188 32 32 0 0 0-6.157-4.5 21.333 21.333 0 0 0-7.143-2.439 1.462 1.462 0 0 1-.337-.069c-1.652-.666-2.879.1-4.012 1.176a17.849 17.849 0 0 0-3.1 4.116 6.71 6.71 0 0 0-.865 3.217c0 .536-.147.536-.51.493a54.114 54.114 0 0 0-10.584.147c-4.929.406-9.78 1.34-14.64 2.222a59.2 59.2 0 0 0-12.824 3.952 18.583 18.583 0 0 0-3.459 1.989c-1.081.761-2.153 1.548-3.243 2.3a2.2 2.2 0 0 0-.787.986 87.12 87.12 0 0 0-2.81 7.134c-.545 1.565-.865 3.208-1.323 4.816-.476 1.729-.744 3.545-1.1 5.318a13.974 13.974 0 0 0-.19 3 1.02 1.02 0 0 0 .233.623 58.887 58.887 0 0 0 3.7 5.309 2.516 2.516 0 0 1 .424.744 24.757 24.757 0 0 0 2.075 3.969 27.533 27.533 0 0 0 4.635 5.085 1.557 1.557 0 0 1 .579.917 18.833 18.833 0 0 0 4.177 8.958 36.887 36.887 0 0 0 4.5 5.007 15.237 15.237 0 0 0 2.17 1.548 1.608 1.608 0 0 0 2.326-.32c.294.614.527 1.133.77 1.652a.285.285 0 0 1-.052.38c-.683.553-.588 1.323-.545 2.049a14.216 14.216 0 0 0 .259 1.729c0 .242.078.476-.182.6-.406.19-.458.553-.519.934-.1.562-.182 1.133-.329 1.729a9.512 9.512 0 0 0 .692 6.3 56.864 56.864 0 0 0 1.427 3.044 1.513 1.513 0 0 1 .156 1.159c-.363 1.418-.735 2.836-1.081 4.263a30.384 30.384 0 0 0-.6 3.3 1.557 1.557 0 0 0 .277 1.133 13.489 13.489 0 0 0 3.234 3.191 118.313 118.313 0 0 0 10.748 7.29c3.156 1.928 6.261 3.943 9.512 5.69 1.193.631 2.421 1.185 3.666 1.729a11.985 11.985 0 0 0 3.623.752 9.322 9.322 0 0 0 3.122-.527c.934-.268 1.859-.562 2.845-.865a1.868 1.868 0 0 1-.294 1.41c-.5.865-1.038 1.729-1.522 2.594a.579.579 0 0 1-.761.329 17.113 17.113 0 0 0-5.655-.484c-2.707.216-5.387-.208-8.085-.138a15.971 15.971 0 0 0-7.981 2.413 13.377 13.377 0 0 0-4.384 4.194 12.3 12.3 0 0 0-1.09 2.715 16.257 16.257 0 0 0-.692 6.053 4.583 4.583 0 0 0 .112 1.4c1.531-.519 2.836-1.531 4.5-1.928a28.536 28.536 0 0 0 .406 6.433 29 29 0 0 0 2.43 5.863c.233 0 .277-.156.32-.259a35.834 35.834 0 0 1 3.545-5.4 32.807 32.807 0 0 1 4.808-5.283 7.116 7.116 0 0 0 1.963-2.957c.251-.069.406.078.562.173 1.729 1.1 3.459 2.136 5.188 3.26a14.345 14.345 0 0 0 4.142 2.084 5.361 5.361 0 0 0 3.087-.216c.251-.078.476-.216.718-.311a.29.29 0 0 1 .406.337 3.838 3.838 0 0 1-.4 1.046 39.26 39.26 0 0 0-3.1 7.549 3.182 3.182 0 0 1-.562 1.038 18.21 18.21 0 0 0-1.729 2.975 37.951 37.951 0 0 0-2.317 5.465c-.216.631-.484 1.237-.692 1.859-.081.362-.375.475-.661.596zm-27.161-78.689 2.136 1.159 3.554 1.885a1.6 1.6 0 0 1 .329.1c.674.173.821.631.8 1.28 0 1.09.052 2.188.1 3.277a1.15 1.15 0 0 1-.242.865c-.649.787-1.263 1.608-1.92 2.464a17.157 17.157 0 0 1-2.905-4.462 13.248 13.248 0 0 1-1.859-6.615zm26.5 24.783a15.511 15.511 0 0 1-2.058-.674 5.4 5.4 0 0 1-.631-.32c-.268-.1-.536-.208-.8-.329a73.687 73.687 0 0 1-7.687-4.228c-.7-.432-.588-.346-.259-.977a39.541 39.541 0 0 1 3.77-5.638 1.47 1.47 0 0 1 .709-.787c.3.657.571 1.288.865 1.911a34.468 34.468 0 0 0 5.188 7.731 1.678 1.678 0 0 1 .519.778c.171.803.271 1.668.388 2.533zm1.124-6.918a27.541 27.541 0 0 1 2.352-8.647 1.557 1.557 0 0 1 .294-.813 60.644 60.644 0 0 0 8.855 7.039c-1.115.934-2.153 1.911-3.312 2.758a38.91 38.91 0 0 1-3.338 2.845 49.391 49.391 0 0 0-4.5 3.321c-.061.069-.147.078-.294 0a14.569 14.569 0 0 1-.2-2.413 36.514 36.514 0 0 1 .138-4.09zm-12.876-2a3.458 3.458 0 0 1-.545-1.332c-.865-2.767-1.678-5.56-2.309-8.388-.147-.657-.3-1.211-1.159-1.176a20.913 20.913 0 0 1 .787-3.874 59.188 59.188 0 0 1 3.2-8.094A19.43 19.43 0 0 1 228.1 90.4a24.136 24.136 0 0 1 4.462-5.353 34.433 34.433 0 0 1 7.558-5.413 16.619 16.619 0 0 1 2.793-1.09 14.224 14.224 0 0 0-.7 4.963c0 1.833.086 3.675.2 5.508a24.5 24.5 0 0 0 .458 4.2c.156.657.4.761 1.055.562 1.435-.432 2.767-1.124 4.168-1.652 3.122-1.176 6.312-2.17 9.365-3.537.787-.346.787-.346 1.228.45.865 1.66 1.686 3.4 2.594 5.059a3.684 3.684 0 0 1 .242 3.632c-.579 1.28-.977 2.594-1.591 3.909-.19.406-.415.5-.8.372a8.168 8.168 0 0 0-1-.268 59.761 59.761 0 0 1-6.053-1.453c-.752-.2-1.513-.363-2.283-.5s-.925.052-1.124.735a16.941 16.941 0 0 0-.657 2.767 24.359 24.359 0 0 0 .951 10.377c.069.216.259.441.1.752a50.178 50.178 0 0 1-1.729-1.141 18.88 18.88 0 0 1-1.591-1.262 33.913 33.913 0 0 1-2.793-2.292c-.649-.579-1.254-1.193-1.868-1.8-.277-.268-.484-.259-.666.086a2.069 2.069 0 0 0-.182.294c-.519 1.245-1.159 2.43-1.66 3.692a27.387 27.387 0 0 0-1.8 8.3c0 .1 0 .242-.259.233-.432-.605-.943-1.228-1.358-1.9-1.349-2.205-2.707-4.41-3.926-6.693-.346-.649-.519-.7-1.124-.233a10.187 10.187 0 0 0-1.729 1.729 29.537 29.537 0 0 0-2.7 3.839zm24.048-9.244a28.327 28.327 0 0 1 .337-5.923c.173-.925.19-.925 1.072-.666.3.086.6.19.865.285l5.188 1.176 2.023.441c.311.061.484.182.3.519a25.184 25.184 0 0 1-2.43 4.151 4.177 4.177 0 0 1-.787 1.306 33.466 33.466 0 0 1-4.721 5.906c-.13.121-.208.355-.476.285a24.211 24.211 0 0 1-1.375-7.48zm-3.787-33.309a11.009 11.009 0 0 1 1.28-2.594l1.358 1.678a88.273 88.273 0 0 1 5.932 7.921 44.59 44.59 0 0 1 3 5.076c-2.291.865-4.531 1.556-6.71 2.43a58.863 58.863 0 0 0-6.312 3.156 4.989 4.989 0 0 1-.173-1.453 30.412 30.412 0 0 1-.13-7.039 35.365 35.365 0 0 1 1.747-9.183zm.251-3.338a9.356 9.356 0 0 0-1.271 2.136 1.366 1.366 0 0 1-.726.683 52.66 52.66 0 0 0-5.344 2.949 16.836 16.836 0 0 0-2.5 1.833 1.885 1.885 0 0 1-.38-.865 42.372 42.372 0 0 1-2.067-6.114 40.552 40.552 0 0 1-1.2-8.076 23.728 23.728 0 0 1 .6-5.595 129.77 129.77 0 0 1 11.241 10.783 12.685 12.685 0 0 1 1.608 1.66c.121.19.233.363.035.6zM220.59 68.2c-.389.458-.527.476-.865 0a1.791 1.791 0 0 1-.13-.216 3.071 3.071 0 0 1-.666-.787 32.858 32.858 0 0 1-2.94-5.067 62.684 62.684 0 0 1-3.1-7.021c-.061-.147-.173-.3-.1-.484s.32-.1.493-.121c3.554-.285 7.125-.311 10.688-.337a14.216 14.216 0 0 1 3.779.156 1.565 1.565 0 0 1 1.487.45l2.715 2.4c.13.112.329.233.259.406-.268.666-.251 1.435-1.055 1.876a35.354 35.354 0 0 0-3.251 2.11 38.912 38.912 0 0 0-7.333 6.632zm.709 24.731a32.86 32.86 0 0 1-2.179 7.843c-.38.925-.8 1.833-1.228 2.75-.1.225-.208.588-.51.45a5.638 5.638 0 0 1-2.43-1.729 14.035 14.035 0 0 1-1.79-3.329 6.053 6.053 0 0 1-.813-1.972c-.329-1.1-.329-1.141.778-1.366a42.206 42.206 0 0 0 7.238-2.231 2.715 2.715 0 0 1 .925-.424zm3.372 26.555c-.2.251-.415-.052-.588-.156a25.078 25.078 0 0 1-3.018-2.1c-1.375-.934-2.594-2.1-3.926-3.07a1.5 1.5 0 0 0-.121-.121.467.467 0 0 1-.086-.787c.389-.493.726-1.029 1.115-1.522a11.821 11.821 0 0 1 2.4-2.594 2.81 2.81 0 0 1 .977-.666 1.374 1.374 0 0 1 .1.268 22.258 22.258 0 0 0 3.113 9.512c.078.121.138.251.208.372a.744.744 0 0 1-.208.856zM210.4 80.715c.086-.285.259-.45.579-.285a13.914 13.914 0 0 1 1.781.865 2.212 2.212 0 0 1 .415.086 16.11 16.11 0 0 1 4.7 2.836 13.55 13.55 0 0 1 2.793 3.044c.32.545.311.6-.13.865a40.943 40.943 0 0 0-5.854 5.084 2.093 2.093 0 0 1-.623.579 1.081 1.081 0 0 1-.493.51 22.8 22.8 0 0 1-2.819-6.918 26.807 26.807 0 0 1-.51-5.88 3.06 3.06 0 0 1 .147-.8zm-11.584-4.375.968.294c1.211.363 1.314.285 1.366-.96a3.611 3.611 0 0 0 0-.432 39.6 39.6 0 0 1-.052-4.324 5.465 5.465 0 0 1 .112-1.479 5.187 5.187 0 0 1 1.245.96l1.012.787a53.614 53.614 0 0 1 7.047 6.676c.259.3.38.545.121.865-.112.164-.173.363-.268.536a42.058 42.058 0 0 0-2.49 5.43 28 28 0 0 1-1.159 2.845l-.164.657c-.138.294-.138.294-.424 0s-.441-.363-.631-.571c-1.531-1.608-2.836-3.4-4.194-5.136a8.385 8.385 0 0 1-.536-.865 23.861 23.861 0 0 1-1.928-4.713c-.052-.182-.233-.363-.035-.579zm12.936-18.453a21.445 21.445 0 0 0-1.98 3.321 35.157 35.157 0 0 0-2.949 8.137 2.136 2.136 0 0 1-.934-.389 1.306 1.306 0 0 1-.329-.086 51.971 51.971 0 0 1-4.894-3.052 57.072 57.072 0 0 1-5.577-4.618 23.587 23.587 0 0 1-2.447-2.7l.493-.182a109.284 109.284 0 0 1 14.181-3.243 2.162 2.162 0 0 1 .943 0 .15.15 0 0 1 .216-.112 22.14 22.14 0 0 1 2.378-.329c.38-.061.5.086.588.415a12.106 12.106 0 0 0 .5 1.556 1.115 1.115 0 0 1-.188 1.282zm-19.888 1.323 1.263 1.79c.683.77 1.4 1.513 2.145 2.231 1.306 1.254 2.689 2.413 4.1 3.554a.977.977 0 0 1 .406 1.029 20.977 20.977 0 0 0 0 7.238 3.649 3.649 0 0 1-1.626-.925 6.849 6.849 0 0 1-1.729-1.435 19.568 19.568 0 0 1-4.79-6.468c-.977-2.4-.493-4.618.233-7.047zm67.448-20.753c-.917-.614-1.911-.96-2.767-1.582a14.362 14.362 0 0 1-2.032-1.09c-1.591-.778-3.156-1.591-4.739-2.4-1.531-.562-3.1-1.055-4.038-2.551a2.794 2.794 0 0 0-.4-.45 9.114 9.114 0 0 0-4.877-3.052c-.64-.138-1.271-.329-1.937-.5a4.592 4.592 0 0 1 1.012-1.729 15.419 15.419 0 0 1 2.596-3.203.951.951 0 0 1 1.107-.242 35.574 35.574 0 0 1 7.488 3.459A34.77 34.77 0 0 1 255 28.452a21.176 21.176 0 0 1 3.986 4.739 3.079 3.079 0 0 1 .865 1.729 12.236 12.236 0 0 1-.519 3.459zm4.678-.994a21.091 21.091 0 0 0-.8 3.286 13.646 13.646 0 0 1-2.248-1.306c-.216-.13-.467-.251-.372-.588s.156-.718.64-.8a60.902 60.902 0 0 1 2.8-.666zm31.2 3.753a67.1 67.1 0 0 0-13.29 1.071c-1.885.285-3.692.865-5.551 1.237a59.9 59.9 0 0 0-6.658 1.4.493.493 0 0 1-.476-.1l-2.88-2.049-.536-.268c-.7-.389-1.375-.778-.865-1.729a1.02 1.02 0 0 0 0-.432 9.78 9.78 0 0 1 .7-3.009 1.972 1.972 0 0 1 .856-1.072c1.193-.8 2.343-1.669 3.554-2.438a32.712 32.712 0 0 1 11.556-4.554 33.37 33.37 0 0 1 6.434-.527 9.65 9.65 0 0 1 3.8.614 1.729 1.729 0 0 1 .865.294 13.836 13.836 0 0 1 2.3 1.5A23.52 23.52 0 0 1 300.628 38c.605 1.141 1.072 2.352 1.591 3.537a.735.735 0 0 1 .112.674 12.435 12.435 0 0 1-2.075-.545 27.525 27.525 0 0 0-5.05-.527zm-22.872 4.393a8.587 8.587 0 0 1-.061 1.211 8.31 8.31 0 0 1-1.384-.994 3.174 3.174 0 0 1 1.444-.216zm2.179-.562c.51-.086 1.012-.2 1.513-.311 1-.208 1.193-.052 1.176.968s-.683 1.435-1.729 1.271a1.634 1.634 0 0 1-1.34-1.384c-.035-.311.035-.493.38-.545zm.588 63.8a44.1 44.1 0 0 1-8.37-5.119 3.519 3.519 0 0 1-1.211-1.816 32.1 32.1 0 0 0-1.876-5.465c-1.548-3.182-3.1-6.364-4.747-9.512a68.088 68.088 0 0 0-6.1-9.806 114.412 114.412 0 0 0-9.754-11.414 109.116 109.116 0 0 0-11.665-10.5 8.587 8.587 0 0 0-4.989-1.946c-4.479-.156-8.958-.2-13.446.086a87.578 87.578 0 0 0-18.894 3.459c-.614.173-1.2.406-1.8.614a1.245 1.245 0 0 0-.674.51 8.889 8.889 0 0 0-1.47 3.1 17.4 17.4 0 0 1-.458 1.729.32.32 0 0 1-.346-.138 36.944 36.944 0 0 1-2.231-3.39.631.631 0 0 1-.086-.484c.311-1.375.467-2.784.865-4.142a86.592 86.592 0 0 1 4.324-13.368.865.865 0 0 1 .381-.432 29.018 29.018 0 0 1 5.041-2.8 61.809 61.809 0 0 1 12.815-4.038c5.033-.951 10.057-1.911 15.158-2.4a72.636 72.636 0 0 1 11.717-.259 11.674 11.674 0 0 1 3.156.415c3.355 1.2 6.7 2.421 9.962 3.883 2.594 1.185 5.266 2.309 7.782 3.7a161.755 161.755 0 0 1 17.114 11.136 33.645 33.645 0 0 1 6.918 6.321.588.588 0 0 0 .813.208c.5-.216 1.012-.415 1.513-.623a3.173 3.173 0 0 1 .761-.553 7.869 7.869 0 0 0 2.1-2.24 9.3 9.3 0 0 0 1.02-7.073 6.053 6.053 0 0 0-1.332-2.776c-.147-.182-.381-.346-.363-.666a2.317 2.317 0 0 1 1.046.138c1.574.441 3.113 1 4.687 1.487a1.634 1.634 0 0 1 1.271 1.4 9.719 9.719 0 0 0 1.072 2.905 14.9 14.9 0 0 1 1.193 2.594c.968 2.681 1.963 5.344 2.871 8.042a61.915 61.915 0 0 1 3.047 14.149 42.646 42.646 0 0 1-.467 12.538 33.965 33.965 0 0 1-4.652 11.726 36.845 36.845 0 0 1-8.44 9.045 30.959 30.959 0 0 1-4.557 3.26 4.453 4.453 0 0 1-2.655.467 17.649 17.649 0 0 1-6.045-1.954zm-28.026 24.763a26.97 26.97 0 0 1-7.22 2.257 2.4 2.4 0 0 1-1.366-.156c-1.193-.51-2.378-1.029-3.511-1.652a178.816 178.816 0 0 1-17.362-10.912c-1.522-1.081-3.027-2.2-4.557-3.269a7.246 7.246 0 0 1-1.288-1.124c-.138-.156-.251-.285-.164-.527.2-.536.372-1.081.553-1.626l1.081-4.721a13.516 13.516 0 0 1 2.084 1.911 32.808 32.808 0 0 0 5.37 4.842 72.385 72.385 0 0 0 10.264 6.347 29.972 29.972 0 0 0 5.361 2.127 3.761 3.761 0 0 0 3.1-.3 53.815 53.815 0 0 0 6.157-4.125 69.067 69.067 0 0 0 6.053-5.508 34.869 34.869 0 0 0 3.32-3.736 56.7 56.7 0 0 0 5.958-10.377c.735-1.548 1.323-3.148 1.98-4.747.086.069.147.1.164.138.527 1.5 1.055 2.983 1.556 4.488a2.8 2.8 0 0 0 .986 1.479 6.448 6.448 0 0 1 .571.519 17.771 17.771 0 0 0 1.729 1.306 64.428 64.428 0 0 0 7.307 4.557c.726.389 1.461.752 2.188 1.124a1.729 1.729 0 0 1-.614.8l-4.1 3.96a85.063 85.063 0 0 1-8.44 7.238 86.1 86.1 0 0 1-17.156 9.685zm-.311 22.854c-.683.294-1.4.545-2.058.865a.865.865 0 0 1-1.029 0c-.865-.579-1.8-1.133-2.689-1.729-2.093-1.366-4.2-2.715-6.408-3.9a7.4 7.4 0 0 1-2.119-1.107c-.216-.208-.424 0-.5.259a13.591 13.591 0 0 0-.865 2.8 1.418 1.418 0 0 1-.674 1.107 32.366 32.366 0 0 0-5.56 5.638 12.418 12.418 0 0 0-1.349 2.1c-.086.164-.1.4-.4.441a23.546 23.546 0 0 1-.406-7.7 29.274 29.274 0 0 1 1-4.28 3.078 3.078 0 0 1 .64-1.115 15.851 15.851 0 0 1 4.125-3.459c.182-.112.458-.13.484-.476a1.729 1.729 0 0 0-1.375.1c-.657.294-1.323.579-1.946.934a7.255 7.255 0 0 0-2.862 2.439 10.834 10.834 0 0 0-1.332 2.689.865.865 0 0 1-.631.623 9.693 9.693 0 0 0-2.949 1.366 12.514 12.514 0 0 1 .865-3.459 11.588 11.588 0 0 1 2.5-3.684 6.589 6.589 0 0 1 3.4-2.2 16.9 16.9 0 0 1 4.894-.917h6.053c.545 0 1.09-.052 1.634 0 2.266.138 4.531.285 6.8.467.623.052 1.211.112 1.669-.441a1.591 1.591 0 0 1 .069.865 20.414 20.414 0 0 0 0 2.413 36.316 36.316 0 0 0 1.487 8.379c.206.706.184.723-.468.983zm17.666 15.636a12.554 12.554 0 0 0-.692 3.675l-1.124-.943a10.369 10.369 0 0 1-1.141-1.167 3.666 3.666 0 0 1-.744-3.165 22.135 22.135 0 0 0 3.372.994c.329.077.415.259.329.606zm-1.531 5.811v.061l.32.147c.7.337.813.605.761 1.435h.061l-.311-.355a4.522 4.522 0 0 1-.873-1.288z" transform="translate(-58.482 -18.813)"/>
            <path id="Path_1334" data-name="Path 1334" class="cls-11" d="M252.5 209.278c.13.052.285.078.294.251a.346.346 0 0 1-.225.337l-.735.355-1.487-.787.294-.1a2.646 2.646 0 0 1 1.859-.056z" transform="translate(-67.463 -44.56)"/>
            <path id="Path_1335" data-name="Path 1335" d="M285.171 58.211c-.5.208-1.012.406-1.513.623a.588.588 0 0 1-.813-.208 33.645 33.645 0 0 0-6.918-6.321 161.752 161.752 0 0 0-17.121-11.146c-2.516-1.392-5.188-2.516-7.782-3.7-3.26-1.461-6.606-2.681-9.962-3.883a11.673 11.673 0 0 0-3.156-.415 72.637 72.637 0 0 0-11.717.259c-5.1.493-10.126 1.453-15.158 2.4a61.81 61.81 0 0 0-12.815 4.038 29.02 29.02 0 0 0-5.041 2.8.865.865 0 0 0-.38.432 86.591 86.591 0 0 0-4.324 13.368c.277.061.484-.147.726-.233.865-.285 1.729-.657 2.594-.865 1.617-.432 3.225-.943 4.868-1.314 2.006-.458 4.03-.813 6.053-1.254a45.831 45.831 0 0 1 5.534-.562c1.729-.173 3.372-.138 5.059-.182a45.38 45.38 0 0 1 6.753-.026c1.643.208 3.3.242 4.946.441 1.228.156 2.456.121 3.684.2a6.217 6.217 0 0 1 2.931.484c.32.182.631.38.968.553 1.141.579 2.352 1.038 3.459 1.678.45.259.8.64 1.245.908a38.22 38.22 0 0 1 3.658 2.689c1.176.917 2.257 1.954 3.459 2.862a90.3 90.3 0 0 1 7 6.364 13.057 13.057 0 0 1 1.133 1.115q2.594 3.087 5.188 6.2a5.3 5.3 0 0 1 .865 1.159 9.39 9.39 0 0 0 1.245 1.807c1.046 1.323 1.851 2.81 2.828 4.177a23.547 23.547 0 0 1 1.522 2.888 44.486 44.486 0 0 1 2.071 4.053 13.707 13.707 0 0 0 2.127 3.459c.865 1.029 1.833 1.876 2.7 2.862a16.432 16.432 0 0 0 2.534 2.162 31.381 31.381 0 0 0 6.1 3.64c.994.45 1.271.406 1.946-.372a58.151 58.151 0 0 0 3.891-4.324 43.546 43.546 0 0 0 3.052-4.324 35.319 35.319 0 0 0 2.4-4.739c.173-.476.553-.865.709-1.366a39.824 39.824 0 0 0 1.34-4.522c.363-1.729.865-3.459 1.176-5.188a29.277 29.277 0 0 1 .415-3.234 24.815 24.815 0 0 0 .545-6.062c.052-1.963-.069-3.934-.086-5.906a1.176 1.176 0 0 0-.545-1 9.218 9.218 0 0 0-3.632-1.729c-1.807-.38-3.615-.994-5.517-.718-.071.041-.157-.01-.244-.028zM238.727 35.6c-.865 1.556-1.729 3.139-2.637 4.652a49.9 49.9 0 0 0-4.41 9.624c-.251.674-.45 1.366-.692 2.041-.069.2-.078.536-.4.45s-.173-.38-.173-.6a6.336 6.336 0 0 1 .156-1.453 39.725 39.725 0 0 1 2.119-5.742 52.569 52.569 0 0 1 3.511-6.382 17.772 17.772 0 0 1 1.963-3.027c.182-.2.363-.6.674-.38s.019.557-.111.817z" transform="translate(-59.091 -20.737)" style="fill:#ffb400"/>
            <path id="Path_1336" data-name="Path 1336" class="cls-13" d="M295.548 199.539a7.228 7.228 0 0 1-1.729-.329 40.826 40.826 0 0 1-3.917-1.5 55.013 55.013 0 0 1-5.837-2.71 23.952 23.952 0 0 1-3.762-2.836c-.51-.467-1.107-.8-1.626-1.245a26.015 26.015 0 0 1-2.041-2.326c-.156-.164-.259-.38-.519-.415.1-.277.311-.2.5-.182.571.061 1.141.138 1.729.182a9.685 9.685 0 0 0 4.894-.692 10.307 10.307 0 0 0 3.926-3.537 27.229 27.229 0 0 0 3.865-7.67 7.782 7.782 0 0 0 .648-3.787c-.061-.346.164-.441.441-.5a26.165 26.165 0 0 1 4.168-.674c3.787-.259 7.575-.259 11.371-.355h1.461c.138 0 .32 0 .363-.173s-.147-.3-.294-.363a5.04 5.04 0 0 0-1.435-.242c-1.669-.138-3.329-.182-4.989-.406a37.923 37.923 0 0 0-5.335-.225c-1.729 0-3.459.285-5.24.432-.934.078-.925.069-1.124-.8-.415-1.729-.562-3.58-1.115-5.309a1 1 0 0 1 0-.6c.285-1.09.329-2.222.536-3.32a17.744 17.744 0 0 0 .078-5.327c-.225-1.954-.96-3.615-3.061-4.263a.526.526 0 0 1-.156-.078c-2.966-1.582-6.053-1.418-9.131-.51a12.713 12.713 0 0 0-1.435.571c-.216.1-.415.251-.294.536s.329.156.519.147c.553 0 1.038-.337 1.6-.355 1.2 0 2.413-.138 3.615-.138a8.483 8.483 0 0 1 4.427 1.47 15.57 15.57 0 0 1 .3 3.407 11.371 11.371 0 0 1-.562 3.459 22.613 22.613 0 0 1-.8 2.81c-.389.865-.5 1.816-.951 2.655a1.367 1.367 0 0 0-.173.571c0 1.513-.19 3.018-.216 4.531 0 1.366-.13 2.741-.156 4.107a4.246 4.246 0 0 1-1.081 2.473 72.6 72.6 0 0 0-2.361 3.26 1.306 1.306 0 0 1-1.461.536c-2.17-.233-4.324-.692-6.459-1.012-1.02-.156-2.032-.381-3.052-.527-1.159-.173-2.326-.225-3.459-.285a1.271 1.271 0 0 0-.865.259 3.459 3.459 0 0 1-1.729.605c-1.193.164-1.522.865-.865 1.85a2.318 2.318 0 0 0 .96.865.925.925 0 0 1 .51 1.055c-.069 1.245-.285 2.49-.233 3.753a21.688 21.688 0 0 0 1.064 5.621c.355 1.09.865 2.11 1.28 3.182.086.233.363.519-.052.735a23.727 23.727 0 0 1-5.188-4.324 8.146 8.146 0 0 1-2.136-6.243c0-.138.112-.355-.173-.415-.043.1-.1.2-.138.3a13.875 13.875 0 0 0-.5 4.168 3.459 3.459 0 0 0 .605 2.2c.372.545.709 1.115 1.064 1.669a3.027 3.027 0 0 0-.64 1.366 12.105 12.105 0 0 0-.173 4.142c0 .19.112.4-.156.5a39.245 39.245 0 0 1-3.528-3.666 1.6 1.6 0 0 1-.329-.951 19.412 19.412 0 0 1 .476-5.915 53.847 53.847 0 0 1 3.839-11.432 2.412 2.412 0 0 1 1.167-1.211c.588-.294 1.15-.649 1.729-.977a15.512 15.512 0 0 1 2.594-1.237 52.529 52.529 0 0 1 6.053-1.729 21.727 21.727 0 0 1 6.183-1.02.573.573 0 0 0 .173 0 .536.536 0 0 0 .527-.562 8.652 8.652 0 0 0 0-2.058c-.458-2.49-.726-5.007-1.055-7.514-.1-.683-.2-1.366-.32-2.041-.061-.346-.2-.761-.623-.692s-.337.5-.311.865c.173 2.179.45 4.324.519 6.537 0 .917.147 1.833.1 2.758 0 .346-.121.51-.5.527a12.617 12.617 0 0 0-1.28.147q-4.531.649-8.993 1.643c-.45-1.141-1.115-2.188-1.487-3.372a37.569 37.569 0 0 1-1.444-5.992 7.415 7.415 0 0 1 0-1.453 38.09 38.09 0 0 0 .19-3.848c0-.121.043-.233.043-.346a1.47 1.47 0 0 1 1.4-1.643 15.157 15.157 0 0 0 4.177-1.556c.778-.415 1.634-.674 2.43-1.072.579-.285 1.133-.649 1.729-.977a38.086 38.086 0 0 0 3.312-2.119c1.1-.77 2.136-1.634 3.217-2.413s1.859-1.556 2.862-2.257a15.617 15.617 0 0 0 2.369-2.352q1.375-1.479 2.7-3.009a6.918 6.918 0 0 0 1.081-1.41.735.735 0 0 1 .5-.372c.588 1.02.986 2.127 1.5 3.174a7.941 7.941 0 0 0 .709 1.271 17.3 17.3 0 0 1 1.626 2.923 23.182 23.182 0 0 0 2.2 3.883 15.626 15.626 0 0 0 2.542 2.9 1.055 1.055 0 0 0 .605.294 37.188 37.188 0 0 0 2.767 2.836 41.558 41.558 0 0 0 9.512 5.716 95.981 95.981 0 0 0 10.377 3.986l-24.013 36.015c-.215-.006-.422-.006-.63-.023z" transform="translate(-68.085 -34.744)"/>
            <path id="Path_1337" data-name="Path 1337" class="cls-13" d="M283.91 213.484a34.208 34.208 0 0 0 6.148 3.459c.977.424 1.937.865 2.914 1.332l-6 9L274 220.454c.865-2.17 1.729-4.324 2.793-6.4a5.647 5.647 0 0 1 3.286-2.975.8.8 0 0 1 .865.164c.865.657 1.773 1.28 2.655 1.92a.484.484 0 0 0 .311.32z" transform="translate(-70.662 -44.816)"/>
            <path id="Path_1338" data-name="Path 1338" class="cls-13" d="M312.507 224.1c-.32-.086-.649-.173-.977-.242.329.071.657.158.977.242z" transform="translate(-75.739 -46.553)"/>
            <path id="Path_1339" data-name="Path 1339" class="cls-14" d="M267.18 107.507a3.519 3.519 0 0 1-1.211-1.816 32.1 32.1 0 0 0-1.876-5.465c-1.548-3.182-3.1-6.364-4.747-9.512a68.088 68.088 0 0 0-6.1-9.806 114.409 114.409 0 0 0-9.754-11.414A109.12 109.12 0 0 0 231.822 59a8.587 8.587 0 0 0-4.989-1.937c-4.479-.156-8.958-.2-13.446.086a87.578 87.578 0 0 0-18.895 3.451c-.614.173-1.2.406-1.8.614a1.245 1.245 0 0 0-.674.51 8.89 8.89 0 0 0-1.47 3.1 17.392 17.392 0 0 1-.458 1.729.32.32 0 0 1-.346-.138 36.946 36.946 0 0 1-2.231-3.39.631.631 0 0 1-.087-.484c.311-1.375.467-2.784.865-4.142.277.061.484-.147.726-.233.865-.285 1.729-.657 2.594-.865 1.617-.432 3.225-.943 4.868-1.314 2.006-.458 4.03-.813 6.053-1.254a45.829 45.829 0 0 1 5.534-.562c1.729-.173 3.372-.138 5.059-.182a45.381 45.381 0 0 1 6.788-.1c1.643.208 3.3.242 4.946.441 1.228.156 2.456.121 3.684.2a6.217 6.217 0 0 1 2.931.484c.32.182.631.38.968.553 1.141.579 2.352 1.038 3.459 1.678.45.259.8.64 1.245.908a38.219 38.219 0 0 1 3.658 2.689c1.176.917 2.257 1.954 3.459 2.862a90.3 90.3 0 0 1 7 6.364 13.058 13.058 0 0 1 1.133 1.115q2.594 3.087 5.188 6.2a5.3 5.3 0 0 1 .865 1.159 9.387 9.387 0 0 0 1.245 1.807c1.046 1.323 1.851 2.81 2.828 4.177a23.533 23.533 0 0 1 1.522 2.888 44.478 44.478 0 0 1 2.075 4.047 13.707 13.707 0 0 0 2.127 3.459c.865 1.029 1.833 1.876 2.7 2.862a16.432 16.432 0 0 0 2.534 2.162 31.38 31.38 0 0 0 6.1 3.64c.994.45 1.271.406 1.946-.372a58.158 58.158 0 0 0 3.891-4.324 43.552 43.552 0 0 0 3.052-4.324 35.325 35.325 0 0 0 2.4-4.739c.173-.476.553-.865.709-1.366a39.823 39.823 0 0 0 1.34-4.522c.363-1.729.865-3.459 1.176-5.188a29.285 29.285 0 0 1 .415-3.234 24.818 24.818 0 0 0 .545-6.062c.052-1.963-.069-3.934-.086-5.906a1.176 1.176 0 0 0-.545-1 9.218 9.218 0 0 0-3.632-1.729c-1.807-.38-3.615-.994-5.517-.718a.454.454 0 0 1-.251-.052 3.173 3.173 0 0 1 .761-.553 7.869 7.869 0 0 0 2.067-2.144 9.3 9.3 0 0 0 1.02-7.073 6.052 6.052 0 0 0-1.332-2.776c-.147-.182-.38-.346-.363-.666a2.317 2.317 0 0 1 1.046.138c1.574.441 3.113 1 4.687 1.487a1.634 1.634 0 0 1 1.271 1.4 9.719 9.719 0 0 0 1.072 2.905 14.9 14.9 0 0 1 1.193 2.594c.968 2.681 1.963 5.344 2.871 8.042a61.912 61.912 0 0 1 3.044 14.147 42.648 42.648 0 0 1-.467 12.538 33.965 33.965 0 0 1-4.652 11.726 36.845 36.845 0 0 1-8.44 9.045 30.957 30.957 0 0 1-4.557 3.26 4.453 4.453 0 0 1-2.655.467 17.648 17.648 0 0 1-6.053-1.954 44.1 44.1 0 0 1-8.356-5.124z" transform="translate(-58.948 -22.603)"/>
            <path id="Path_1340" data-name="Path 1340" class="cls-15" d="M312.66 224.14z" transform="translate(-75.892 -46.591)"/>
            <path id="Path_1341" data-name="Path 1341" class="cls-15" d="M281.857 198.988c.519.45 1.115.778 1.626 1.245a23.949 23.949 0 0 0 3.761 2.836 55.019 55.019 0 0 0 5.837 2.715 44.102 44.102 0 0 0 3.917 1.5 7.23 7.23 0 0 0 1.729.329h.631l-5.785 8.647c-.977-.441-1.937-.908-2.914-1.332a34.207 34.207 0 0 1-6.148-3.459.484.484 0 0 1-.259-.32.294.294 0 0 0 .061-.5c-.6-.709-1.133-1.461-1.729-2.119a23.529 23.529 0 0 1-2.006-2.257 7.9 7.9 0 0 1-1.729-3.606 15.771 15.771 0 0 1-.173-3.606 6.416 6.416 0 0 1 .649-2.828c.259 0 .363.251.519.415a26.013 26.013 0 0 0 2.013 2.34z" transform="translate(-71.29 -42.815)"/>
            <path id="Path_1342" data-name="Path 1342" class="cls-14" d="M248.64 209.846c.13-.329.251-.657.372-.986l1.107.579a5.085 5.085 0 0 1-1.479.406z" transform="translate(-67.231 -44.523)"/>
            <path id="Path_1343" data-name="Path 1343" class="cls-14" d="M252.4 208.712a.346.346 0 0 0 .225-.337c0-.173-.164-.2-.294-.251a2.646 2.646 0 0 0-1.859.052l-.294.1-1.107-.579c.925-2.413 1.729-4.808 2.758-7.22.078.147.1.173.1.2a2.39 2.39 0 0 0 .052.605 11.527 11.527 0 0 0 3.666 7.86c1.375 1.409 2.776 2.8 4.159 4.2l-8.137-4.324z" transform="translate(-67.289 -43.39)"/>
            <path id="Path_1344" data-name="Path 1344" class="cls-14" d="M264.828 210.329c0-1.107 0-2.222.086-3.459a25.613 25.613 0 0 0 9.512 4.194 6.2 6.2 0 0 0-1.358 1.807c-.908 1.92-2.006 3.744-2.819 5.716l-5.5-2.9c.139-1.787.062-3.577.079-5.358z" transform="translate(-69.411 -44.254)"/>
            <path id="Path_1345" data-name="Path 1345" class="cls-14" d="M244.156 149.34a2.4 2.4 0 0 1-1.366-.156c-1.193-.51-2.378-1.029-3.511-1.652a178.813 178.813 0 0 1-17.363-10.913c-1.522-1.081-3.027-2.2-4.557-3.269a7.246 7.246 0 0 1-1.288-1.124c-.138-.156-.251-.285-.164-.527.2-.536.372-1.081.553-1.626a1.5 1.5 0 0 1 .726.441c1.107.951 2.3 1.79 3.459 2.637s2.335 1.859 3.545 2.724c1.02.735 2.093 1.418 3.122 2.153a31.264 31.264 0 0 0 4.324 2.5c.994.5 1.911 1.15 2.888 1.66a24.215 24.215 0 0 0 4.4 1.9c1.332.389 2.7.545 4.03.865a2.257 2.257 0 0 0 2.335-.718c1.254-1.271 2.715-2.291 4.038-3.459 2.144-1.9 4.375-3.684 6.52-5.595 2.283-2.032 4.177-4.4 6.278-6.589.752-.787 1.513-1.556 2.274-2.335a22.068 22.068 0 0 0 1.954-2.274c.865-1.133 1.781-2.179 2.7-3.243a7.972 7.972 0 0 0 1.418-2.343 17.783 17.783 0 0 0 1.729 1.306 64.426 64.426 0 0 0 7.307 4.557c.726.389 1.461.752 2.188 1.124a1.729 1.729 0 0 1-.614.8l-4.107 3.969a85.065 85.065 0 0 1-8.44 7.238 86.1 86.1 0 0 1-17.156 9.719 26.97 26.97 0 0 1-7.222 2.23z" transform="translate(-62.799 -32.286)"/>
            <path id="Path_1346" data-name="Path 1346" d="M231.018 127.14c-.865-2.767-1.678-5.56-2.309-8.388-.147-.657-.3-1.211-1.159-1.176a20.91 20.91 0 0 1 .787-3.874 59.191 59.191 0 0 1 3.2-8.094 19.432 19.432 0 0 1 2.456-4.012c.709.043 1.41-.078 2.136 0a6.33 6.33 0 0 1 2.992.865 27.17 27.17 0 0 1 5.24 4.142 21.817 21.817 0 0 1 3.813 4.842 18.408 18.408 0 0 1 1.634 3.113c.389 1.185.865 2.361 1.167 3.571a19.819 19.819 0 0 1 .6 2.758 15.818 15.818 0 0 1 .1 2.4 33.913 33.913 0 0 1-2.793-2.291c-.649-.579-1.254-1.193-1.868-1.8-.277-.268-.484-.259-.666.086a2.07 2.07 0 0 0-.182.294c-.519 1.245-1.159 2.43-1.66 3.692a27.386 27.386 0 0 0-1.8 8.3c0 .1 0 .242-.259.233-.432-.605-.943-1.228-1.358-1.9-1.349-2.205-2.707-4.41-3.926-6.693-.346-.649-.519-.7-1.124-.233a10.186 10.186 0 0 0-1.729 1.729 29.539 29.539 0 0 0-2.8 3.857 3.459 3.459 0 0 1-.492-1.421z" transform="translate(-64.378 -30.009)" style="fill:#fe4243"/>
            <path id="Path_1347" data-name="Path 1347" d="M252.62 118.987a19.828 19.828 0 0 0-.6-2.758c-.329-1.211-.778-2.387-1.167-3.571a18.409 18.409 0 0 0-1.634-3.113 21.817 21.817 0 0 0-3.813-4.842 27.169 27.169 0 0 0-5.24-4.142 6.33 6.33 0 0 0-2.992-.865 19.554 19.554 0 0 1-2.136 0 24.134 24.134 0 0 1 4.462-5.353 34.434 34.434 0 0 1 7.558-5.413 16.621 16.621 0 0 1 2.793-1.09 14.225 14.225 0 0 0-.7 4.963c0 1.833.086 3.675.2 5.508a24.507 24.507 0 0 0 .458 4.2c.156.657.4.761 1.055.562 1.435-.432 2.767-1.124 4.168-1.652 3.122-1.176 6.312-2.17 9.365-3.537.787-.346.787-.346 1.228.45.865 1.66 1.686 3.4 2.594 5.059a3.684 3.684 0 0 1 .242 3.632c-.579 1.28-.977 2.594-1.591 3.909-.19.406-.415.5-.8.372a8.172 8.172 0 0 0-1-.268 59.761 59.761 0 0 1-6.053-1.453c-.752-.2-1.513-.363-2.283-.5s-.925.052-1.124.735a16.938 16.938 0 0 0-.657 2.767 24.359 24.359 0 0 0 .951 10.377c.069.216.259.441.1.752a50.178 50.178 0 0 1-1.729-1.141 18.873 18.873 0 0 1-1.591-1.262 15.818 15.818 0 0 0-.064-2.326z" transform="translate(-65.391 -28.151)" style="fill:#c93435"/>
            <path id="Path_1348" data-name="Path 1348" class="cls-14" d="M294.742 146.716a23.175 23.175 0 0 1-2.2-3.883 17.292 17.292 0 0 0-1.626-2.923 7.942 7.942 0 0 1-.709-1.271c-.519-1.046-.917-2.153-1.5-3.174a.735.735 0 0 0-.5.372 6.916 6.916 0 0 1-1.09 1.418q-1.323 1.531-2.7 3.009a15.616 15.616 0 0 1-2.369 2.352c-1 .7-1.868 1.557-2.862 2.257s-2.119 1.643-3.217 2.413-2.179 1.461-3.312 2.119c-.571.329-1.124.692-1.729.977-.8.4-1.652.657-2.43 1.072a15.16 15.16 0 0 1-4.177 1.556 1.47 1.47 0 0 0-1.4 1.643c0 .112-.043.225-.043.346a38.1 38.1 0 0 1-.19 3.848 7.411 7.411 0 0 0 0 1.453 37.569 37.569 0 0 0 1.444 5.992c.372 1.185 1.038 2.231 1.487 3.372-1.928.674-3.779 1.531-5.629 2.387a.284.284 0 0 1-.311-.1 15.219 15.219 0 0 1-.865-2.871 41.956 41.956 0 0 1-.994-8.811c0-3.018.8-5.923 1.314-8.872a.994.994 0 0 1 .7-.778 41 41 0 0 0 4.375-2.041c2.879-1.626 5.8-3.174 8.526-5.076 1.859-1.3 3.77-2.542 5.526-3.986a131.319 131.319 0 0 0 11.285-10.653c.225-.233.406-.51.787-.346s.225.493.233.761a36.673 36.673 0 0 0 2.871 12.91 26.081 26.081 0 0 0 4.142 7.134 1.254 1.254 0 0 1 .355.579 1.055 1.055 0 0 1-.605-.294 15.629 15.629 0 0 1-2.577-2.9z" transform="translate(-68.472 -33.648)"/>
            <path id="Path_1349" data-name="Path 1349" class="cls-18" d="M252.049 176.016c-.683.294-1.4.545-2.058.865a.865.865 0 0 1-1.029 0c-.865-.579-1.8-1.133-2.689-1.729-2.093-1.366-4.2-2.715-6.408-3.9a7.4 7.4 0 0 1-2.119-1.107c-.216-.208-.424 0-.5.259a13.594 13.594 0 0 0-.865 2.8 1.418 1.418 0 0 1-.674 1.107 32.365 32.365 0 0 0-5.56 5.638 12.419 12.419 0 0 0-1.349 2.1c-.086.164-.1.4-.4.441a23.546 23.546 0 0 1-.406-7.7 29.274 29.274 0 0 1 1-4.28 3.078 3.078 0 0 1 .64-1.115 15.85 15.85 0 0 1 4.125-3.459c.182-.112.458-.13.484-.476a1.729 1.729 0 0 0-1.375.1c-.657.294-1.323.579-1.946.934a7.255 7.255 0 0 0-2.862 2.438 10.834 10.834 0 0 0-1.332 2.689.865.865 0 0 1-.631.623 9.694 9.694 0 0 0-2.949 1.366 12.514 12.514 0 0 1 .865-3.459 11.587 11.587 0 0 1 2.5-3.684 6.589 6.589 0 0 1 3.4-2.2 16.9 16.9 0 0 1 4.894-.917h6.053c.545 0 1.09-.052 1.634 0 2.266.138 4.531.285 6.8.467.623.052 1.211.112 1.669-.441a1.591 1.591 0 0 1 .069.865 20.414 20.414 0 0 0 0 2.413 36.317 36.317 0 0 0 1.487 8.379c.206.706.189.723-.468.983z" transform="translate(-63.783 -38.364)"/>
            <path id="Path_1350" data-name="Path 1350" class="cls-14" d="M267.385 197.555c-.389-1.072-.925-2.093-1.28-3.182a21.686 21.686 0 0 1-1.064-5.621c-.052-1.263.164-2.508.233-3.753a.925.925 0 0 0-.51-1.055 2.317 2.317 0 0 1-.96-.865c-.683-.994-.355-1.686.865-1.851a3.459 3.459 0 0 0 1.729-.605 1.271 1.271 0 0 1 .865-.259c1.167.061 2.335.112 3.459.285 1.02.147 2.032.372 3.052.527 2.153.32 4.324.778 6.459 1.012a1.306 1.306 0 0 0 1.461-.536 72.383 72.383 0 0 1 2.361-3.26 4.246 4.246 0 0 0 1.081-2.473c0-1.366.13-2.741.156-4.107 0-1.513.208-3.018.216-4.531a1.366 1.366 0 0 1 .173-.571c.45-.865.562-1.8.951-2.655a22.614 22.614 0 0 0 .8-2.81 11.371 11.371 0 0 0 .562-3.459 15.568 15.568 0 0 0-.3-3.407 2.179 2.179 0 0 1 1.5 1.634 13.688 13.688 0 0 1 .579 3.736c0 2.093.086 4.2-.994 6.122a.952.952 0 0 0-.052.674c.372 1.859.744 3.718 1.081 5.586a29.557 29.557 0 0 1 .6 4.324 2.058 2.058 0 0 1-.173 1c-.424.865-.865 1.781-1.263 2.655a27.981 27.981 0 0 1-5.923 7.782.77.77 0 0 1-.605.259 13.134 13.134 0 0 1-2.4-.225c-2.248-.493-4.488-.986-6.7-1.626a6.433 6.433 0 0 1-3.208-1.565 2.439 2.439 0 0 0-.8-.5 33.9 33.9 0 0 0-3.909-1.582.484.484 0 0 0-.588.112c.1.355.4.519.683.709a19.325 19.325 0 0 1 2.819 1.816 1.41 1.41 0 0 1 .519 1.029 44.817 44.817 0 0 0 .458 4.8 24.816 24.816 0 0 0 2.032 6.563 20.6 20.6 0 0 0 1.937 3.234 6.165 6.165 0 0 1-1.729-.441c-1.211-.6-2.421-1.185-3.632-1.79a1.384 1.384 0 0 1-.631-.432c.488-.179.211-.464.09-.698z" transform="translate(-69.235 -37.153)"/>
            <path id="Path_1351" data-name="Path 1351" class="cls-19" d="M266.489 122.961a22.067 22.067 0 0 1-1.989 2.274c-.761.778-1.522 1.548-2.274 2.335-2.1 2.188-3.995 4.557-6.278 6.589-2.145 1.911-4.375 3.692-6.52 5.595-1.323 1.185-2.784 2.205-4.038 3.459a2.257 2.257 0 0 1-2.335.718c-1.332-.346-2.7-.5-4.03-.865a24.212 24.212 0 0 1-4.4-1.9c-.977-.51-1.894-1.159-2.888-1.66a31.267 31.267 0 0 1-4.324-2.5c-1.029-.735-2.1-1.418-3.122-2.153-1.211-.865-2.335-1.859-3.545-2.724s-2.387-1.729-3.459-2.637a1.5 1.5 0 0 0-.726-.441l1.081-4.721a13.515 13.515 0 0 1 2.084 1.911 32.807 32.807 0 0 0 5.37 4.842 72.379 72.379 0 0 0 10.264 6.347 29.97 29.97 0 0 0 5.361 2.127 3.762 3.762 0 0 0 3.1-.3 53.812 53.812 0 0 0 6.157-4.125 69.057 69.057 0 0 0 6.053-5.508 34.869 34.869 0 0 0 3.321-3.736 56.7 56.7 0 0 0 5.958-10.377c.735-1.548 1.323-3.148 1.98-4.747.086.069.147.1.164.138.527 1.5 1.055 2.983 1.556 4.488a2.8 2.8 0 0 0 .986 1.479 6.44 6.44 0 0 1 .571.519 7.971 7.971 0 0 1-1.418 2.343c-.879 1.051-1.822 2.097-2.66 3.23z" transform="translate(-62.891 -31.252)"/>
            <path id="Path_1352" data-name="Path 1352" class="cls-13" d="M304.768 31.769a25.811 25.811 0 0 1 1.6 2.032 14.7 14.7 0 0 1 1.946 4.652c.1.389.147.787.233 1.237a22.414 22.414 0 0 1-2.547-.07 14.7 14.7 0 0 0-2.828 0 26.425 26.425 0 0 0-3.459.182c-2.049.415-4.125.674-6.174 1.1a55.333 55.333 0 0 1-3.8.605 49.662 49.662 0 0 0-5.136.951c-1.34.311-2.655.709-3.96 1.115a4.653 4.653 0 0 0-1.729.7l-.537-.273c-.7-.389-1.375-.778-.865-1.729a1.02 1.02 0 0 0 0-.432 9.778 9.778 0 0 1 .7-3.009 1.972 1.972 0 0 1 .908-1.012c1.193-.8 2.343-1.669 3.554-2.438a32.712 32.712 0 0 1 11.561-4.557 33.37 33.37 0 0 1 6.434-.527 9.65 9.65 0 0 1 3.8.614.977.977 0 0 0 .3.856z" transform="translate(-71.113 -20.366)"/>
            <path id="Path_1353" data-name="Path 1353" class="cls-18" d="M294.8 43.858c-1.885.285-3.692.865-5.551 1.237a59.9 59.9 0 0 0-6.658 1.4.493.493 0 0 1-.476-.1l-2.879-2.049a4.652 4.652 0 0 1 1.729-.7c1.306-.406 2.594-.8 3.96-1.115a49.662 49.662 0 0 1 5.136-.951 54.973 54.973 0 0 0 3.8-.605c2.049-.424 4.125-.683 6.174-1.1a26.427 26.427 0 0 1 3.465-.175 14.7 14.7 0 0 1 2.828 0 22.413 22.413 0 0 0 2.542.069c-.086-.45-.13-.865-.233-1.237a14.7 14.7 0 0 0-1.946-4.652 25.807 25.807 0 0 0-1.669-2.015.977.977 0 0 1-.3-.865 1.729 1.729 0 0 1 .865.294 13.838 13.838 0 0 1 2.3 1.5 23.52 23.52 0 0 1 5.629 6.849c.605 1.141 1.072 2.352 1.591 3.537a.735.735 0 0 1 .112.674 12.435 12.435 0 0 1-2.075-.545 27.524 27.524 0 0 0-5.05-.484 67.1 67.1 0 0 0-13.294 1.033z" transform="translate(-71.371 -20.462)"/>
            <path id="Path_1354" data-name="Path 1354" class="cls-20" d="M251.655 75.892a23.27 23.27 0 0 0-3.9 3.589A45.181 45.181 0 0 0 243.95 84c-.1.138-.2.294-.38.337a42.369 42.369 0 0 1-2.067-6.114 40.556 40.556 0 0 1-1.193-8.1 23.727 23.727 0 0 1 .6-5.595 129.774 129.774 0 0 1 11.241 10.783.865.865 0 0 1-.493.579z" transform="translate(-66.104 -24.998)"/>
            <path id="Path_1355" data-name="Path 1355" class="cls-19" d="M265.259 37.223a14.362 14.362 0 0 1-2.032-1.09c-1.591-.778-3.156-1.591-4.739-2.4.147-.32-.086-.536-.233-.778a16.43 16.43 0 0 0-7-6.053c-.994-.493-2-.951-3.009-1.409a15.419 15.419 0 0 1 2.594-3.208.951.951 0 0 1 1.107-.242 35.574 35.574 0 0 1 7.488 3.459 34.771 34.771 0 0 1 4.272 3.338 21.177 21.177 0 0 1 3.986 4.739 6.131 6.131 0 0 1-1.729 2.594 3.217 3.217 0 0 0-.705 1.05z" transform="translate(-67.178 -19.239)"/>
            <path id="Path_1356" data-name="Path 1356" class="cls-20" d="M209.565 60.794a15.237 15.237 0 0 1-.709 2.594 26.243 26.243 0 0 0-1.522 6.217 14.7 14.7 0 0 0 0 4.263 2.594 2.594 0 0 1-.069.761 1.306 1.306 0 0 1-.329-.086 51.969 51.969 0 0 1-4.894-3.052 57.073 57.073 0 0 1-5.577-4.618A23.588 23.588 0 0 1 194 64.166l.493-.182a109.284 109.284 0 0 1 14.181-3.243 2.162 2.162 0 0 1 .943 0z" transform="translate(-59.839 -24.478)"/>
            <path id="Path_1357" data-name="Path 1357" class="cls-20" d="M231.792 60.737a44.2 44.2 0 0 0-2.75 3.831 45.285 45.285 0 0 0-3.934 6.918c-.277.562-.45 1.176-.77 1.729a.631.631 0 0 1-.285.294 3.07 3.07 0 0 1-.666-.787 32.855 32.855 0 0 1-2.94-5.067 62.68 62.68 0 0 1-3.1-7.021c-.061-.147-.173-.3-.1-.484s.32-.1.493-.121c3.554-.285 7.125-.311 10.688-.337a14.216 14.216 0 0 1 3.779.156 1.539 1.539 0 0 1-.424.891z" transform="translate(-62.982 -24.335)"/>
            <path id="Path_1358" data-name="Path 1358" class="cls-20" d="m256.591 80.43 1.358 1.678a88.264 88.264 0 0 1 5.932 7.921 3.839 3.839 0 0 1-1.729 1.366 20.2 20.2 0 0 0-3.217 2.421c-.683.571-1.366 1.133-2.015 1.729a20.692 20.692 0 0 0-2.862 3.4.657.657 0 0 1-.381.329 30.411 30.411 0 0 1-.13-7.039 35.364 35.364 0 0 1 1.729-9.183 11.007 11.007 0 0 1 1.314-2.62z" transform="translate(-67.876 -27.149)"/>
            <path id="Path_1359" data-name="Path 1359" class="cls-21" d="M208.907 94.946a48.762 48.762 0 0 1-3.563-9.849 29.755 29.755 0 0 1-.675-5.11 3.41 3.41 0 0 1 .579-1.5l1.012.787a53.613 53.613 0 0 1 7.047 6.676c.259.3.38.545.121.865-.112.164-.173.363-.268.536a42.055 42.055 0 0 0-2.482 5.413 28 28 0 0 1-1.159 2.845c-.387-.05-.474-.378-.612-.663z" transform="translate(-61.283 -26.886)"/>
            <path id="Path_1360" data-name="Path 1360" class="cls-20" d="M249.409 125c.761.259 1.133.96 1.539 1.531.917 1.271 1.729 2.637 2.525 3.969.614.994.994 2.11 1.522 3.148.069.13.112.268.251.337a38.909 38.909 0 0 1-3.338 2.845 49.386 49.386 0 0 0-4.5 3.321c-.061.069-.147.078-.294 0a14.573 14.573 0 0 1-.2-2.413 36.53 36.53 0 0 1 .138-4.125 27.543 27.543 0 0 1 2.357-8.613z" transform="translate(-66.997 -33.178)"/>
            <path id="Path_1361" data-name="Path 1361" class="cls-20" d="M260.323 115.013c.173-.925.19-.925 1.072-.666.3.086.6.19.865.285.052.389.45.277.657.458a16.727 16.727 0 0 1 2.421 2.136 8.751 8.751 0 0 1 1.729 3.122c.052.208.061.458.311.571a4.176 4.176 0 0 1-.787 1.306 33.465 33.465 0 0 1-4.721 5.906c-.13.121-.208.355-.476.285a24.213 24.213 0 0 1-1.4-7.471 28.326 28.326 0 0 1 .329-5.932z" transform="translate(-68.763 -31.717)"/>
            <path id="Path_1362" data-name="Path 1362" class="cls-21" d="M217.829 102.245a23.512 23.512 0 0 1-.406-4.41 359.539 359.539 0 0 1-.182-5.188 5.96 5.96 0 0 1 0-1.617 2.214 2.214 0 0 1 .415.086 16.11 16.11 0 0 1 4.7 2.836A13.55 13.55 0 0 1 225.154 97c.32.545.311.6-.13.865a40.945 40.945 0 0 0-5.854 5.085 2.092 2.092 0 0 1-.623.579 1.8 1.8 0 0 1-.718-1.28z" transform="translate(-62.976 -28.583)"/>
            <path id="Path_1363" data-name="Path 1363" class="cls-21" d="M225.25 73.707a1.789 1.789 0 0 1-.13-.216.631.631 0 0 0 .285-.294c.32-.545.493-1.159.77-1.729a45.282 45.282 0 0 1 3.934-6.918 44.183 44.183 0 0 1 2.75-3.831 1.539 1.539 0 0 0 .424-.925 1.565 1.565 0 0 1 1.487.45l2.715 2.4c.13.112.329.233.259.406-.268.666-.251 1.435-1.055 1.876a35.346 35.346 0 0 0-3.251 2.11 38.914 38.914 0 0 0-7.29 6.667c-.388.488-.526.506-.898.004z" transform="translate(-64.049 -24.352)"/>
            <path id="Path_1364" data-name="Path 1364" class="cls-21" d="M254.111 100.455a20.69 20.69 0 0 1 2.862-3.4c.649-.605 1.332-1.167 2.015-1.729a20.2 20.2 0 0 1 3.217-2.421 3.839 3.839 0 0 0 1.729-1.366 44.6 44.6 0 0 1 3 5.11c-2.291.865-4.531 1.556-6.71 2.43a58.86 58.86 0 0 0-6.312 3.156 4.989 4.989 0 0 1-.173-1.453.657.657 0 0 0 .372-.327z" transform="translate(-67.921 -28.652)"/>
            <path id="Path_1365" data-name="Path 1365" class="cls-21" d="M210.24 74.923a2.136 2.136 0 0 1-.934-.389 2.594 2.594 0 0 0 .069-.761 14.7 14.7 0 0 1 0-4.263 26.244 26.244 0 0 1 1.531-6.148 15.237 15.237 0 0 0 .709-2.594l.225-.121a22.139 22.139 0 0 1 2.378-.329c.38-.061.5.086.588.415a12.107 12.107 0 0 0 .5 1.556 1.115 1.115 0 0 1-.138 1.211 21.445 21.445 0 0 0-1.98 3.32 35.159 35.159 0 0 0-2.949 8.1z" transform="translate(-61.898 -24.426)"/>
            <path id="Path_1366" data-name="Path 1366" class="cls-21" d="M212 60.79z" transform="translate(-62.274 -24.492)"/>
            <path id="Path_1367" data-name="Path 1367" class="cls-21" d="M196.431 75.106a18.713 18.713 0 0 1-1.384-3.459c-.208-.951-.441-1.894-.674-2.836a1.141 1.141 0 0 1 .147-1.211c.683.77 1.4 1.513 2.145 2.231 1.306 1.254 2.689 2.413 4.1 3.554a.977.977 0 0 1 .406 1.029 20.978 20.978 0 0 0 0 7.238 3.649 3.649 0 0 1-1.626-.925 8.362 8.362 0 0 0-1.185-2.49 21.885 21.885 0 0 1-1.928-3.13z" transform="translate(-59.875 -25.413)"/>
            <path id="Path_1368" data-name="Path 1368" class="cls-22" d="M202.086 84.544c1.211.363 1.314.285 1.366-.96a3.617 3.617 0 0 0 0-.432 39.587 39.587 0 0 1-.052-4.324 5.464 5.464 0 0 1 .112-1.479 5.188 5.188 0 0 1 1.245.96c-.233.484-.623.908-.579 1.5a29.76 29.76 0 0 0 .674 5.11 48.762 48.762 0 0 0 3.563 9.849c.138.285.225.614.614.657l-.164.657h-.424c-.208-.19-.441-.363-.631-.571-1.531-1.608-2.836-3.4-4.194-5.136a8.38 8.38 0 0 1-.536-.865 23.86 23.86 0 0 1-1.928-4.678c-.052-.164-.233-.346 0-.562z" transform="translate(-60.791 -26.732)"/>
            <path id="Path_1369" data-name="Path 1369" class="cls-20" d="M236.713 129.624a29.314 29.314 0 0 0 .969 3.295 23.06 23.06 0 0 0 1.928 4.2c.562.994 1.167 1.963 1.652 3-.268-.1-.536-.208-.8-.329a73.686 73.686 0 0 1-7.687-4.228c-.7-.432-.588-.346-.259-.977a39.546 39.546 0 0 1 3.77-5.638c.393.046.376.418.427.677z" transform="translate(-65.016 -33.713)"/>
            <path id="Path_1370" data-name="Path 1370" class="cls-20" d="M224.887 105.477a9.183 9.183 0 0 1-.752 2.715 5.586 5.586 0 0 1-3.234 2.767 4.22 4.22 0 0 1-2.94-.233l-.4-.147a6.053 6.053 0 0 1-.813-1.972c-.329-1.1-.329-1.141.778-1.366a42.2 42.2 0 0 0 7.238-2.231.45.45 0 0 1 .123.467z" transform="translate(-62.891 -30.474)"/>
            <path id="Path_1371" data-name="Path 1371" class="cls-21" d="M253.03 81.393a1.366 1.366 0 0 1-.726.683 52.662 52.662 0 0 0-5.344 2.949 16.835 16.835 0 0 0-2.5 1.833 1.885 1.885 0 0 1-.38-.865c.182 0 .277-.2.38-.337a45.179 45.179 0 0 1 3.8-4.522 23.271 23.271 0 0 1 3.9-3.589.865.865 0 0 0 .493-.545 12.684 12.684 0 0 1 1.608 1.66c.164.19.251.363.052.6a9.355 9.355 0 0 0-1.288 2.136z" transform="translate(-66.614 -26.685)"/>
            <path id="Path_1372" data-name="Path 1372" class="cls-22" d="M194.235 67.28a1.141 1.141 0 0 0-.147 1.211c.233.943.467 1.885.674 2.836a18.714 18.714 0 0 0 1.384 3.459 21.885 21.885 0 0 0 1.928 3.165 8.362 8.362 0 0 1 1.176 2.456 6.849 6.849 0 0 1-1.729-1.435 19.568 19.568 0 0 1-4.791-6.468c-1-2.369-.519-4.583.208-7.013z" transform="translate(-59.591 -25.128)"/>
            <path id="Path_1373" data-name="Path 1373" class="cls-23" d="M241.892 140c-.484-1.038-1.09-2.006-1.652-3a23.063 23.063 0 0 1-1.928-4.2 29.315 29.315 0 0 1-.968-3.295c-.052-.259 0-.605-.424-.674a1.47 1.47 0 0 1 .709-.787c.3.657.571 1.288.865 1.911a34.467 34.467 0 0 0 5.188 7.731 1.678 1.678 0 0 1 .519.778c.121.813.216 1.626.337 2.534a15.511 15.511 0 0 1-2.058-.674 5.391 5.391 0 0 1-.588-.324z" transform="translate(-65.646 -33.59)"/>
            <path id="Path_1374" data-name="Path 1374" class="cls-23" d="M223.678 112.362c-.38.925-.8 1.833-1.228 2.75-.1.225-.208.588-.51.45a5.638 5.638 0 0 1-2.43-1.729 14.033 14.033 0 0 1-1.79-3.329l.4.147a4.22 4.22 0 0 0 2.94.233 5.586 5.586 0 0 0 3.234-2.767 9.186 9.186 0 0 0 .752-2.715.45.45 0 0 0-.121-.467 2.715 2.715 0 0 1 .934-.424 32.857 32.857 0 0 1-2.181 7.851z" transform="translate(-63.048 -30.406)"/>
            <path id="Path_1375" data-name="Path 1375" class="cls-22" d="M215.085 90.05a13.914 13.914 0 0 1 1.781.865 5.959 5.959 0 0 0 0 1.617c.043 1.729.112 3.459.182 5.188a23.512 23.512 0 0 0 .406 4.41 1.8 1.8 0 0 0 .726 1.306 1.081 1.081 0 0 1-.493.51 22.8 22.8 0 0 1-2.819-6.918 26.808 26.808 0 0 1-.51-5.88 3.062 3.062 0 0 1 .156-.865.361.361 0 0 1 .571-.233z" transform="translate(-62.593 -28.441)"/>
            <path id="Path_1376" data-name="Path 1376" class="cls-22" d="M220.82 117.334a7.4 7.4 0 0 1-.208 2.17 3.5 3.5 0 0 1-1.444 1.617 1.617 1.617 0 0 1-1.548 0 2.828 2.828 0 0 0-.631-.251 13.247 13.247 0 0 1-1.859-6.581l2.136 1.159z" transform="translate(-62.698 -31.73)"/>
            <path id="Path_1377" data-name="Path 1377" class="cls-23" d="M255.386 133.52a30.07 30.07 0 0 0-1.522-3.148c-.865-1.332-1.608-2.7-2.525-3.969-.406-.571-.778-1.271-1.539-1.531a1.557 1.557 0 0 1 .294-.813 60.64 60.64 0 0 0 8.855 7.039c-1.116.934-2.153 1.911-3.312 2.758-.137-.033-.182-.172-.251-.336z" transform="translate(-67.388 -33.051)"/>
            <path id="Path_1378" data-name="Path 1378" class="cls-18" d="M258.1 33.506c.147.242.38.458.234.778-1.531-.562-3.1-1.055-4.038-2.551a2.789 2.789 0 0 0-.4-.45 9.114 9.114 0 0 0-4.877-3.052c-.64-.138-1.271-.329-1.937-.5a4.591 4.591 0 0 1 1.01-1.731c1.012.458 2.015.917 3.009 1.409a16.429 16.429 0 0 1 7 6.1z" transform="translate(-67.02 -19.785)"/>
            <path id="Path_1379" data-name="Path 1379" class="cls-23" d="M229.78 133.351a25.074 25.074 0 0 1-3.018-2.1c.285-.1.19-.294.156-.493-.285-1.479-.6-2.957-.752-4.462-.086-.865.13-1.729.1-2.594 0-.2.069-.4-.13-.545a2.81 2.81 0 0 1 .977-.666 1.375 1.375 0 0 1 .1.268 22.258 22.258 0 0 0 3.113 9.512c.078.121.138.251.208.372a.744.744 0 0 1-.173.865c-.191.249-.408-.053-.581-.157z" transform="translate(-64.187 -32.839)"/>
            <path id="Path_1380" data-name="Path 1380" class="cls-23" d="M219.459 121.6a3.5 3.5 0 0 0 1.444-1.617 7.4 7.4 0 0 0 .208-2.17 1.6 1.6 0 0 1 .329.1c.674.173.821.631.8 1.28 0 1.09.052 2.188.1 3.277a1.15 1.15 0 0 1-.242.865c-.649.787-1.262 1.608-1.92 2.464a17.155 17.155 0 0 1-2.905-4.462 2.829 2.829 0 0 1 .631.251 1.617 1.617 0 0 0 1.548.009z" transform="translate(-62.989 -32.206)"/>
            <path id="Path_1381" data-name="Path 1381" class="cls-22" d="M225.693 123.845c0 .865-.19 1.729-.1 2.594.156 1.5.467 2.983.752 4.462 0 .2.13.4-.156.493-1.375-.934-2.594-2.1-3.926-3.07a1.507 1.507 0 0 0-.121-.121.467.467 0 0 1-.086-.787c.389-.493.726-1.029 1.115-1.522a11.821 11.821 0 0 1 2.4-2.594c.191.147.113.346.122.545z" transform="translate(-63.61 -32.948)"/>
            <path id="Path_1382" data-name="Path 1382" class="cls-23" d="M267.448 120.416a8.751 8.751 0 0 0-1.729-3.122 16.725 16.725 0 0 0-2.421-2.136c-.208-.182-.605-.069-.657-.458l5.188 1.176 2.023.441c.311.061.484.182.3.519a25.181 25.181 0 0 1-2.43 4.151c-.214-.113-.222-.364-.274-.571z" transform="translate(-69.125 -31.785)"/>
            <path id="Path_1383" data-name="Path 1383" class="cls-18" d="M259.516 207.608a12.106 12.106 0 0 1 .173-4.142 3.027 3.027 0 0 1 .64-1.366l1.159 1.375a1.323 1.323 0 0 1 .337 1.029 26.322 26.322 0 0 0 .1 5.655c0 .138.121.329-.121.441a18.01 18.01 0 0 1-2.447-2.49c.271-.104.176-.31.159-.502z" transform="translate(-68.682 -43.609)"/>
            <path id="Path_1384" data-name="Path 1384" class="cls-18" d="m275.664 199.5-1.124-.943a10.366 10.366 0 0 1-1.141-1.167 3.666 3.666 0 0 1-.744-3.165 22.136 22.136 0 0 0 3.372.994c.372.078.458.259.329.605a12.555 12.555 0 0 0-.692 3.676z" transform="translate(-70.467 -42.544)"/>
            <path id="Path_1385" data-name="Path 1385" class="cls-18" d="M267.92 39.042a3.216 3.216 0 0 1 .726-1.042 6.131 6.131 0 0 0 1.729-2.594 3.079 3.079 0 0 1 .865 1.729 12.239 12.239 0 0 1-.54 3.465c-.929-.59-1.924-.936-2.78-1.558z" transform="translate(-69.84 -21.058)"/>
            <path id="Path_1386" data-name="Path 1386" class="cls-18" d="M275.187 43.576a13.643 13.643 0 0 1-2.248-1.306c-.216-.13-.467-.251-.372-.588s.156-.718.64-.8c.865-.156 1.729-.363 2.784-.588a21.091 21.091 0 0 0-.804 3.282z" transform="translate(-70.465 -21.719)"/>
            <path id="Path_1387" data-name="Path 1387" class="cls-22" d="M290.112 48.778c1-.208 1.193-.052 1.176.968s-.683 1.435-1.729 1.271a1.634 1.634 0 0 1-1.34-1.384c-.043-.311 0-.493.372-.545a30.072 30.072 0 0 0 1.521-.31z" transform="translate(-72.584 -22.856)"/>
            <path id="Path_1388" data-name="Path 1388" class="cls-18" d="M284.47 50.014a3.174 3.174 0 0 1 1.444-.216 8.6 8.6 0 0 1-.061 1.211 8.311 8.311 0 0 1-1.383-.995z" transform="translate(-72.078 -23.003)"/>
            <path id="Path_1389" data-name="Path 1389" class="cls-18" d="m275.18 202.8.32.147c.7.337.813.605.761 1.435l-.311-.355a4.523 4.523 0 0 1-.77-1.227z" transform="translate(-70.822 -43.704)"/>
            <path id="Path_1390" data-name="Path 1390" class="cls-18" d="M275.18 202.8a4.523 4.523 0 0 0 .77 1.228 4.523 4.523 0 0 1-.77-1.228z" transform="translate(-70.822 -43.704)"/>
            <path id="Path_1391" data-name="Path 1391" class="cls-18" d="M275.18 202.8z" transform="translate(-70.822 -43.704)"/>
            <path id="Path_1392" data-name="Path 1392" class="cls-18" d="M276.43 204.63z" transform="translate(-70.991 -43.951)"/>
            <path id="Path_1393" data-name="Path 1393" class="cls-18" d="M276.43 204.66z" transform="translate(-70.991 -43.955)"/>
            <path id="Path_1394" data-name="Path 1394" class="cls-23" d="M209.6 99h.424c-.139.329-.139.329-.424 0z" transform="translate(-61.95 -29.661)"/>
            <path id="Path_1395" data-name="Path 1395" class="cls-18" d="M275.11 202.69v.061z" transform="translate(-70.812 -43.689)"/>
            <path id="Path_1396" data-name="Path 1396" class="cls-18" d="M275.15 202.79z" transform="translate(-70.818 -43.702)"/>
            <path id="Path_1397" data-name="Path 1397" class="cls-18" d="M275.11 202.73z" transform="translate(-70.812 -43.694)"/>
            <path id="Path_1398" data-name="Path 1398" class="cls-18" d="M276.49 204.71z" transform="translate(-70.999 -43.962)"/>
            <path id="Path_1399" data-name="Path 1399" class="cls-18" d="M276.46 204.68z" transform="translate(-70.995 -43.958)"/>
            <path id="Path_1400" data-name="Path 1400" class="cls-18" d="M276.44 204.65z" transform="translate(-70.992 -43.954)"/>
            <path id="Path_1401" data-name="Path 1401" class="cls-18" d="M276.43 204.66z" transform="translate(-70.991 -43.955)"/>
            <path id="Path_1402" data-name="Path 1402" class="cls-18" d="m276.43 204.659.009-.009-.009.009z" transform="translate(-70.991 -43.954)"/>
            <path id="Path_1403" data-name="Path 1403" class="cls-20" d="M212 60.78a.15.15 0 0 1 .216-.112l-.225.121z" transform="translate(-62.273 -24.474)"/>
            <path id="Path_1404" data-name="Path 1404" class="cls-20" d="M212 60.81z" transform="translate(-62.274 -24.495)"/>
            <path id="Path_1405" data-name="Path 1405" class="cls-11" d="M242.647 40.489a49.9 49.9 0 0 0-4.41 9.624c-.251.674-.45 1.366-.692 2.041-.069.2-.078.536-.4.45s-.173-.38-.173-.6a6.336 6.336 0 0 1 .156-1.453 39.726 39.726 0 0 1 2.119-5.742 52.562 52.562 0 0 1 3.511-6.356 17.768 17.768 0 0 1 1.963-3.026c.182-.2.363-.6.674-.38s0 .527-.112.761c-.872 1.586-1.693 3.168-2.636 4.681z" transform="translate(-65.649 -21.001)"/>
            <path id="Path_1406" data-name="Path 1406" class="cls-24" d="m46.987 132.35 3.277-5.223 6.157-.259-3.96-4.73 1.66-5.941L48.4 118.5l-5.14-3.41.424 6.148-4.834 3.839 5.984 1.5z" transform="translate(-38.85 -31.838)"/>
            <path id="Path_1407" data-name="Path 1407" class="cls-24" d="m347.478 89.4 3.277-5.223 6.157-.259-3.952-4.73 1.652-5.941-5.716 2.3-5.145-3.407.424 6.157-4.825 3.831 5.975 1.5z" transform="translate(-79.503 -26.027)"/>
            <path id="Path_1408" data-name="Path 1408" d="m93.92 34.6 3.45.968 1.159 3.4 2-2.983 3.58-.052-2.222-2.819 1.064-3.424-3.364 1.245-2.94-2.067.147 3.58z" transform="translate(-46.3 -20.174)" style="fill:url(#linear-gradient-3)"/>
            <path id="Path_1409" data-name="Path 1409" d="M118.483 215.05a3.225 3.225 0 1 0-1.332-4.367 3.225 3.225 0 0 0 1.332 4.367z" transform="translate(-49.392 -44.539)" style="fill:url(#linear-gradient-4)"/>
            <path id="Path_1410" data-name="Path 1410" d="M99.509 81.178a2.2 2.2 0 1 0 3.087.242 2.2 2.2 0 0 0-3.087-.242z" transform="translate(-46.951 -27.179)" style="fill:url(#linear-gradient-5)"/>
            <path id="Path_1411" data-name="Path 1411" d="M342.88 192.807a2.179 2.179 0 1 0 1.594-.523 2.188 2.188 0 0 0-1.594.523z" transform="translate(-79.877 -42.28)" style="fill:url(#linear-gradient-6)"/>
            <path id="Path_1412" data-name="Path 1412" class="cls-29" d="m178.82 178.122 20.649-5.8 1.185 4.211-13.922 3.917 3.027 10.766 5.188 2.17 1.4 4.963-10.307-4.2-3.519-12.512-2.516.709z" transform="translate(-57.786 -39.58)"/>
            <path id="Path_1413" data-name="Path 1413" class="cls-29" d="m206.383 182.256-1.193-4.246-6.719 1.885-4.211 1.185-3.39.96 1.193 4.246 3.39-.951.259.908 1.193 4.254 2.317 8.267 3.286-4.479-1.392-4.972 4.211-1.185-1.193-4.246-4.211 1.176-.259-.908z" transform="translate(-59.416 -40.35)"/>
        </g>
    </g>
</svg>
