<svg id="Group_1" data-name="Group 1" xmlns="http://www.w3.org/2000/svg" width="226.839" height="75.099" viewBox="0 0 226.839 75.099">
    <defs>
        <style>
            .cls-2{fill:#a61e22}
        </style>
    </defs>
    <path id="Path_429" data-name="Path 429" d="M217.038 50.837h7.423v-12.05h-7.423v-2.8h8V24.23h-21.882v4.242l-.964-1.542c-2.314-3.471-7.134-3.953-11.183-3.953h-3.278c-5.688 0-9.351 2.314-10.7 6.845l-.482 1.639-.482-1.639c-1.446-4.531-5.591-6.459-13.882-6.459h-7.616a5.719 5.719 0 0 0-4.724 2.507l-.964 1.446v-3.183h-27.186v5.4l-.964-1.735c-2.8-4.917-9.351-4.917-12.533-4.917-3.471 0-11.472 0-13.4 6.941l-.578 2.121-.482-2.121c-1.06-4.627-5.013-6.941-12.34-6.941l-9.062.289h-.964v-6.653h-7.038V.9H.9v17.835h7.038v33.259L36.28 74.071l16.486-12.918v-12.34H67.8v5.881c0 9.351 3.374 12.34 13.786 12.34 5.206 0 10.315-.771 12.34-6.459l.482-1.446.482 1.542c2.121 6.459 9.64 6.459 13.3 6.459s11.279 0 13.3-6.555l.482-1.639.482 1.542c1.928 5.784 7.327 6.652 12.822 6.652 5.3 0 10.412-.675 12.533-5.881l1.06-2.507v7.327h27.861v-5.688l.964 1.928c1.735 3.278 5.206 4.917 10.026 4.917h3.278c5.881 0 9.448-1.446 11.086-4.627l.964-1.832v6.555h22.462V54.79h-8.676v-3.953z" transform="translate(-.032 -.032)" style="fill:#fff"/>
    <path id="Path_430" data-name="Path 430" d="M218.067 51.866h7.423V37.694h-7.423v-.675h8V23.137h-24v1.928c-2.8-2.8-7.327-3.181-11.086-3.181H187.7c-5.688 0-9.448 2.121-11.183 6.266-1.928-4.049-6.363-5.881-14.364-5.881h-7.616a6.824 6.824 0 0 0-4.627 1.832v-.964H120.6v2.8c-3.471-3.953-9.64-3.953-12.533-3.953-3.085 0-11.086 0-13.882 6.17-1.637-3.954-5.685-6.077-12.241-6.174l-9.64.1v-6.463h-7.038V0H0v19.57h7.038v32.778L36.248 75.1l17.16-13.5.193-.1V49.648h13.014v5.013c0 9.93 3.856 13.4 14.846 13.4 5.013 0 10.315-.771 12.822-5.977 2.892 5.977 10.412 5.977 13.786 5.977s10.99 0 13.882-6.073c2.507 5.3 8.1 6.073 13.3 6.073 4.724 0 9.737-.578 12.533-4.627V66.9h29.986v-2.888c2.121 2.6 5.5 3.953 10.026 3.953h3.278c5.3 0 8.966-1.157 11.087-3.76v3.76h24.68V53.7h-8.676v-1.834zm7.616 2.892V67H203.22v-6.555l-.964 1.832c-1.735 3.181-5.3 4.627-11.086 4.627h-3.278c-4.82 0-8.291-1.735-10.026-4.917l-.966-1.927v5.688h-27.859v-7.327l-1.06 2.507c-2.121 5.206-7.327 5.881-12.533 5.881-5.5 0-10.894-.771-12.822-6.652l-.482-1.542-.482 1.639c-2.024 6.555-9.64 6.555-13.3 6.555s-11.183 0-13.3-6.459l-.482-1.542-.482 1.446c-2.024 5.688-7.134 6.459-12.34 6.459-10.412 0-13.786-2.989-13.786-12.34v-5.882H52.733v12.244L36.152 73.942 7.905 51.962V18.7H.868V.868H64.4v15.617h7.038v6.652h.862l9.062-.1c7.23 0 11.279 2.314 12.34 6.941l.482 2.121.578-2.121c1.928-6.941 10.026-6.941 13.4-6.941 3.181 0 9.833 0 12.533 4.917l.964 1.735v-5.4h27.186v3.181l.964-1.446a5.719 5.719 0 0 1 4.724-2.507h7.616c8.291 0 12.436 1.928 13.882 6.459l.482 1.639.487-1.633c1.35-4.531 4.917-6.845 10.7-6.845h3.278c3.953 0 8.869.482 11.183 3.953l.964 1.542V24.39h21.884v11.762h-8v2.8h7.423V51h-7.423v3.95h8.676z"/>
    <path id="Path_431" data-name="Path 431" d="M4.1 4.1h57.361v11.665H22.8v29.982L34.564 55.1v13.784L11.041 50.567v-34.8H4.1z" transform="translate(-.147 -.147)"/>
    <path id="Path_432" data-name="Path 432" d="M69.415 32.158V20.3H29.6v11.858h9.351v37.308l11.761-9.158V46.522h11.665V34.664H50.713v-2.506z" transform="translate(-1.064 -.73)"/>
    <path id="Path_433" data-name="Path 433" class="cls-2" d="M94.884 51.962c-.289-7.038-2.024-7.809-10.219-9.93-2.6-.675-3.181-1.06-3.181-3.471v-2.506c0-1.832.193-2.7 2.41-2.7s2.41.289 2.41 3.663v1.832h7.712v-4.627c0-5.3-2.507-7.423-10.026-7.423-8.29 0-10.99.868-10.99 9.833v2.314c0 6.845 1.35 8.484 8 10.122 4.531 1.06 5.109 1.253 5.109 3.856v3.953c0 1.639-.675 2.314-2.6 2.314-1.639 0-2.217-.386-2.41-1.446a15.687 15.687 0 0 1-.1-2.314v-2.7H73v3.181a17.269 17.269 0 0 0 .482 4.82 6.456 6.456 0 0 0 1.35 2.7c1.542 1.639 4.338 2.217 9.255 2.217 5.688 0 8.966-.964 10.122-5.591a19.4 19.4 0 0 0 .578-5.206 9.9 9.9 0 0 0 .097-2.891z" transform="translate(-2.625 -.964)"/>
    <path id="Path_434" data-name="Path 434" class="cls-2" d="M111.883 26.7c-7.23 0-11.183 1.639-11.183 7.905v23.234a5.5 5.5 0 0 0 .1 1.253c.482 5.206 4.435 6.652 11.183 6.652 7.23 0 11.183-1.639 11.183-7.905V34.605c-.004-6.266-3.956-7.905-11.283-7.905zm2.317 30.657c0 1.446-.578 1.832-2.217 1.832s-2.217-.386-2.217-1.832V34.991c0-1.446.578-1.832 2.217-1.832s2.217.386 2.217 1.832v22.366z" transform="translate(-3.621 -.96)"/>
    <path id="Path_435" data-name="Path 435" class="cls-2" d="M142.6 27.9v28.536c0 1.446-.578 2.41-2.314 2.41s-2.314-.964-2.314-2.41V27.9H129.3v28.246c0 8.484 4.049 9.544 10.99 9.544s10.99-1.06 10.99-9.544V27.9z" transform="translate(-4.649 -1.003)"/>
    <path id="Path_436" data-name="Path 436" class="cls-2" d="M179.959 40.786v-4.628a27.755 27.755 0 0 0-.193-3.085C178.995 28.446 175.91 27 168.1 27h-7.52a3.21 3.21 0 0 0-3.181 3.181V64.6h8.676V52.065h1.446c2.892 0 3.856.675 3.856 2.314V64.6h8.676v-9.64c0-4.724-2.025-5.4-5.881-6.266v-.1c3.569-.674 5.787-1.928 5.787-7.808zm-8.676 1.446c0 2.507-.482 3.278-3.567 3.278h-1.639V33.555h2.6c1.832 0 2.7.868 2.7 2.892v5.784z" transform="translate(-5.66 -.971)"/>
    <path id="Path_437" data-name="Path 437" class="cls-2" d="M197.751 26.7h-3.278a12.168 12.168 0 0 0-4.435.771 7.361 7.361 0 0 0-2.217 1.446c-1.542 1.542-2.121 3.953-2.121 7.134v21.595c0 4.917 2.314 8.194 8.676 8.194h3.278c7.327 0 9.833-2.121 9.833-8.869v-5.688H199.1v5.977c0 1.157-.771 1.639-2.217 1.639s-2.217-.482-2.217-1.639V35.184c0-1.157.771-1.639 2.314-1.639 1.446 0 2.217.482 2.217 1.639V40.2h8.387v-6.945c.096-4.434-2.218-6.555-9.833-6.555z" transform="translate(-6.677 -.96)"/>
    <path id="Path_438" data-name="Path 438" class="cls-2" d="M221.98 58.653v-9.158h7.42v-6.942h-7.42v-7.905h8V27.9H213.4v37.887h17.256v-7.134z" transform="translate(-7.673 -1.003)"/>
    <path id="Path_439" data-name="Path 439" d="M72.336 23.169h-.964v-6.652h-7.038V.9H.9v17.835h7.038v33.259L36.28 74.071l16.486-12.918v-12.34H67.9" transform="translate(-.032 -.032)" style="fill:none"/>
</svg>
