<svg id="Layer_1" data-name="Layer 1" xmlns="http://www.w3.org/2000/svg" viewBox="0 0 40.22 42.78"><defs><style>.cls-1{fill:#fff;}</style></defs><path class="cls-1" d="M24.83,31.32v8.22a2.92,2.92,0,0,1-2.6,3.2,2.53,2.53,0,0,1-.55,0H3.21A2.93,2.93,0,0,1,0,40.11a2.57,2.57,0,0,1,0-.62V3.23A3,3,0,0,1,2.61,0a3,3,0,0,1,.67,0H21.6a3,3,0,0,1,3.24,2.61,3,3,0,0,1,0,.67V12.8H40.2c-.13.38-.2.64-.3.92-2.14,5.7-4.28,11.37-6.39,17.07a.69.69,0,0,1-.81.56h0c-2.31,0-4.63,0-6.94,0A8.45,8.45,0,0,0,24.83,31.32ZM2,37.35H22.8V31.27h-15c1.09-2.93,2.14-5.75,3.23-8.7H8.35V21.25h1.78c1.5,0,1.5,0,1.85-1.6H7.35V17.94h4.79c.23,0,.58-.1.66-.28a13.24,13.24,0,0,0,.63-1.73H4.27V13.74h.87c2.85,0,5.7,0,8.55,0,.25,0,.66-.2.71-.4.15-.49.46-.54.86-.54h6.8l.74,0V4.63H2ZM23.15,24.22c-.79-.86-1.55-1.7-2.34-2.54-3.31,2.77-6.54,5.47-9.87,8.24H31.12c-1.28-2.8-2.5-5.5-3.74-8.24Zm-6.89-10a1.59,1.59,0,0,0,.25.33c2.29,2.55,4.61,5.06,6.9,7.63.33.36.53.31.89.1,2.34-1.42,4.7-2.85,7-4.25,2-1.22,4.08-2.46,6.29-3.81ZM9.87,29.13l.13.13q5-4.16,10.1-8.4c-1.68-1.86-3.33-3.66-5-5.57C13.28,20,11.58,24.58,9.87,29.13Zm18.88-8.24c1.3,2.85,2.57,5.62,3.89,8.57,1.81-4.78,3.51-9.36,5.3-14.12C34.78,17.23,31.8,19,28.75,20.89ZM13.87,39.82a1.44,1.44,0,1,0-1.33,1.41A1.44,1.44,0,0,0,13.87,39.82ZM12.42,2.11c-.94,0-1.89,0-2.83,0-.18,0-.33.2-.51.3.16.1.33.33.49.33,1.88,0,3.76,0,5.62,0,.18,0,.36-.23.53-.35-.17-.1-.35-.28-.53-.28C14.27,2.11,13.33,2.11,12.42,2.11Z" transform="translate(0.02 0.02)"/></svg>