<svg id="TFS_Vertical" data-name="TFS Vertical" xmlns="http://www.w3.org/2000/svg" width="42.159" height="45.195" viewBox="0 0 42.159 45.195">
    <defs>
        <style>
            .cls-2{fill:#231f20}.cls-3{fill:#a30b35}.cls-6{fill:#770d29}
        </style>
    </defs>
    <g id="Group_1211" data-name="Group 1211" transform="translate(.264 .29)">
        <path id="Path_384" data-name="Path 384" d="M40.334 41.49h1.954v-3.168h-1.954v-.739h2.112v-3.115h-5.755v1.109l-.264-.4c-.607-.924-1.874-1.03-2.93-1.03h-.845a2.56 2.56 0 0 0-2.8 1.8l-.132.449-.132-.422c-.37-1.188-1.478-1.69-3.643-1.69h-1.529l.238-.238a.7.7 0 0 0 .158-.132l5.517-4.329v-5.756h5.517v-6.784h3.3V8.492h-3.3V1.1H5.752v8.527h3.3v15.654l11.4 8.87c.026.026.053.079.106.079a.364.364 0 0 0 .106.079h.026a1.052 1.052 0 0 0 .106.079c.026.026.053.053.079.053h-5.646v1.426l-.264-.475c-.739-1.294-2.481-1.294-3.3-1.294-.9 0-3.036 0-3.537 1.848l-.158.554-.132-.554c-.264-1.241-1.32-1.822-3.247-1.822-2.165 0-3.564.238-3.59 3.194H1v1.5a3.15 3.15 0 0 0 .238 1.241 1.515 1.515 0 0 0 .871.634 5.988 5.988 0 0 0 .581.185l.9.264H1.026v1.294c0 2.455.871 3.247 3.617 3.247 1.373 0 2.719-.211 3.247-1.716l.132-.4.132.4c.554 1.716 2.534 1.716 3.485 1.716s2.957 0 3.511-1.742l.132-.422.132.422c.5 1.531 1.927 1.742 3.379 1.742 1.4 0 2.745-.185 3.3-1.558l.264-.66V45.4H29.7v-1.5l.264.5a2.766 2.766 0 0 0 2.64 1.294h.845c1.558 0 2.481-.4 2.93-1.214l.264-.5v1.716h5.913V42.52h-2.222z" transform="translate(-1 -1.1)" style="fill:#fff"/>
    </g>
    <g id="Group_1212" data-name="Group 1212" transform="translate(6.468 1.795)">
        <path id="Path_385" data-name="Path 385" class="cls-2" d="M24.5 6.8h27.112v5.517H33.344v14.124l5.57 4.409v6.52L27.8 28.737v-16.42h-3.3z" transform="translate(-24.5 -6.8)"/>
        <path id="Path_386" data-name="Path 386" class="cls-2" d="M87.3 40.3v-5.6H68.5v5.6h4.435v17.6l5.517-4.329v-6.516H84v-5.57h-5.548V40.3z" transform="translate(-56.885 -27.335)"/>
    </g>
    <path id="Path_387" data-name="Path 387" class="cls-3" d="M39.889 41.42v-.475h1.954v-3.723h-1.954v-.158H42v-3.67h-6.335v.528a4.074 4.074 0 0 0-2.9-.845h-.845a2.893 2.893 0 0 0-2.957 1.663c-.528-1.082-1.69-1.531-3.775-1.531h-.766l5.438-4.25V23.31h5.517v-6.784h3.3V7.365h-3.3V0H4.7v9.108H8V24.6l11.272 8.764h-5.043v.739c-.9-1.056-2.561-1.056-3.3-1.056-.818 0-2.9 0-3.669 1.637-.449-1.082-1.584-1.637-3.405-1.637C1.663 33.051 0 33.315 0 36.589V38.042a3.312 3.312 0 0 0 .264 1.346 1.546 1.546 0 0 0 .845.686H0v1.558c0 2.613 1.03 3.537 3.907 3.537 1.32 0 2.719-.185 3.379-1.584.766 1.584 2.745 1.584 3.643 1.584s2.9 0 3.643-1.584c.66 1.4 2.138 1.584 3.511 1.584 1.241 0 2.561-.158 3.3-1.214v.924h7.893v-.739a3.23 3.23 0 0 0 2.64 1.056h.845a3.6 3.6 0 0 0 2.9-.977v.977h6.494V41.42h-2.27zm2.006 3.511h-5.913v-1.716l-.264.5c-.449.845-1.373 1.214-2.93 1.214h-.845a2.766 2.766 0 0 1-2.64-1.294l-.264-.5v1.5h-7.392v-1.922l-.264.66c-.554 1.373-1.927 1.558-3.3 1.558-1.452 0-2.877-.211-3.379-1.742l-.132-.422-.132.422c-.554 1.742-2.534 1.742-3.511 1.742-.95 0-2.93 0-3.485-1.716l-.132-.4-.132.4c-.528 1.5-1.874 1.716-3.247 1.716-2.745 0-3.617-.792-3.617-3.247V40.39H2.9l-.9-.264s-.343-.106-.581-.185a1.639 1.639 0 0 1-.871-.634 3.15 3.15 0 0 1-.238-1.241 9.729 9.729 0 0 1 0-1.241v-.264c0-2.983 1.426-3.194 3.59-3.194 1.927 0 2.983.607 3.247 1.822l.132.554.158-.554c.5-1.848 2.64-1.848 3.537-1.848.845 0 2.587 0 3.3 1.294l.264.475v-1.425h5.544c-.026-.026-.053-.026-.079-.053a.492.492 0 0 0-.106-.079h-.026c-.026-.026-.079-.053-.106-.079a.365.365 0 0 1-.106-.079l-11.37-8.923V8.817h-3.3V.29h30.095v7.366h3.3v8.58h-3.3v6.784h-5.517v5.755l-5.544 4.3c-.053.053-.106.079-.158.132l-.238.238h1.531c2.191 0 3.273.5 3.643 1.69l.132.422.132-.449a2.578 2.578 0 0 1 2.8-1.8h.845c1.056 0 2.323.106 2.93 1.03l.264.4v-1.106h5.806v3.115H39.6v.739h1.954v3.168H39.6v1.03h2.27v3.247z"/>
    <path id="Path_389" data-name="Path 389" d="m99.407 130.7-.607.449h.554" transform="translate(-72.718 -96.197)" style="fill:none;stroke:#a51f23;stroke-miterlimit:10;stroke-width:.25px"/>
    <path id="Path_390" data-name="Path 390" class="cls-3" d="M6.936 132.786c-.66-.158-.845-.264-.845-.924v-.634c0-.475.053-.713.634-.713s.634.079.634.95v.475h2.032v-1.188c0-1.4-.66-1.954-2.613-1.954-2.165 0-2.877.238-2.877 2.561v.607c0 1.769.343 2.217 2.112 2.64 1.188.29 1.346.343 1.346 1.03v1.082c0 .422-.158.581-.66.581-.422 0-.581-.106-.634-.37a3.917 3.917 0 0 1-.026-.607v-.713H3.926v.818a5.824 5.824 0 0 0 .106 1.267 1.534 1.534 0 0 0 .37.713c1.769-.264 3.458-.554 5.095-.871a5.14 5.14 0 0 0 .132-1.373v-.763c-.08-1.822-.555-2.033-2.693-2.614z" transform="translate(-2.87 -94.798)"/>
    <path id="Path_391" data-name="Path 391" class="cls-3" d="M33.43 128.8c-1.9 0-2.93.422-2.93 2.059v6.1a1.285 1.285 0 0 0 .026.317 52.875 52.875 0 0 0 2.323-.5v-5.808c0-.37.158-.475.581-.475s.581.106.581.475v5.544c.792-.185 1.584-.4 2.349-.581v-5.069c.001-1.64-1.029-2.062-2.93-2.062z" transform="translate(-22.448 -94.798)"/>
    <path id="Path_392" data-name="Path 392" class="cls-3" d="M58.2 131.8v4.673c.792-.211 1.531-.449 2.27-.66V130H58.2z" transform="translate(-42.836 -95.682)"/>
    <path id="Path_393" data-name="Path 393" class="cls-3" d="M71.4 135.412c.792-.264 1.531-.528 2.27-.792V130H71.4z" transform="translate(-52.551 -95.682)"/>
    <path id="Path_394" data-name="Path 394" class="cls-3" d="M90.861 130.784c-.211-1.214-1.03-1.584-3.062-1.584h-1.98a.822.822 0 0 0-.818.818v3.482a67.338 67.338 0 0 0 2.27-.95v-1.66h.686c.5 0 .686.238.686.739v.264c.792-.344 1.505-.739 2.218-1.109z" transform="translate(-62.561 -95.093)"/>
    <path id="Path_395" data-name="Path 395" class="cls-6" d="M8.229 163.378c1.478 0 2.349-.264 2.666-1.478-1.61.317-3.3.607-5.095.871.4.449 1.135.607 2.429.607z" transform="translate(-4.269 -119.16)"/>
    <path id="Path_396" data-name="Path 396" class="cls-6" d="M34.085 156.7c0 .37-.158.475-.581.475s-.581-.106-.581-.475v-.053c-.766.158-1.531.343-2.323.5.132 1.373 1.162 1.742 2.93 1.742 1.9 0 2.93-.422 2.93-2.059v-1.03c-.766.211-1.531.4-2.349.581v.317z" transform="translate(-22.522 -114.671)"/>
    <path id="Path_397" data-name="Path 397" class="cls-6" d="M61.685 150.425c0 .4-.158.634-.607.634s-.607-.238-.607-.634v-1.663c-.739.238-1.478.449-2.27.66v.95c0 2.217 1.056 2.508 2.877 2.508s2.877-.264 2.877-2.508V147.6c-.739.264-1.478.528-2.27.792z" transform="translate(-42.836 -108.635)"/>
    <path id="Path_398" data-name="Path 398" class="cls-6" d="M88.569 136.262v1.238c0 .66-.132.871-.95.871h-.449v-1.452c-.713.317-1.478.634-2.27.95v5.491h2.27v-3.273h.4c.766 0 1 .185 1 .581v2.666h2.27V140.8c0-1.241-.528-1.4-1.531-1.637v-.026c.95-.158 1.531-.5 1.531-2.033v-1.188a7.1 7.1 0 0 0-.053-.818c-.713.402-1.426.794-2.218 1.164z" transform="translate(-62.487 -99.435)"/>
    <path id="Path_399" data-name="Path 399" class="cls-6" d="M115.641 128.8h-.841a2.978 2.978 0 0 0-1.162.185 1.464 1.464 0 0 0-.581.37 2.572 2.572 0 0 0-.554 1.874v5.649c0 1.294.607 2.138 2.27 2.138h.845c1.9 0 2.587-.554 2.587-2.323v-1.478h-2.191v1.585c0 .317-.211.422-.581.422s-.581-.132-.581-.422v-5.781c0-.317.211-.422.607-.422.37 0 .581.132.581.422v1.32h2.191v-1.822c-.002-1.163-.61-1.717-2.59-1.717z" transform="translate(-82.801 -94.798)"/>
    <path id="Path_400" data-name="Path 400" class="cls-6" d="M141.07 138.025v-2.376h1.954v-1.822h-1.954v-2.086h2.085V130H138.8v9.9h4.541v-1.874z" transform="translate(-102.158 -95.682)"/>
</svg>
