<svg xmlns="http://www.w3.org/2000/svg" xmlns:xlink="http://www.w3.org/1999/xlink" width="50.805" height="34.237" viewBox="0 0 50.805 34.237">
    <defs>
        <linearGradient id="linear-gradient" x1=".498" y1=".061" x2=".498" y2=".916" gradientUnits="objectBoundingBox">
            <stop offset="0" stop-color="#a11d2a"/>
            <stop offset="1" stop-color="#740f1e"/>
        </linearGradient>
        <linearGradient id="linear-gradient-2" x1=".5" y1="-1.207" x2=".5" y2="1.985" xlink:href="#linear-gradient"/>
        <linearGradient id="linear-gradient-3" x1=".504" y1="-1.22" x2=".504" y2="1.972" xlink:href="#linear-gradient"/>
        <linearGradient id="linear-gradient-4" x1=".491" y1="-1.987" x2=".491" y2="2.308" xlink:href="#linear-gradient"/>
        <linearGradient id="linear-gradient-5" x1=".493" y1="-1.251" x2=".493" y2="1.985" xlink:href="#linear-gradient"/>
        <linearGradient id="linear-gradient-6" x1=".493" y1="-1.193" x2=".493" y2="1.999" xlink:href="#linear-gradient"/>
        <linearGradient id="linear-gradient-7" x1=".493" y1="-1.234" x2=".493" y2="1.958" xlink:href="#linear-gradient"/>
        <linearGradient id="linear-gradient-8" x1=".497" y1="-2.589" x2=".497" y2="1.045" xlink:href="#linear-gradient"/>
        <linearGradient id="linear-gradient-9" x1=".498" y1="-2.475" x2=".498" y2=".999" xlink:href="#linear-gradient"/>
        <linearGradient id="linear-gradient-10" x1=".513" y1="-2.473" x2=".513" y2="1.04" xlink:href="#linear-gradient"/>
        <linearGradient id="linear-gradient-11" x1=".483" y1="-2.512" x2=".483" y2="1.014" xlink:href="#linear-gradient"/>
        <linearGradient id="linear-gradient-12" x1=".489" y1="-2.41" x2=".489" y2="1.013" xlink:href="#linear-gradient"/>
        <linearGradient id="linear-gradient-13" x1=".499" y1="-2.589" x2=".499" y2="1.045" xlink:href="#linear-gradient"/>
        <style>
            .cls-16{fill:#020202}
        </style>
    </defs>
    <g id="Toy_Source_Logo" data-name="Toy Source Logo" transform="translate(-2.1 -8.684)">
        <g id="Group_1235" data-name="Group 1235" transform="translate(2.1 8.684)">
            <g id="Group_1234" data-name="Group 1234">
                <path id="Path_545" data-name="Path 545" d="M52.161 36.708a3.431 3.431 0 0 0 .124-1.115 3.431 3.431 0 0 0-.124-1.115 3.958 3.958 0 0 0 .372-1.735 4.177 4.177 0 0 0-.62-2.107 4.271 4.271 0 0 0-1.487-1.487c-.124-.248-.248-.248-.5-.372v-.743l1.611-1.611a3.925 3.925 0 0 0 1.115-2.85 4.638 4.638 0 0 0-.62-2.23c-.124-.124-.124-.248-.248-.5a11.991 11.991 0 0 0-2.23-3.222v-.248l.124-.248.124.124.124-.372c.124-.124-.124-.248-.124-.248l-.372-.124 2.478-5.576a.789.789 0 0 0-.991-.5l-2.478 5.576-.248-.124h-.248l-.124.372.124.124v.124l-.867-.991a5.309 5.309 0 0 1 .372-1.239 4.262 4.262 0 0 0-.124-2.23 1.2 1.2 0 0 0-.991-.867 1.892 1.892 0 0 0-1.983.743 2.672 2.672 0 0 0-.5 1.735 6.333 6.333 0 0 0 .5 2.23l-.372.372c-.372.248-1.487.5-1.735.743s.124.5.124.5a5.622 5.622 0 0 1-.991.248c-.372 0-.372.62-.62.867a.121.121 0 0 1-.124.124v-1.108.124-.376h-.124v-.124a.121.121 0 0 1 .124-.124v-.124a.121.121 0 0 1-.124-.124c0-.124 0-.124.124-.124v-.124a.124.124 0 0 1 0-.248v.124a.124.124 0 0 1 0-.248v-.124a.124.124 0 0 1 0-.248v-.124a.124.124 0 0 1 0-.248V15.4a.124.124 0 0 1 0-.248v-.124a.124.124 0 0 1 0-.248c0-.124-.124-.372-.248-.372v-1.987a.248.248 0 0 0-.5 0V14.4c-.124.124-.248.248-.248.372a.124.124 0 0 1 0 .248v.124a.124.124 0 0 1 0 .248v.124a.124.124 0 0 1 0 .248v.124a.124.124 0 0 1 0 .248v.124a.121.121 0 0 1 .124.124h-.62l-.124-.62h-.62v-.248h-1.352l-.248-.248h-.372v.372h-.991v-.124l.248-.248v-1.112l-.248-.248.124-2.23a.243.243 0 0 0-.248-.248v-.372a.267.267 0 0 0-.248-.248c-.124 0-.248.248-.248.248l-.124 1.611h-.124a1.193 1.193 0 0 0-1.239-.867.62.62 0 0 0-.991 0s-.743-.124-1.239.867h-.124l-.124-1.611s-.124-.248-.248-.248a.267.267 0 0 0-.248.248v.372a.243.243 0 0 0-.248.248l.124 2.23-.248.372v.991l.248.248v.124h-.991v-.372h-.372l.372.248h-1.363v.248h-.62l-.124.62h-.62a.121.121 0 0 1 .124-.124v-.124a.124.124 0 0 1 0-.248v-.124a.124.124 0 1 1 0-.248V15.4a.124.124 0 0 1 0-.248v-.124a.124.124 0 0 1 0-.248c0-.124-.124-.372-.248-.372v-1.987a.248.248 0 0 0-.5 0V14.4c-.124.124-.248.248-.248.372a.124.124 0 0 1 0 .248v.124a.124.124 0 0 1 0 .248v.124a.124.124 0 0 1 0 .248v.124a.124.124 0 0 1 0 .248v.124a.124.124 0 0 1 0 .248v.124a.124.124 0 0 1 0 .248v.124a.121.121 0 0 1 .124.124c0 .124 0 .124-.124.124v.124a.121.121 0 0 1 .124.124h-.124v1.12a14.678 14.678 0 0 0-.991-1.487c-.248-.248-.124-.991-1.115-.991V15.4s.124-.248-.248-.248h-.5s-.248 0-.248.372v.62l-.991 1.239-.62-.248.124-1.115-.5-.62v-.867a.539.539 0 0 0 0-.867l2.6-2.354s.372-.372-.248-.124l-2.85 1.859-.124-.743.248-.867s.124-.372-.248 0l-.248.62-.248-.124-.124-.248-.62-.124-.62.124-.124.248-.248.124-.248-.62c-.248-.248-.248 0-.248 0l.248.867-.124.743-2.85-1.859c-.62-.248-.248.124-.248.124l2.6 2.354a.539.539 0 0 0 0 .867v.867l-.248.248.124 1.115-.62.248-.991-1.239v-.62c0-.372-.248-.372-.248-.372h-.5c-.372 0-.248.248-.248.248v.743c-1.115 0-.867.743-1.115.991-.124.124-.5.867-.867 1.487A13.039 13.039 0 0 0 10.9 17.13a6.736 6.736 0 0 0 .991-.5c.248-.248.124-.743 0-1.115-.124-.248-.5-1.239-.5-1.239a2.814 2.814 0 0 0-.124-1.363A1.87 1.87 0 0 0 9.78 11.55a.343.343 0 0 0-.5 0c-1.356.128-1.48 1.739-1.48 1.739a13.945 13.945 0 0 0-.867 1.859 1.154 1.154 0 0 0 0 .743 2.542 2.542 0 0 1-.62-1.487c.5-.372-.124-2.107-.124-2.107l.5-.743c.124-.124.248 0 .5-.248s.124-.5-.248-.5a1.059 1.059 0 0 0-.743.372 2.094 2.094 0 0 1-.62-.248 2.227 2.227 0 0 1-.5-1.115c0-.248 0-.991-.248-1.115s-.372.372-.248.743a3.026 3.026 0 0 1-.124.867c-.124 0-.248-.248-.248-.372.372-.5 0-.867-.372-.372-.248.372-.372.5.124.991 0 0-.372-.124-.5.124s.248.5.248.5c-.124-.124-.62 0-.248.5a1.813 1.813 0 0 1 .372.62 21.847 21.847 0 0 0-.248 2.354c0 .124.372.5.372.5a26.336 26.336 0 0 0 .743 3.47 4.537 4.537 0 0 1-.5 2.23 4.581 4.581 0 0 0-.62 1.363h-.118a4.223 4.223 0 0 0-1.363 3.1 3.843 3.843 0 0 0 1.239 2.974v1.239a2.728 2.728 0 0 0 .124.991 7.026 7.026 0 0 0-.991 1.611 5.612 5.612 0 0 0-.372 1.973 5.137 5.137 0 0 0 .372 1.983 3.958 3.958 0 0 0-.372 1.734v.124a4.279 4.279 0 0 0 .62 2.23 5.033 5.033 0 0 0 1.735 1.859A6.666 6.666 0 0 0 7.8 42.9h.62a6.864 6.864 0 0 0 3.965-1.115 3.84 3.84 0 0 0 1.615.747 6.963 6.963 0 0 0 4.213.124 6.225 6.225 0 0 0 1.611-.62 2.592 2.592 0 0 0 .743-.5 5.388 5.388 0 0 0 .867.5 7.476 7.476 0 0 0 2.354.743 3.82 3.82 0 0 0 1.239.124 3.82 3.82 0 0 0 1.239-.124 10.467 10.467 0 0 0 2.107-.62 4.08 4.08 0 0 0 2.354.743h.124a4.378 4.378 0 0 0 2.107-.5 4.073 4.073 0 0 0 2.107.5 4.468 4.468 0 0 0 2.478-.743 5.942 5.942 0 0 0 2.107.62 6.635 6.635 0 0 0 3.841-.372h.124a4.972 4.972 0 0 0 1.859.372h2.974a4.44 4.44 0 0 0 2.974-1.115l.124-.124a4.223 4.223 0 0 0 1.363-3.1 3.43 3.43 0 0 0-.372-1.611c-.376.003-.376.003-.376-.121z" transform="translate(-2.1 -8.684)" style="fill:url(#linear-gradient)"/>
                <path id="Path_546" data-name="Path 546" d="M50.535 34.6a4.4 4.4 0 0 0 .248-1.239 3.618 3.618 0 0 0-.248-1.115v-.124l.124-.122a3.3 3.3 0 0 0 .372-1.487 2.943 2.943 0 0 0-.372-1.487 2.431 2.431 0 0 0-1.115-1.115 1.648 1.648 0 0 0-.991-.372v-2.23l1.859-1.983a3.038 3.038 0 0 0 .743-1.983 2.49 2.49 0 0 0-.5-1.611 3.34 3.34 0 0 0-.867-.991 2.915 2.915 0 0 0-1.983-.62 3.389 3.389 0 0 0-2.6 1.239 3.152 3.152 0 0 0-2.6-1.239 3.744 3.744 0 0 0-1.983.62l-.372.372a.939.939 0 0 0-.5-.248 7.58 7.58 0 0 0-1.487-.62 7.563 7.563 0 0 0-3.717.124 6.641 6.641 0 0 0-1.363.62c-.124-.124-.372-.248-.5-.372a3.514 3.514 0 0 0-1.611-.5h-4.824a2.943 2.943 0 0 0-1.487.372 2.431 2.431 0 0 0-1.115 1.115 6.041 6.041 0 0 0-.372.867 6.22 6.22 0 0 0-1.487-.248 5.788 5.788 0 0 0-2.107.372 13.516 13.516 0 0 0-1.363.743 5.117 5.117 0 0 0-1.363-.867 3.4 3.4 0 0 0-1.611-.248c-.124-.248-.124-.372-.248-.62a2.431 2.431 0 0 0-1.114-1.103 4.038 4.038 0 0 0-1.611-.5 2.49 2.49 0 0 0-1.611.5 1.237 1.237 0 0 0-.62.5 3.1 3.1 0 0 0-2.23-1 3.1 3.1 0 0 0-2.23.991 2.887 2.887 0 0 0-.867 1.859c-.124.124-.248.124-.372.248a3.1 3.1 0 0 0-.991 2.23 2.9 2.9 0 0 0 .867 2.107c-.124 0 0 .124.124.248v1.735a3.666 3.666 0 0 0 .248 1.239l-.372.372a5.117 5.117 0 0 0-.867 1.363A3.4 3.4 0 0 0 3.2 32a3.227 3.227 0 0 0 .5 1.859l.124.124-.124.124a3.514 3.514 0 0 0-.5 1.611v.124a3.43 3.43 0 0 0 .372 1.611 2.216 2.216 0 0 0 1.239 1.117 7.905 7.905 0 0 0 2.85.743h.62a5.6 5.6 0 0 0 3.965-1.487l.248.248a4.578 4.578 0 0 0 1.735.867 5.137 5.137 0 0 0 1.983.372 6.22 6.22 0 0 0 1.487-.248 4.439 4.439 0 0 0 1.363-.5A7.522 7.522 0 0 0 20.3 37.7l.124-.124a5.5 5.5 0 0 0 1.363.991 9.286 9.286 0 0 0 1.983.62c.248 0 .62.124.991.124a2.416 2.416 0 0 0 .991-.124 9.286 9.286 0 0 0 1.983-.62c.124-.124.372-.124.5-.248a3.1 3.1 0 0 0 2.23.991 2.49 2.49 0 0 0 1.611-.5 1.711 1.711 0 0 1 .5-.372 3.341 3.341 0 0 0 2.107.743 3.687 3.687 0 0 0 1.859-.62.967.967 0 0 0 .5-.5 7.421 7.421 0 0 0 2.478.991c.372 0 .743.124 1.115.124a4.718 4.718 0 0 0 1.983-.372 2.094 2.094 0 0 1 .62-.248 2.961 2.961 0 0 0 1.735.62h2.974a2.9 2.9 0 0 0 2.107-.867 2.9 2.9 0 0 0 .867-2.107 3.618 3.618 0 0 0-.248-1.115c-.014-.111-.138-.235-.138-.487z" transform="translate(-1.837 -6.457)" style="fill:#fff"/>
                <g id="Group_1233" data-name="Group 1233" transform="translate(3.222 13.03)">
                    <g id="Group_1230" data-name="Group 1230">
                        <g id="Group_1229" data-name="Group 1229">
                            <path id="Path_547" data-name="Path 547" d="M5.072 22.026a1.125 1.125 0 0 1 .867-.372h.124v-.991a1.407 1.407 0 0 1 .372-.991 1.407 1.407 0 0 1 .991-.372 1.407 1.407 0 0 1 .991.372c.124.5.372.743.372 1.115v.867h.124a.749.749 0 0 1 .743.372 1.339 1.339 0 0 1 .372.867v.248c0 .124 0 .124-.124.248 0 .124-.124.124-.124.248a1.125 1.125 0 0 1-.867.372h-.248v3.1a1.407 1.407 0 0 1-.372.991 1.407 1.407 0 0 1-.991.372 1.407 1.407 0 0 1-.991-.372 1.407 1.407 0 0 1-.372-.991v-3.1a1.125 1.125 0 0 1-.867-.372 1.071 1.071 0 0 1-.372-.743 1.125 1.125 0 0 1 .372-.868z" transform="translate(-4.7 -19.176)" style="fill:url(#linear-gradient-2)"/>
                            <path id="Path_548" data-name="Path 548" d="M10.763 28.57A1.279 1.279 0 0 1 9.4 27.207v-6.444a.929.929 0 0 1 .124-.62.967.967 0 0 1 .5-.5 1.761 1.761 0 0 1 .743-.248 1.572 1.572 0 0 1 .743.124.967.967 0 0 1 .5.5 1.572 1.572 0 0 1 .124.743V22c.124-.124.248-.124.5-.248a4.4 4.4 0 0 1 1.239-.248 2.416 2.416 0 0 1 .991.124 2.278 2.278 0 0 1 1.239 1.239 2.416 2.416 0 0 1 .124.991v3.222a1.364 1.364 0 1 1-2.726 0v-2.6a.939.939 0 0 0-.248-.5.746.746 0 0 0-1.239.5v2.6a1.761 1.761 0 0 1-.248.743.967.967 0 0 1-.5.5c-.007.123-.255.247-.503.247z" transform="translate(-3.576 -19.152)" style="fill:url(#linear-gradient-3)"/>
                            <path id="Path_549" data-name="Path 549" d="M22.339 24.15a1.791 1.791 0 0 1-.248.867 1.444 1.444 0 0 1-.867.248H18l.248.248c.124.124.248.124.372.248.124 0 .248.124.372.124h.62c.248 0 .62-.124.991-.124a1.347 1.347 0 0 1 .62-.124 1.048 1.048 0 0 1 .743.248c.248.248.248.372.248.743v.248c0 .124-.124.248-.248.372l-.372.372a.946.946 0 0 1-.62.248c-.372.124-.743.124-.991.248h-.743a6.278 6.278 0 0 1-1.611-.248 2.571 2.571 0 0 1-1.239-.743 2.926 2.926 0 0 1-.743-1.115 4.455 4.455 0 0 1-.248-1.363 3.666 3.666 0 0 1 .248-1.239l.743-1.115 1.115-.743a5.325 5.325 0 0 1 1.487-.248 3.5 3.5 0 0 1 1.859.5 2.522 2.522 0 0 1 .867.743 3.765 3.765 0 0 1 .62.867zm-4.213-.25h1.487v-.124c0-.372-.372-.62-.867-.62-.372.124-.5.372-.62.743z" transform="translate(-2.141 -18.698)" style="fill:url(#linear-gradient-4)"/>
                            <path id="Path_550" data-name="Path 550" d="M20.9 20.739c0-.248.124-.372.124-.62.124-.124.248-.372.5-.5a.929.929 0 0 1 .62-.124h4.833a1.117 1.117 0 0 1 .62.124c.124.124.372.248.5.5a1.33 1.33 0 0 1-.248 1.487 1.125 1.125 0 0 1-.867.372H25.98v5.08a1.761 1.761 0 0 1-.248.743.967.967 0 0 1-.5.5 1.761 1.761 0 0 1-.743.248 1.761 1.761 0 0 1-.743-.248.967.967 0 0 1-.5-.5 1.761 1.761 0 0 1-.248-.743v-5.08h-.991a1.125 1.125 0 0 1-.867-.372 1.791 1.791 0 0 1-.24-.867z" transform="translate(-.826 -19.128)" style="fill:url(#linear-gradient-5)"/>
                            <path id="Path_551" data-name="Path 551" d="M27.267 26.511a5.388 5.388 0 0 1-.5-.867 2.3 2.3 0 0 1-.248-.867c0-.248-.124-.62-.124-.867a2.109 2.109 0 0 1 .124-.867 2.3 2.3 0 0 1 .248-.867 3.106 3.106 0 0 1 .5-.867 8.017 8.017 0 0 1 .991-1.115 13.516 13.516 0 0 1 1.363-.743 6.22 6.22 0 0 1 1.487-.248 3.431 3.431 0 0 1 1.115.124l1.115.372a4.347 4.347 0 0 1 .991.62 5.389 5.389 0 0 1 .743.867 4.672 4.672 0 0 1 .867 2.6 5.27 5.27 0 0 1-.248 1.363 5.788 5.788 0 0 1-.62 1.239c-.248.248-.5.62-.743.867a3.766 3.766 0 0 1-.867.62c-.372.124-.62.248-.991.372a3.431 3.431 0 0 1-1.115.124 6.22 6.22 0 0 1-1.487-.248 3.722 3.722 0 0 1-1.363-.743 1.348 1.348 0 0 1-1.238-.869zm1.983-2.478a3.618 3.618 0 0 0 .248 1.115 1.269 1.269 0 0 0 .62.743 2.334 2.334 0 0 0 .991.248h.372c.248 0 .372-.124.62-.248.124-.124.372-.248.5-.5a2.709 2.709 0 0 0 .372-.62 1.572 1.572 0 0 0 .124-.743v-.372a1.125 1.125 0 0 0-.372-.867 1.493 1.493 0 0 0-.62-.62 1.791 1.791 0 0 0-.867-.248 2.916 2.916 0 0 0-.991.248 1.269 1.269 0 0 0-.62.743 1.366 1.366 0 0 0-.377 1.121z" transform="translate(.489 -19.2)" style="fill:url(#linear-gradient-6)"/>
                            <path id="Path_552" data-name="Path 552" d="M34.42 19.748a1.046 1.046 0 0 1 .867-.248 1.508 1.508 0 0 1 1.239.743l1.363 1.735 1.363-1.735a1.508 1.508 0 0 1 1.239-.743 3.152 3.152 0 0 1 .867.248 1.711 1.711 0 0 1 .372.5 1.761 1.761 0 0 1 .248.743 1.048 1.048 0 0 1-.248.743l-2.354 2.6v2.85a1.407 1.407 0 0 1-.372.991 1.53 1.53 0 0 1-.991.5 1.127 1.127 0 0 1-.991-.5 1.407 1.407 0 0 1-.372-.991v-2.85l-2.6-2.6a.91.91 0 0 1-.248-.743 1.761 1.761 0 0 1 .248-.743 1.711 1.711 0 0 1 .37-.5z" transform="translate(2.259 -19.128)" style="fill:url(#linear-gradient-7)"/>
                            <path id="Path_553" data-name="Path 553" d="M5.443 34.883a2.7 2.7 0 0 1-.62-.5.929.929 0 0 1-.124-.62 5.367 5.367 0 0 1 .124-.62.9.9 0 0 1 .743-.5h.372l.5.124.5.124.372.124h1.107a.433.433 0 0 0 .248-.124c.124 0 .124-.124.124-.248s0-.124-.124-.248h-.124l-.248-.124h-.867l-.743-.248a2.491 2.491 0 0 1-.991-.5l-.743-.743a2.334 2.334 0 0 1-.249-.98 2.109 2.109 0 0 1 .124-.867c.248-.248.372-.62.62-.743a1.955 1.955 0 0 1 .991-.62c.372-.124.867-.248 1.239-.372h.62a4.215 4.215 0 0 1 1.239.124 8.538 8.538 0 0 1 .991.372.681.681 0 0 1 .372.62v.372a1.117 1.117 0 0 1-.124.62l-.372.372c-.124.124-.248.124-.5.124a1.842 1.842 0 0 1-.743-.124h-.12l-.372-.248h-.124l-.372-.124h-.5c-.248 0-.372 0-.372.124-.124 0-.124.124-.124.248a.121.121 0 0 0 .127.122.121.121 0 0 1 .124.124h.62l.372.124.743.248a8.538 8.538 0 0 1 .991.372 1.711 1.711 0 0 1 .5.372 1.711 1.711 0 0 1 .372.5c.124 0 .248.248.248.372 0 .248.124.372.124.62a2.61 2.61 0 0 1-.62 1.611 3.555 3.555 0 0 1-2.85 1.115h-.5a4.007 4.007 0 0 1-1.981-.375z" transform="translate(-4.7 -17.287)" style="fill:url(#linear-gradient-8)"/>
                            <path id="Path_554" data-name="Path 554" d="m10.943 33.52-.372-.743a1.761 1.761 0 0 1-.248-.743c0-.248-.124-.5-.124-.743a1.572 1.572 0 0 1 .124-.743 1.761 1.761 0 0 1 .248-.743l.372-.743a3.771 3.771 0 0 1 .991-.991 3.876 3.876 0 0 1 1.239-.62 5.27 5.27 0 0 1 1.363-.248 2.416 2.416 0 0 1 .991.124c.372.124.62.248.991.372a2.223 2.223 0 0 1 .867.62 3.285 3.285 0 0 1 .62.743 4.08 4.08 0 0 1 .743 2.354 4.4 4.4 0 0 1-.248 1.239c-.124.372-.372.743-.5 1.115a4.206 4.206 0 0 1-.743.743 5.246 5.246 0 0 1-.867.62 8.538 8.538 0 0 1-.991.372 3.08 3.08 0 0 1-.991.124 5.27 5.27 0 0 1-1.363-.248 3.876 3.876 0 0 1-1.239-.62 10.719 10.719 0 0 0-.863-1.241zm1.857-2.355a2.334 2.334 0 0 0 .248.991 1.493 1.493 0 0 0 .62.62 1.791 1.791 0 0 0 .867.248h.372c.248 0 .372-.124.62-.248.124-.124.372-.248.5-.372a.939.939 0 0 0 .248-.5 1.117 1.117 0 0 0 .124-.62v-.372a1.125 1.125 0 0 0-.372-.867 1.237 1.237 0 0 0-.62-.5 1.761 1.761 0 0 0-.743-.248 1.791 1.791 0 0 0-.867.248 1.493 1.493 0 0 0-.62.62 1.131 1.131 0 0 0-.377 1z" transform="translate(-3.385 -17.287)" style="fill:url(#linear-gradient-9)"/>
                            <path id="Path_555" data-name="Path 555" d="M20.622 35.3a4.439 4.439 0 0 1-1.363-.5 6.874 6.874 0 0 1-.991-.743 3.249 3.249 0 0 1-.62-1.115 4.455 4.455 0 0 1-.248-1.363v-3.216a1.648 1.648 0 0 1 .372-.991 1.339 1.339 0 0 1 .867-.372 1.125 1.125 0 0 1 .867.372 1.407 1.407 0 0 1 .372.991v3.346a.929.929 0 0 0 .124.62 1.711 1.711 0 0 0 .372.5.946.946 0 0 0 .62.248h.5a.946.946 0 0 0 .62-.248 1.711 1.711 0 0 0 .372-.5 1.117 1.117 0 0 0 .124-.62v-3.346a1.648 1.648 0 0 1 .372-.991 1.2 1.2 0 0 1 1.735 0c.124.124.248.248.248.372a.745.745 0 0 1 .124.5v3.222a4.455 4.455 0 0 1-.248 1.363 5.023 5.023 0 0 1-.62 1.115 1.927 1.927 0 0 1-.991.743 4.439 4.439 0 0 1-1.363.5h-.743c-.007.239-.254.113-.502.113z" transform="translate(-1.663 -17.335)" style="fill:url(#linear-gradient-10)"/>
                            <path id="Path_556" data-name="Path 556" d="M25.439 35.378a1.125 1.125 0 0 1-.867-.372 1.339 1.339 0 0 1-.372-.867v-5.576a1.572 1.572 0 0 1 .124-.743.967.967 0 0 1 .5-.5 1.342 1.342 0 0 1 .743-.124h2.478a4.455 4.455 0 0 1 1.363.248 1.927 1.927 0 0 1 .991.743 2.335 2.335 0 0 1 .5 1.115c0 .248.124.5.124.743a2.079 2.079 0 0 1-.743 1.735l-.5.124-.124.124.991 1.239a1.791 1.791 0 0 1 .248.867 1.117 1.117 0 0 1-.124.62c-.124.124-.248.372-.372.5a1.761 1.761 0 0 1-.743.248 1.508 1.508 0 0 1-1.239-.743L26.8 32.28v1.859a.929.929 0 0 1-.124.62.967.967 0 0 1-.5.5c-.241-.005-.489.119-.737.119zm1.239-4.957h1.115a.5.5 0 1 0 0-.991h-1.115z" transform="translate(-.037 -17.287)" style="fill:url(#linear-gradient-11)"/>
                            <path id="Path_557" data-name="Path 557" d="M30.667 33.691a5.788 5.788 0 0 1-.62-1.239 5.27 5.27 0 0 1-.248-1.363 4.4 4.4 0 0 1 .248-1.239 3.3 3.3 0 0 1 .743-1.239 4.025 4.025 0 0 1 2.726-1.487c.248 0 .62-.124.867-.124a3.431 3.431 0 0 1 1.115.124 2.017 2.017 0 0 1 .743.372.968.968 0 0 1 .5.5.929.929 0 0 1 .124.62.946.946 0 0 1-.248.62l-.372.372c-.124 0-.248.124-.5.124h-.372a1.761 1.761 0 0 1-.743-.248 5.367 5.367 0 0 0-.62-.124 2 2 0 0 0-1.115.372 2.4 2.4 0 0 0-.62 1.115v.743a1.329 1.329 0 0 0 .248.743c.124.248.372.372.5.5a1.572 1.572 0 0 0 .743.124A5.454 5.454 0 0 0 35 32.7h.5a1.125 1.125 0 0 1 .867.372 1.761 1.761 0 0 1 .248.743 1.761 1.761 0 0 1-.248.743 2.858 2.858 0 0 1-1.115.743 4.455 4.455 0 0 1-1.363.248 2.419 2.419 0 0 1-.867-.124 8.622 8.622 0 0 1-1.735-.991c-.248-.247-.496-.371-.62-.743z" transform="translate(1.302 -17.335)" style="fill:url(#linear-gradient-12)"/>
                            <path id="Path_558" data-name="Path 558" d="M35.924 34.387a.745.745 0 0 1-.124-.5v-5.448a.929.929 0 0 1 .124-.62.967.967 0 0 1 .5-.5 1.117 1.117 0 0 1 .62-.124h3.1a.745.745 0 0 1 .5.124L41 27.7a.929.929 0 0 1 .124.62 1.117 1.117 0 0 1-.124.62c-.124.124-.248.372-.372.372a.745.745 0 0 1-.5.124H38.4v.62h1.487a.937.937 0 0 1 .5.124c.124.124.248.124.372.248s.248.248.248.372.124.248.124.372a.883.883 0 0 1-.372.743 1.125 1.125 0 0 1-.867.372H38.4v.743h1.735a1.125 1.125 0 0 1 .865.37c.124.124.248.248.248.372s.124.248.124.372a.883.883 0 0 1-.372.743 1.125 1.125 0 0 1-.867.372h-2.97a1.761 1.761 0 0 1-.743-.248 2.7 2.7 0 0 1-.496-.624z" transform="translate(2.737 -17.287)" style="fill:url(#linear-gradient-13)"/>
                        </g>
                    </g>
                    <g id="Group_1232" data-name="Group 1232" style="opacity:.1">
                        <g id="Group_1231" data-name="Group 1231">
                            <path id="Path_559" data-name="Path 559" class="cls-16" d="M5.072 22.026a1.125 1.125 0 0 1 .867-.372h.124v-.991a1.407 1.407 0 0 1 .372-.991 1.407 1.407 0 0 1 .991-.372 1.407 1.407 0 0 1 .991.372c.124.5.372.743.372 1.115v.867h.124a.749.749 0 0 1 .743.372 1.339 1.339 0 0 1 .372.867v.248c0 .124 0 .124-.124.248 0 .124-.124.124-.124.248a1.125 1.125 0 0 1-.867.372h-.248v3.1a1.407 1.407 0 0 1-.372.991 1.407 1.407 0 0 1-.991.372 1.407 1.407 0 0 1-.991-.372 1.407 1.407 0 0 1-.372-.991v-3.1a1.125 1.125 0 0 1-.867-.372 1.071 1.071 0 0 1-.372-.743 1.125 1.125 0 0 1 .372-.868z" transform="translate(-4.7 -19.176)"/>
                            <path id="Path_560" data-name="Path 560" class="cls-16" d="M10.763 28.57A1.279 1.279 0 0 1 9.4 27.207v-6.444a.929.929 0 0 1 .124-.62.967.967 0 0 1 .5-.5 1.761 1.761 0 0 1 .743-.248 1.572 1.572 0 0 1 .743.124.967.967 0 0 1 .5.5 1.572 1.572 0 0 1 .124.743V22c.124-.124.248-.124.5-.248a4.4 4.4 0 0 1 1.239-.248 2.416 2.416 0 0 1 .991.124 2.278 2.278 0 0 1 1.239 1.239 2.416 2.416 0 0 1 .124.991v3.222a1.364 1.364 0 1 1-2.726 0v-2.6a.939.939 0 0 0-.248-.5.746.746 0 0 0-1.239.5v2.6a1.761 1.761 0 0 1-.248.743.967.967 0 0 1-.5.5c-.007.123-.255.247-.503.247z" transform="translate(-3.576 -19.152)"/>
                            <path id="Path_561" data-name="Path 561" class="cls-16" d="M22.339 24.15a1.791 1.791 0 0 1-.248.867 1.444 1.444 0 0 1-.867.248H18l.248.248c.124.124.248.124.372.248.124 0 .248.124.372.124h.62c.248 0 .62-.124.991-.124a1.347 1.347 0 0 1 .62-.124 1.048 1.048 0 0 1 .743.248c.248.248.248.372.248.743v.248c0 .124-.124.248-.248.372l-.372.372a.946.946 0 0 1-.62.248c-.372.124-.743.124-.991.248h-.743a6.278 6.278 0 0 1-1.611-.248 2.571 2.571 0 0 1-1.239-.743 2.926 2.926 0 0 1-.743-1.115 4.455 4.455 0 0 1-.248-1.363 3.666 3.666 0 0 1 .248-1.239l.743-1.115 1.115-.743a5.325 5.325 0 0 1 1.487-.248 3.5 3.5 0 0 1 1.859.5 2.522 2.522 0 0 1 .867.743 3.765 3.765 0 0 1 .62.867zm-4.213-.25h1.487v-.124c0-.372-.372-.62-.867-.62-.372.124-.5.372-.62.743z" transform="translate(-2.141 -18.698)"/>
                            <path id="Path_562" data-name="Path 562" class="cls-16" d="M20.9 20.739c0-.248.124-.372.124-.62.124-.124.248-.372.5-.5a.929.929 0 0 1 .62-.124h4.833a1.117 1.117 0 0 1 .62.124c.124.124.372.248.5.5a1.33 1.33 0 0 1-.248 1.487 1.125 1.125 0 0 1-.867.372H25.98v5.08a1.761 1.761 0 0 1-.248.743.967.967 0 0 1-.5.5 1.761 1.761 0 0 1-.743.248 1.761 1.761 0 0 1-.743-.248.967.967 0 0 1-.5-.5 1.761 1.761 0 0 1-.248-.743v-5.08h-.991a1.125 1.125 0 0 1-.867-.372 1.791 1.791 0 0 1-.24-.867z" transform="translate(-.826 -19.128)"/>
                            <path id="Path_563" data-name="Path 563" class="cls-16" d="M27.267 26.511a5.388 5.388 0 0 1-.5-.867 2.3 2.3 0 0 1-.248-.867c0-.248-.124-.62-.124-.867a2.109 2.109 0 0 1 .124-.867 2.3 2.3 0 0 1 .248-.867 3.106 3.106 0 0 1 .5-.867 8.017 8.017 0 0 1 .991-1.115 13.516 13.516 0 0 1 1.363-.743 6.22 6.22 0 0 1 1.487-.248 3.431 3.431 0 0 1 1.115.124l1.115.372a4.347 4.347 0 0 1 .991.62 5.389 5.389 0 0 1 .743.867 4.672 4.672 0 0 1 .867 2.6 5.27 5.27 0 0 1-.248 1.363 5.788 5.788 0 0 1-.62 1.239c-.248.248-.5.62-.743.867a3.766 3.766 0 0 1-.867.62c-.372.124-.62.248-.991.372a3.431 3.431 0 0 1-1.115.124 6.22 6.22 0 0 1-1.487-.248 3.722 3.722 0 0 1-1.363-.743 1.348 1.348 0 0 1-1.238-.869zm1.983-2.478a3.618 3.618 0 0 0 .248 1.115 1.269 1.269 0 0 0 .62.743 2.334 2.334 0 0 0 .991.248h.372c.248 0 .372-.124.62-.248.124-.124.372-.248.5-.5a2.709 2.709 0 0 0 .372-.62 1.572 1.572 0 0 0 .124-.743v-.372a1.125 1.125 0 0 0-.372-.867 1.493 1.493 0 0 0-.62-.62 1.791 1.791 0 0 0-.867-.248 2.916 2.916 0 0 0-.991.248 1.269 1.269 0 0 0-.62.743 1.366 1.366 0 0 0-.377 1.121z" transform="translate(.489 -19.2)"/>
                            <path id="Path_564" data-name="Path 564" class="cls-16" d="M34.42 19.748a1.046 1.046 0 0 1 .867-.248 1.508 1.508 0 0 1 1.239.743l1.363 1.735 1.363-1.735a1.508 1.508 0 0 1 1.239-.743 3.152 3.152 0 0 1 .867.248 1.711 1.711 0 0 1 .372.5 1.761 1.761 0 0 1 .248.743 1.048 1.048 0 0 1-.248.743l-2.354 2.6v2.85a1.407 1.407 0 0 1-.372.991 1.53 1.53 0 0 1-.991.5 1.127 1.127 0 0 1-.991-.5 1.407 1.407 0 0 1-.372-.991v-2.85l-2.6-2.6a.91.91 0 0 1-.248-.743 1.761 1.761 0 0 1 .248-.743 1.711 1.711 0 0 1 .37-.5z" transform="translate(2.259 -19.128)"/>
                            <path id="Path_565" data-name="Path 565" class="cls-16" d="M5.443 34.883a2.7 2.7 0 0 1-.62-.5.929.929 0 0 1-.124-.62 5.367 5.367 0 0 1 .124-.62.9.9 0 0 1 .743-.5h.372l.5.124.5.124.372.124h1.107a.433.433 0 0 0 .248-.124c.124 0 .124-.124.124-.248s0-.124-.124-.248h-.124l-.248-.124h-.867l-.743-.248a2.491 2.491 0 0 1-.991-.5l-.743-.743a2.334 2.334 0 0 1-.249-.98 2.109 2.109 0 0 1 .124-.867c.248-.248.372-.62.62-.743a1.955 1.955 0 0 1 .991-.62c.372-.124.867-.248 1.239-.372h.62a4.215 4.215 0 0 1 1.239.124 8.538 8.538 0 0 1 .991.372.681.681 0 0 1 .372.62v.372a1.117 1.117 0 0 1-.124.62l-.372.372c-.124.124-.248.124-.5.124a1.842 1.842 0 0 1-.743-.124h-.12l-.372-.248h-.124l-.372-.124h-.5c-.248 0-.372 0-.372.124-.124 0-.124.124-.124.248a.121.121 0 0 0 .127.122.121.121 0 0 1 .124.124h.62l.372.124.743.248a8.538 8.538 0 0 1 .991.372 1.711 1.711 0 0 1 .5.372 1.711 1.711 0 0 1 .372.5c.124 0 .248.248.248.372 0 .248.124.372.124.62a2.61 2.61 0 0 1-.62 1.611 3.555 3.555 0 0 1-2.85 1.115h-.5a4.007 4.007 0 0 1-1.981-.375z" transform="translate(-4.7 -17.287)"/>
                            <path id="Path_566" data-name="Path 566" class="cls-16" d="m10.943 33.52-.372-.743a1.761 1.761 0 0 1-.248-.743c0-.248-.124-.5-.124-.743a1.572 1.572 0 0 1 .124-.743 1.761 1.761 0 0 1 .248-.743l.372-.743a3.771 3.771 0 0 1 .991-.991 3.876 3.876 0 0 1 1.239-.62 5.27 5.27 0 0 1 1.363-.248 2.416 2.416 0 0 1 .991.124c.372.124.62.248.991.372a2.223 2.223 0 0 1 .867.62 3.285 3.285 0 0 1 .62.743 4.08 4.08 0 0 1 .743 2.354 4.4 4.4 0 0 1-.248 1.239c-.124.372-.372.743-.5 1.115a4.206 4.206 0 0 1-.743.743 5.246 5.246 0 0 1-.867.62 8.538 8.538 0 0 1-.991.372 3.08 3.08 0 0 1-.991.124 5.27 5.27 0 0 1-1.363-.248 3.876 3.876 0 0 1-1.239-.62 10.719 10.719 0 0 0-.863-1.241zm1.857-2.355a2.334 2.334 0 0 0 .248.991 1.493 1.493 0 0 0 .62.62 1.791 1.791 0 0 0 .867.248h.372c.248 0 .372-.124.62-.248.124-.124.372-.248.5-.372a.939.939 0 0 0 .248-.5 1.117 1.117 0 0 0 .124-.62v-.372a1.125 1.125 0 0 0-.372-.867 1.237 1.237 0 0 0-.62-.5 1.761 1.761 0 0 0-.743-.248 1.791 1.791 0 0 0-.867.248 1.493 1.493 0 0 0-.62.62 1.131 1.131 0 0 0-.377 1z" transform="translate(-3.385 -17.287)"/>
                            <path id="Path_567" data-name="Path 567" class="cls-16" d="M20.622 35.3a4.439 4.439 0 0 1-1.363-.5 6.874 6.874 0 0 1-.991-.743 3.249 3.249 0 0 1-.62-1.115 4.455 4.455 0 0 1-.248-1.363v-3.216a1.648 1.648 0 0 1 .372-.991 1.339 1.339 0 0 1 .867-.372 1.125 1.125 0 0 1 .867.372 1.407 1.407 0 0 1 .372.991v3.346a.929.929 0 0 0 .124.62 1.711 1.711 0 0 0 .372.5.946.946 0 0 0 .62.248h.5a.946.946 0 0 0 .62-.248 1.711 1.711 0 0 0 .372-.5 1.117 1.117 0 0 0 .124-.62v-3.346a1.648 1.648 0 0 1 .372-.991 1.2 1.2 0 0 1 1.735 0c.124.124.248.248.248.372a.745.745 0 0 1 .124.5v3.222a4.455 4.455 0 0 1-.248 1.363 5.023 5.023 0 0 1-.62 1.115 1.927 1.927 0 0 1-.991.743 4.439 4.439 0 0 1-1.363.5h-.743c-.007.239-.254.113-.502.113z" transform="translate(-1.663 -17.335)"/>
                            <path id="Path_568" data-name="Path 568" class="cls-16" d="M25.439 35.378a1.125 1.125 0 0 1-.867-.372 1.339 1.339 0 0 1-.372-.867v-5.576a1.572 1.572 0 0 1 .124-.743.967.967 0 0 1 .5-.5 1.342 1.342 0 0 1 .743-.124h2.478a4.455 4.455 0 0 1 1.363.248 1.927 1.927 0 0 1 .991.743 2.335 2.335 0 0 1 .5 1.115c0 .248.124.5.124.743a2.079 2.079 0 0 1-.743 1.735l-.5.124-.124.124.991 1.239a1.791 1.791 0 0 1 .248.867 1.117 1.117 0 0 1-.124.62c-.124.124-.248.372-.372.5a1.761 1.761 0 0 1-.743.248 1.508 1.508 0 0 1-1.239-.743L26.8 32.28v1.859a.929.929 0 0 1-.124.62.967.967 0 0 1-.5.5c-.241-.005-.489.119-.737.119zm1.239-4.957h1.115a.5.5 0 1 0 0-.991h-1.115z" transform="translate(-.037 -17.287)"/>
                            <path id="Path_569" data-name="Path 569" class="cls-16" d="M30.667 33.691a5.788 5.788 0 0 1-.62-1.239 5.27 5.27 0 0 1-.248-1.363 4.4 4.4 0 0 1 .248-1.239 3.3 3.3 0 0 1 .743-1.239 4.025 4.025 0 0 1 2.726-1.487c.248 0 .62-.124.867-.124a3.431 3.431 0 0 1 1.115.124 2.017 2.017 0 0 1 .743.372.968.968 0 0 1 .5.5.929.929 0 0 1 .124.62.946.946 0 0 1-.248.62l-.372.372c-.124 0-.248.124-.5.124h-.372a1.761 1.761 0 0 1-.743-.248 5.367 5.367 0 0 0-.62-.124 2 2 0 0 0-1.115.372 2.4 2.4 0 0 0-.62 1.115v.743a1.329 1.329 0 0 0 .248.743c.124.248.372.372.5.5a1.572 1.572 0 0 0 .743.124A5.454 5.454 0 0 0 35 32.7h.5a1.125 1.125 0 0 1 .867.372 1.761 1.761 0 0 1 .248.743 1.761 1.761 0 0 1-.248.743 2.858 2.858 0 0 1-1.115.743 4.455 4.455 0 0 1-1.363.248 2.419 2.419 0 0 1-.867-.124 8.622 8.622 0 0 1-1.735-.991c-.248-.247-.496-.371-.62-.743z" transform="translate(1.302 -17.335)"/>
                            <path id="Path_570" data-name="Path 570" class="cls-16" d="M35.924 34.387a.745.745 0 0 1-.124-.5v-5.448a.929.929 0 0 1 .124-.62.967.967 0 0 1 .5-.5 1.117 1.117 0 0 1 .62-.124h3.1a.745.745 0 0 1 .5.124L41 27.7a.929.929 0 0 1 .124.62 1.117 1.117 0 0 1-.124.62c-.124.124-.248.372-.372.372a.745.745 0 0 1-.5.124H38.4v.62h1.487a.937.937 0 0 1 .5.124c.124.124.248.124.372.248s.248.248.248.372.124.248.124.372a.883.883 0 0 1-.372.743 1.125 1.125 0 0 1-.867.372H38.4v.743h1.735a1.125 1.125 0 0 1 .865.37c.124.124.248.248.248.372s.124.248.124.372a.883.883 0 0 1-.372.743 1.125 1.125 0 0 1-.867.372h-2.97a1.761 1.761 0 0 1-.743-.248 2.7 2.7 0 0 1-.496-.624z" transform="translate(2.737 -17.287)"/>
                        </g>
                    </g>
                </g>
            </g>
        </g>
    </g>
</svg>
