<svg xmlns="http://www.w3.org/2000/svg" xmlns:xlink="http://www.w3.org/1999/xlink" width="52.988" height="36.237" viewBox="0 0 52.988 36.237">
    <defs>
        <linearGradient id="linear-gradient" x1=".498" y1=".061" x2=".498" y2=".916" gradientUnits="objectBoundingBox">
            <stop offset="0" stop-color="#a11d2a"/>
            <stop offset="1" stop-color="#740f1e"/>
        </linearGradient>
        <linearGradient id="linear-gradient-2" x1=".5" y1="-1.207" x2=".5" y2="1.985" xlink:href="#linear-gradient"/>
        <linearGradient id="linear-gradient-3" x1=".504" y1="-1.22" x2=".504" y2="1.972" xlink:href="#linear-gradient"/>
        <linearGradient id="linear-gradient-4" x1=".491" y1="-1.987" x2=".491" y2="2.308" xlink:href="#linear-gradient"/>
        <linearGradient id="linear-gradient-5" x1=".493" y1="-1.251" x2=".493" y2="1.985" xlink:href="#linear-gradient"/>
        <linearGradient id="linear-gradient-6" x1=".493" y1="-1.193" x2=".493" y2="1.999" xlink:href="#linear-gradient"/>
        <linearGradient id="linear-gradient-7" x1=".493" y1="-1.234" x2=".493" y2="1.958" xlink:href="#linear-gradient"/>
        <linearGradient id="linear-gradient-8" x1=".497" y1="-2.589" x2=".497" y2="1.045" xlink:href="#linear-gradient"/>
        <linearGradient id="linear-gradient-9" x1=".498" y1="-2.475" x2=".498" y2=".999" xlink:href="#linear-gradient"/>
        <linearGradient id="linear-gradient-10" x1=".513" y1="-2.473" x2=".513" y2="1.04" xlink:href="#linear-gradient"/>
        <linearGradient id="linear-gradient-11" x1=".483" y1="-2.512" x2=".483" y2="1.014" xlink:href="#linear-gradient"/>
        <linearGradient id="linear-gradient-12" x1=".489" y1="-2.41" x2=".489" y2="1.013" xlink:href="#linear-gradient"/>
        <linearGradient id="linear-gradient-13" x1=".499" y1="-2.589" x2=".499" y2="1.045" xlink:href="#linear-gradient"/>
        <linearGradient id="linear-gradient-14" x1="283.986" y1=".691" x2="283.986" y2=".035" gradientUnits="objectBoundingBox">
            <stop offset="0" stop-color="#f3f2f2"/>
            <stop offset="1" stop-color="#cdcccb"/>
        </linearGradient>
        <linearGradient id="linear-gradient-15" x1=".469" y1=".691" x2=".469" y2=".035" xlink:href="#linear-gradient-14"/>
        <linearGradient id="linear-gradient-16" x1=".498" y1=".061" x2=".498" y2=".919" xlink:href="#linear-gradient"/>
        <linearGradient id="linear-gradient-17" x1=".507" y1="-1.209" x2=".507" y2="1.983" xlink:href="#linear-gradient"/>
        <linearGradient id="linear-gradient-18" x1=".509" y1="-1.209" x2=".509" y2="1.983" xlink:href="#linear-gradient"/>
        <linearGradient id="linear-gradient-19" x1=".478" y1="-1.99" x2=".478" y2="2.305" xlink:href="#linear-gradient"/>
        <linearGradient id="linear-gradient-20" x1=".498" y1="-1.253" x2=".498" y2="1.983" xlink:href="#linear-gradient"/>
        <linearGradient id="linear-gradient-21" x1=".497" y1="-1.196" x2=".497" y2="1.997" xlink:href="#linear-gradient"/>
        <linearGradient id="linear-gradient-22" x1=".482" y1="-1.236" x2=".482" y2="1.956" xlink:href="#linear-gradient"/>
        <linearGradient id="linear-gradient-23" x1=".502" y1="-2.592" x2=".502" y2="1.042" xlink:href="#linear-gradient"/>
        <linearGradient id="linear-gradient-24" x1=".502" y1="-2.478" x2=".502" y2=".996" xlink:href="#linear-gradient"/>
        <linearGradient id="linear-gradient-25" x1=".517" y1="-2.485" x2=".517" y2="1.041" xlink:href="#linear-gradient"/>
        <linearGradient id="linear-gradient-26" x1=".488" y1="-2.515" x2=".488" y2="1.011" xlink:href="#linear-gradient"/>
        <linearGradient id="linear-gradient-27" x1=".494" y1="-2.413" x2=".494" y2="1.011" xlink:href="#linear-gradient"/>
        <linearGradient id="linear-gradient-28" x1=".483" y1="-2.592" x2=".483" y2="1.042" xlink:href="#linear-gradient"/>
        <linearGradient id="linear-gradient-29" x1=".475" y1="-13.281" x2=".475" y2="2.077" xlink:href="#linear-gradient"/>
        <linearGradient id="linear-gradient-30" x1=".57" y1="-11.175" x2=".57" y2="1.454" xlink:href="#linear-gradient"/>
        <linearGradient id="linear-gradient-31" x1=".548" y1="-11.321" x2=".548" y2="1.245" xlink:href="#linear-gradient"/>
        <linearGradient id="linear-gradient-32" x1=".524" y1="-12.147" x2=".524" y2="1.175" xlink:href="#linear-gradient"/>
        <linearGradient id="linear-gradient-33" x1=".491" y1="-12.703" x2=".491" y2="1.119" xlink:href="#linear-gradient"/>
        <linearGradient id="linear-gradient-34" x1=".377" y1="-11.959" x2=".377" y2="1.105" xlink:href="#linear-gradient"/>
        <linearGradient id="linear-gradient-35" x1=".475" y1="-12.098" x2=".475" y2="1.066" xlink:href="#linear-gradient"/>
        <linearGradient id="linear-gradient-36" x1=".503" y1="-12.753" x2=".503" y2="1.069" xlink:href="#linear-gradient"/>
        <linearGradient id="linear-gradient-37" x1=".476" y1="-12.753" x2=".476" y2="1.069" xlink:href="#linear-gradient"/>
        <linearGradient id="linear-gradient-38" x1=".551" y1="-11.457" x2=".551" y2="1.108" xlink:href="#linear-gradient"/>
        <linearGradient id="linear-gradient-39" x1=".52" y1="-13.892" x2=".52" y2="1.466" xlink:href="#linear-gradient"/>
        <linearGradient id="linear-gradient-40" x1=".45" y1="-13.558" x2=".45" y2="1.799" xlink:href="#linear-gradient"/>
        <linearGradient id="linear-gradient-41" x1=".63" y1="-16.004" x2=".63" y2="2.426" xlink:href="#linear-gradient"/>
        <radialGradient id="radial-gradient" cx="-.346" cy="-35.451" r="1.243" gradientTransform="matrix(0 1 -.489 0 -16.284 -32.729)" gradientUnits="objectBoundingBox">
            <stop offset="0" stop-color="#f5ea14"/>
            <stop offset=".253" stop-color="#f5e617"/>
            <stop offset=".526" stop-color="#f7d920"/>
            <stop offset=".808" stop-color="#f9c32e"/>
            <stop offset="1" stop-color="#fbb03b"/>
        </radialGradient>
        <style>
            .cls-2{fill:#fff}.cls-15{opacity:.1}.cls-16{fill:#020202}.cls-46{fill:#060606}
        </style>
    </defs>
    <g id="Toy_Source_Wholesale_Logo" data-name="Toy Source Wholesale Logo" transform="translate(-.847 -7.684)">
        <g id="Layer_2" transform="translate(2.38 8.908)">
            <g id="Group_1242" data-name="Group 1242">
                <g id="Group_1241" data-name="Group 1241">
                    <path id="Path_571" data-name="Path 571" d="M51.532 36.356a3.388 3.388 0 0 0 .122-1.1 3.388 3.388 0 0 0-.122-1.1 3.908 3.908 0 0 0 .367-1.713 4.125 4.125 0 0 0-.612-2.08 4.218 4.218 0 0 0-1.468-1.468c-.122-.245-.245-.245-.489-.367v-.734l1.59-1.594a3.876 3.876 0 0 0 1.1-2.814 4.579 4.579 0 0 0-.612-2.2c-.122-.122-.122-.245-.245-.489a11.841 11.841 0 0 0-2.2-3.181v-.245l.122-.245.122.122.122-.367c.122-.122-.122-.245-.122-.245l-.367-.122 2.447-5.506a.779.779 0 0 0-.979-.489l-2.447 5.506-.245-.122h-.245l-.122.367.122.122v.122l-.856-.979a5.242 5.242 0 0 1 .367-1.224 4.209 4.209 0 0 0-.122-2.2 1.186 1.186 0 0 0-.979-.856 1.868 1.868 0 0 0-1.958.734 2.639 2.639 0 0 0-.489 1.713 6.253 6.253 0 0 0 .489 2.2l-.367.367c-.367.245-1.468.489-1.713.734s.122.489.122.489a5.551 5.551 0 0 1-.979.245c-.367 0-.367.612-.612.856a.12.12 0 0 1-.122.122V17.513v.122-.367h-.122v-.122a.12.12 0 0 1 .122-.122V16.9a.12.12 0 0 1-.122-.122c0-.122 0-.122.122-.122v-.122a.122.122 0 0 1 0-.245v.122a.122.122 0 0 1 0-.245v-.122a.122.122 0 0 1 0-.245v-.122a.122.122 0 0 1 0-.245v-.122a.122.122 0 0 1 0-.245v-.122a.122.122 0 0 1 0-.245c0-.122-.122-.367-.245-.367v-1.957a.245.245 0 0 0-.489 0v1.958c-.122.122-.245.245-.245.367a.122.122 0 0 1 0 .245v.122a.122.122 0 0 1 0 .245v.122a.122.122 0 0 1 0 .245v.122a.122.122 0 0 1 0 .245v.122a.12.12 0 0 1 .122.122h-.612l-.122-.612h-.612v-.245H36.6l-.245-.245h-.367v.367h-.979v-.122l.245-.245v-1.1l-.245-.245.122-2.2a.24.24 0 0 0-.245-.245v-.367a.263.263 0 0 0-.245-.245c-.122 0-.245.245-.245.245l-.122 1.591h-.122a1.178 1.178 0 0 0-1.224-.856.612.612 0 0 0-.979 0s-.734-.122-1.224.856h-.122l-.122-1.591s-.122-.245-.245-.245a.263.263 0 0 0-.245.245v.37a.24.24 0 0 0-.245.245l.122 2.2-.245.367v.979l.245.245v.122H28.9v-.367h-.367l.367.245h-1.35v.245h-.612l-.122.612H26.2a.12.12 0 0 1 .122-.122v-.122a.122.122 0 1 1 0-.245v-.122a.122.122 0 1 1 0-.245v-.122a.122.122 0 1 1 0-.245v-.122a.122.122 0 1 1 0-.245c0-.122-.122-.367-.245-.367v-1.962a.245.245 0 1 0-.489 0v1.958c-.122.122-.245.245-.245.367a.122.122 0 0 1 0 .245v.122a.122.122 0 0 1 0 .245v.122a.122.122 0 0 1 0 .245v.122a.122.122 0 0 1 0 .245v.122a.122.122 0 0 1 0 .245v.122a.122.122 0 0 1 0 .245v.121a.12.12 0 0 1 .122.122c0 .122 0 .122-.122.122v.122a.12.12 0 0 1 .122.122h-.122v1.101a14.494 14.494 0 0 0-.979-1.468c-.245-.245-.122-.979-1.1-.979v-.734s.122-.245-.245-.245h-.489s-.245 0-.245.367v.612l-.979 1.224-.612-.245.122-1.1-.489-.612v-.856a.532.532 0 0 0 0-.856l2.573-2.324s.367-.367-.245-.122l-2.814 1.835-.122-.734.245-.856s.122-.367-.245 0l-.245.612-.245-.122-.122-.245-.612-.122-.612.122-.122.245-.245.122-.245-.612c-.245-.245-.245 0-.245 0l.245.856-.122.734-2.814-1.835c-.612-.245-.245.122-.245.122l2.57 2.327a.532.532 0 0 0 0 .856v.856l-.245.245.122 1.1-.612.245-.979-1.224v-.612c0-.367-.245-.367-.245-.367h-.489c-.367 0-.245.245-.245.245v.734c-1.1 0-.856.734-1.1.979-.122.122-.489.856-.856 1.468a12.876 12.876 0 0 0-1.224-1.1 6.651 6.651 0 0 0 .979-.489c.245-.245.122-.734 0-1.1-.122-.245-.489-1.224-.489-1.224a2.778 2.778 0 0 0-.122-1.346 1.846 1.846 0 0 0-1.468-1.346.339.339 0 0 0-.489 0c-1.346.122-1.468 1.713-1.468 1.713a13.77 13.77 0 0 0-.856 1.835 1.139 1.139 0 0 0 0 .734 2.51 2.51 0 0 1-.612-1.468c.489-.367-.122-2.08-.122-2.08l.489-.734c.122-.122.245 0 .489-.245s.122-.489-.245-.489a1.046 1.046 0 0 0-.734.367 2.067 2.067 0 0 1-.612-.245 2.2 2.2 0 0 1-.489-1.1c0-.245 0-.979-.245-1.1s-.367.367-.245.734a2.988 2.988 0 0 1-.122.856c-.122 0-.245-.245-.245-.367.367-.489 0-.856-.367-.367-.245.367-.367.489.122.979 0 0-.367-.122-.489.122s.245.489.245.489c-.122-.122-.612 0-.245.489a1.79 1.79 0 0 1 .367.612 21.572 21.572 0 0 0-.245 2.325c0 .122.367.489.367.489a26 26 0 0 0 .734 3.426 4.48 4.48 0 0 1-.489 2.2 4.523 4.523 0 0 0-.612 1.346h-.123A4.17 4.17 0 0 0 2.1 25.1a3.8 3.8 0 0 0 1.224 2.937v1.224a2.694 2.694 0 0 0 .122.979 6.937 6.937 0 0 0-.979 1.591 5.542 5.542 0 0 0-.367 1.956 5.072 5.072 0 0 0 .367 1.958 3.908 3.908 0 0 0-.367 1.712v.122a4.225 4.225 0 0 0 .612 2.2 4.969 4.969 0 0 0 1.713 1.835 6.582 6.582 0 0 0 3.3.856h.615a6.777 6.777 0 0 0 3.915-1.1 3.792 3.792 0 0 0 1.591.734 6.875 6.875 0 0 0 4.16.122 6.146 6.146 0 0 0 1.591-.612 2.56 2.56 0 0 0 .734-.489 5.321 5.321 0 0 0 .856.489 7.382 7.382 0 0 0 2.325.734 3.772 3.772 0 0 0 1.224.122 3.772 3.772 0 0 0 1.224-.122 10.335 10.335 0 0 0 2.08-.612 4.028 4.028 0 0 0 2.325.734h.122a4.323 4.323 0 0 0 2.08-.489 4.022 4.022 0 0 0 2.08.489 4.412 4.412 0 0 0 2.447-.734 5.868 5.868 0 0 0 2.08.612 6.552 6.552 0 0 0 3.793-.367h.122a4.91 4.91 0 0 0 1.835.367h2.937a4.385 4.385 0 0 0 2.937-1.1l.122-.122a4.17 4.17 0 0 0 1.346-3.059 3.387 3.387 0 0 0-.367-1.591c-.367.002-.367.002-.367-.12z" transform="translate(-2.1 -8.684)" style="fill:url(#linear-gradient)"/>
                    <path id="Path_572" data-name="Path 572" class="cls-2" d="M49.94 34.4a4.347 4.347 0 0 0 .245-1.224 3.573 3.573 0 0 0-.245-1.1v-.122l.122-.122a3.258 3.258 0 0 0 .367-1.468 2.906 2.906 0 0 0-.367-1.468 2.4 2.4 0 0 0-1.1-1.1 1.627 1.627 0 0 0-.979-.367v-2.2l1.835-1.958a3 3 0 0 0 .734-1.958 2.459 2.459 0 0 0-.489-1.591 3.3 3.3 0 0 0-.857-.979 2.878 2.878 0 0 0-1.958-.612 3.346 3.346 0 0 0-2.569 1.224 3.113 3.113 0 0 0-2.569-1.224 3.7 3.7 0 0 0-1.958.612l-.367.367a.928.928 0 0 0-.489-.245 7.485 7.485 0 0 0-1.468-.612 7.468 7.468 0 0 0-3.671.122 6.558 6.558 0 0 0-1.346.612c-.122-.122-.367-.245-.489-.367a3.47 3.47 0 0 0-1.591-.489h-4.773a2.906 2.906 0 0 0-1.468.367 2.4 2.4 0 0 0-1.1 1.1 5.965 5.965 0 0 0-.367.856 6.142 6.142 0 0 0-1.468-.245 5.716 5.716 0 0 0-2.08.367 13.346 13.346 0 0 0-1.346.734 5.052 5.052 0 0 0-1.346-.856 3.358 3.358 0 0 0-1.591-.245c-.122-.245-.122-.367-.245-.612a2.4 2.4 0 0 0-1.1-1.1A3.987 3.987 0 0 0 12.254 18a2.459 2.459 0 0 0-1.591.489 1.222 1.222 0 0 0-.612.489A3.064 3.064 0 0 0 7.85 18a3.064 3.064 0 0 0-2.2.979 2.851 2.851 0 0 0-.856 1.835c-.122.122-.245.122-.367.245a3.064 3.064 0 0 0-.979 2.2 2.866 2.866 0 0 0 .856 2.08c-.122 0 0 .122.122.245V27.3a3.62 3.62 0 0 0 .245 1.224l-.371.366a5.052 5.052 0 0 0-.856 1.346 3.358 3.358 0 0 0-.244 1.59 3.186 3.186 0 0 0 .489 1.835l.122.122-.122.122A3.47 3.47 0 0 0 3.2 35.5v.122a3.387 3.387 0 0 0 .367 1.591 2.188 2.188 0 0 0 1.224 1.1 7.806 7.806 0 0 0 2.814.734h.612a5.531 5.531 0 0 0 3.915-1.468l.245.245a4.52 4.52 0 0 0 1.713.856 5.072 5.072 0 0 0 1.958.367 6.141 6.141 0 0 0 1.468-.245 4.383 4.383 0 0 0 1.346-.489 7.428 7.428 0 0 0 1.224-.856l.122-.122a5.433 5.433 0 0 0 1.346.979 9.169 9.169 0 0 0 1.958.612c.245 0 .612.122.979.122a2.385 2.385 0 0 0 .979-.122 9.169 9.169 0 0 0 1.958-.612c.122-.122.367-.122.489-.245a3.064 3.064 0 0 0 2.2.979 2.459 2.459 0 0 0 1.591-.489 1.689 1.689 0 0 1 .489-.367 3.3 3.3 0 0 0 2.08.734 3.641 3.641 0 0 0 1.835-.612.955.955 0 0 0 .489-.489 7.328 7.328 0 0 0 2.447.979c.367 0 .734.122 1.1.122a4.659 4.659 0 0 0 1.958-.367 2.067 2.067 0 0 1 .612-.245 2.924 2.924 0 0 0 1.713.612h2.937a2.866 2.866 0 0 0 2.08-.856 2.866 2.866 0 0 0 .856-2.08 3.573 3.573 0 0 0-.245-1.1c.004-.127-.119-.249-.119-.49z" transform="translate(-1.854 -6.602)"/>
                    <g id="Group_1240" data-name="Group 1240" transform="translate(3.181 12.867)">
                        <g id="Group_1237" data-name="Group 1237">
                            <g id="Group_1236" data-name="Group 1236">
                                <path id="Path_573" data-name="Path 573" d="M5.067 21.992a1.111 1.111 0 0 1 .856-.367h.122v-.979a1.389 1.389 0 0 1 .367-.979 1.389 1.389 0 0 1 .979-.367 1.389 1.389 0 0 1 .979.367c.122.489.367.734.367 1.1v.856h.123a.74.74 0 0 1 .734.367 1.322 1.322 0 0 1 .367.856v.245c0 .122 0 .122-.122.245 0 .122-.122.122-.122.245a1.111 1.111 0 0 1-.856.367h-.246v3.059a1.389 1.389 0 0 1-.367.979 1.389 1.389 0 0 1-.979.367 1.389 1.389 0 0 1-.979-.367 1.389 1.389 0 0 1-.367-.979V23.95a1.111 1.111 0 0 1-.856-.367 1.058 1.058 0 0 1-.367-.734 1.111 1.111 0 0 1 .367-.857z" transform="translate(-4.7 -19.178)" style="fill:url(#linear-gradient-2)"/>
                                <path id="Path_574" data-name="Path 574" d="M10.746 28.454A1.263 1.263 0 0 1 9.4 27.108v-6.362a.917.917 0 0 1 .122-.612.955.955 0 0 1 .489-.489 1.739 1.739 0 0 1 .734-.245 1.552 1.552 0 0 1 .734.122.955.955 0 0 1 .489.489 1.552 1.552 0 0 1 .122.734v1.224c.122-.122.245-.122.489-.245a4.347 4.347 0 0 1 1.221-.244 2.385 2.385 0 0 1 .979.122 2.249 2.249 0 0 1 1.224 1.224 2.385 2.385 0 0 1 .122.979v3.181a1.347 1.347 0 1 1-2.692 0v-2.569a.928.928 0 0 0-.245-.489.737.737 0 0 0-1.224.489v2.569a1.739 1.739 0 0 1-.245.734.955.955 0 0 1-.489.489c.005.123-.239.245-.484.245z" transform="translate(-3.649 -19.155)" style="fill:url(#linear-gradient-3)"/>
                                <path id="Path_575" data-name="Path 575" d="M22.252 24.114a1.768 1.768 0 0 1-.245.856 1.426 1.426 0 0 1-.856.245h-3.182l.245.245c.122.122.245.122.367.245.122 0 .245.122.367.122h.612c.245 0 .612-.122.979-.122a1.33 1.33 0 0 1 .612-.122 1.034 1.034 0 0 1 .734.245c.245.245.245.367.245.734v.245c0 .122-.122.245-.245.367l-.367.367a.935.935 0 0 1-.612.245c-.367.122-.734.122-.979.245h-.734a6.2 6.2 0 0 1-1.591-.245 2.539 2.539 0 0 1-1.224-.734 2.889 2.889 0 0 1-.734-1.1A4.4 4.4 0 0 1 15.4 24.6a3.62 3.62 0 0 1 .245-1.224l.734-1.1 1.1-.734a5.258 5.258 0 0 1 1.468-.245 3.453 3.453 0 0 1 1.835.489 2.491 2.491 0 0 1 .856.734 3.718 3.718 0 0 1 .612.856zm-4.16-.245h1.468v-.122c0-.367-.367-.612-.856-.612-.367.122-.489.367-.612.734z" transform="translate(-2.308 -18.731)" style="fill:url(#linear-gradient-4)"/>
                                <path id="Path_576" data-name="Path 576" d="M20.9 20.724c0-.245.122-.367.122-.612.122-.122.245-.367.489-.489a.917.917 0 0 1 .612-.122H26.9a1.1 1.1 0 0 1 .612.122c.122.122.367.245.489.489a1.314 1.314 0 0 1-.245 1.468 1.111 1.111 0 0 1-.856.367h-.979v5.017a1.739 1.739 0 0 1-.245.734.955.955 0 0 1-.489.489 1.739 1.739 0 0 1-.734.245 1.739 1.739 0 0 1-.734-.245.955.955 0 0 1-.489-.489 1.739 1.739 0 0 1-.245-.734v-5.017H22a1.111 1.111 0 0 1-.857-.367 1.768 1.768 0 0 1-.243-.856z" transform="translate(-1.078 -19.133)" style="fill:url(#linear-gradient-5)"/>
                                <path id="Path_577" data-name="Path 577" d="M27.256 26.419a5.32 5.32 0 0 1-.489-.856 2.268 2.268 0 0 1-.245-.856c0-.245-.122-.612-.122-.856a2.082 2.082 0 0 1 .122-.856 2.268 2.268 0 0 1 .245-.856 3.067 3.067 0 0 1 .489-.856 7.916 7.916 0 0 1 .979-1.1 13.346 13.346 0 0 1 1.346-.734 6.141 6.141 0 0 1 1.469-.249 3.387 3.387 0 0 1 1.1.122l1.1.367a4.292 4.292 0 0 1 .979.612 5.322 5.322 0 0 1 .734.856 4.614 4.614 0 0 1 .856 2.569 5.2 5.2 0 0 1-.245 1.346 5.715 5.715 0 0 1-.612 1.224c-.245.245-.489.612-.734.857a3.719 3.719 0 0 1-.856.612c-.367.122-.612.245-.979.367a3.388 3.388 0 0 1-1.1.122 6.142 6.142 0 0 1-1.468-.245 3.676 3.676 0 0 1-1.346-.734 1.331 1.331 0 0 1-1.223-.856zm1.958-2.447a3.573 3.573 0 0 0 .245 1.1 1.253 1.253 0 0 0 .612.734 2.305 2.305 0 0 0 .979.245h.367c.245 0 .367-.122.612-.245.122-.122.367-.245.489-.489a2.675 2.675 0 0 0 .367-.612 1.552 1.552 0 0 0 .122-.734V23.6a1.111 1.111 0 0 0-.367-.856 1.474 1.474 0 0 0-.612-.612 1.768 1.768 0 0 0-.856-.245 2.88 2.88 0 0 0-.979.245 1.253 1.253 0 0 0-.612.734 1.348 1.348 0 0 0-.367 1.106z" transform="translate(.151 -19.2)" style="fill:url(#linear-gradient-6)"/>
                                <path id="Path_578" data-name="Path 578" d="M34.412 19.745a1.032 1.032 0 0 1 .857-.245 1.489 1.489 0 0 1 1.224.734l1.346 1.713 1.346-1.713a1.489 1.489 0 0 1 1.224-.734 3.113 3.113 0 0 1 .857.245 1.689 1.689 0 0 1 .367.489 1.739 1.739 0 0 1 .245.734 1.034 1.034 0 0 1-.245.734l-2.325 2.569v2.814a1.389 1.389 0 0 1-.367.979 1.51 1.51 0 0 1-.979.489 1.113 1.113 0 0 1-.979-.489 1.389 1.389 0 0 1-.367-.979v-2.813L34.045 21.7a.9.9 0 0 1-.245-.734 1.739 1.739 0 0 1 .245-.734 1.689 1.689 0 0 1 .367-.487z" transform="translate(1.806 -19.133)" style="fill:url(#linear-gradient-7)"/>
                                <path id="Path_579" data-name="Path 579" d="M5.434 34.786a2.669 2.669 0 0 1-.612-.489.917.917 0 0 1-.122-.612 5.3 5.3 0 0 1 .122-.612.885.885 0 0 1 .734-.489h.367l.489.122.489.122.367.122h1.1a.427.427 0 0 0 .245-.122c.122 0 .122-.122.122-.245s0-.122-.122-.245h-.12l-.245-.122h-.856l-.734-.245a2.459 2.459 0 0 1-.979-.489l-.734-.734a2.305 2.305 0 0 1-.245-.979 2.082 2.082 0 0 1 .122-.856c.245-.245.367-.612.612-.734a1.931 1.931 0 0 1 .979-.612c.367-.122.856-.245 1.224-.367h.612a4.162 4.162 0 0 1 1.224.122 8.431 8.431 0 0 1 .979.367.673.673 0 0 1 .367.612v.367a1.1 1.1 0 0 1-.122.612l-.367.367c-.122.122-.245.122-.489.122a1.819 1.819 0 0 1-.734-.122h-.125l-.367-.247h-.122l-.367-.122h-.489c-.245 0-.367 0-.367.122-.122 0-.122.122-.122.245a.12.12 0 0 0 .122.122.12.12 0 0 1 .122.122H8l.367.122.734.245a8.431 8.431 0 0 1 .979.367 1.689 1.689 0 0 1 .489.367 1.689 1.689 0 0 1 .367.489c.122 0 .245.245.245.367 0 .245.122.367.122.612a2.577 2.577 0 0 1-.612 1.591 3.511 3.511 0 0 1-2.814 1.1h-.485a3.956 3.956 0 0 1-1.958-.363z" transform="translate(-4.7 -17.411)" style="fill:url(#linear-gradient-8)"/>
                                <path id="Path_580" data-name="Path 580" d="m10.934 33.44-.367-.734a1.739 1.739 0 0 1-.245-.734c0-.245-.122-.489-.122-.734a1.552 1.552 0 0 1 .122-.734 1.739 1.739 0 0 1 .245-.734l.367-.734a3.724 3.724 0 0 1 .979-.979 3.827 3.827 0 0 1 1.224-.612 5.2 5.2 0 0 1 1.346-.245 2.385 2.385 0 0 1 .979.122c.367.122.612.245.979.367a2.195 2.195 0 0 1 .856.612 3.244 3.244 0 0 1 .612.734 4.028 4.028 0 0 1 .734 2.325 4.347 4.347 0 0 1-.245 1.224c-.122.367-.367.734-.489 1.1a4.153 4.153 0 0 1-.734.734 5.18 5.18 0 0 1-.856.612 8.431 8.431 0 0 1-.979.367 3.041 3.041 0 0 1-.979.122 5.2 5.2 0 0 1-1.346-.245 3.827 3.827 0 0 1-1.224-.612 10.584 10.584 0 0 0-.857-1.222zm1.835-2.325a2.305 2.305 0 0 0 .245.979 1.474 1.474 0 0 0 .612.612 1.768 1.768 0 0 0 .856.245h.367c.245 0 .367-.122.612-.245.122-.122.367-.245.489-.367a.928.928 0 0 0 .245-.489 1.1 1.1 0 0 0 .122-.612v-.367a1.111 1.111 0 0 0-.367-.856 1.222 1.222 0 0 0-.612-.489 1.739 1.739 0 0 0-.734-.245 1.768 1.768 0 0 0-.856.245 1.474 1.474 0 0 0-.612.612 1.116 1.116 0 0 0-.367.977z" transform="translate(-3.47 -17.411)" style="fill:url(#linear-gradient-9)"/>
                                <path id="Path_581" data-name="Path 581" d="M20.581 35.2a4.383 4.383 0 0 1-1.346-.489 6.787 6.787 0 0 1-.979-.734 3.208 3.208 0 0 1-.612-1.1 4.4 4.4 0 0 1-.245-1.346v-3.185a1.627 1.627 0 0 1 .367-.979 1.322 1.322 0 0 1 .858-.367 1.111 1.111 0 0 1 .856.367 1.389 1.389 0 0 1 .367.979v3.3a.917.917 0 0 0 .122.612 1.689 1.689 0 0 0 .367.489.935.935 0 0 0 .612.245h.489a.935.935 0 0 0 .612-.245 1.689 1.689 0 0 0 .367-.489 1.1 1.1 0 0 0 .122-.612v-3.3a1.627 1.627 0 0 1 .367-.979 1.183 1.183 0 0 1 1.713 0c.122.122.245.245.245.367a.736.736 0 0 1 .122.489V31.4a4.4 4.4 0 0 1-.245 1.346 4.96 4.96 0 0 1-.612 1.1 1.9 1.9 0 0 1-.979.734 4.383 4.383 0 0 1-1.346.489h-.734c.002.251-.243.131-.488.131z" transform="translate(-1.861 -17.456)" style="fill:url(#linear-gradient-10)"/>
                                <path id="Path_582" data-name="Path 582" d="M25.424 35.276a1.111 1.111 0 0 1-.856-.367 1.322 1.322 0 0 1-.367-.856v-5.507a1.552 1.552 0 0 1 .122-.734.955.955 0 0 1 .489-.489 1.325 1.325 0 0 1 .734-.122h2.447a4.4 4.4 0 0 1 1.346.245 1.9 1.9 0 0 1 .979.734 2.306 2.306 0 0 1 .489 1.1c0 .245.122.489.122.734a2.053 2.053 0 0 1-.734 1.713l-.489.122-.122.122.979 1.224a1.768 1.768 0 0 1 .245.856 1.1 1.1 0 0 1-.122.612c-.122.122-.245.367-.367.489a1.739 1.739 0 0 1-.734.245 1.489 1.489 0 0 1-1.224-.734l-1.591-2.447v1.835a.917.917 0 0 1-.122.612.955.955 0 0 1-.489.489c-.246.001-.491.124-.735.124zm1.224-4.894h1.1a.491.491 0 1 0 0-.979h-1.1z" transform="translate(-.34 -17.411)" style="fill:url(#linear-gradient-11)"/>
                                <path id="Path_583" data-name="Path 583" d="M30.656 33.607a5.715 5.715 0 0 1-.612-1.224 5.2 5.2 0 0 1-.245-1.346 4.347 4.347 0 0 1 .245-1.224 3.26 3.26 0 0 1 .734-1.224 3.974 3.974 0 0 1 2.692-1.468c.245 0 .612-.122.856-.122a3.388 3.388 0 0 1 1.1.122 1.992 1.992 0 0 1 .734.367.955.955 0 0 1 .489.489.917.917 0 0 1 .122.612.935.935 0 0 1-.245.612l-.367.367c-.122 0-.245.122-.489.122h-.367a1.739 1.739 0 0 1-.734-.245 5.3 5.3 0 0 0-.612-.122 1.974 1.974 0 0 0-1.1.367 2.366 2.366 0 0 0-.612 1.1v.734a1.312 1.312 0 0 0 .245.734c.122.245.367.367.489.489a1.552 1.552 0 0 0 .734.122 5.385 5.385 0 0 0 1.224-.245h.489a1.111 1.111 0 0 1 .856.367 1.739 1.739 0 0 1 .245.734 1.739 1.739 0 0 1-.245.734 2.822 2.822 0 0 1-1.1.734 4.4 4.4 0 0 1-1.346.245 2.389 2.389 0 0 1-.856-.122 8.514 8.514 0 0 1-1.713-.979c-.243-.237-.488-.363-.611-.73z" transform="translate(.912 -17.456)" style="fill:url(#linear-gradient-12)"/>
                                <path id="Path_584" data-name="Path 584" d="M35.922 34.3a.736.736 0 0 1-.122-.489v-5.387a.917.917 0 0 1 .122-.612.955.955 0 0 1 .489-.489 1.1 1.1 0 0 1 .612-.122h3.059a.736.736 0 0 1 .489.122l.367.367a.917.917 0 0 1 .122.612 1.1 1.1 0 0 1-.122.612c-.122.122-.245.367-.367.367a.736.736 0 0 1-.489.122h-1.713v.612h1.468a.925.925 0 0 1 .489.122c.122.122.245.122.367.245s.245.245.245.367.122.245.122.367a.872.872 0 0 1-.367.734 1.111 1.111 0 0 1-.857.367h-1.467v.734h1.713a1.111 1.111 0 0 1 .856.367c.122.122.245.245.245.367s.122.245.122.367a.872.872 0 0 1-.367.734 1.111 1.111 0 0 1-.856.367h-2.936a1.739 1.739 0 0 1-.734-.245 2.669 2.669 0 0 1-.49-.608z" transform="translate(2.253 -17.411)" style="fill:url(#linear-gradient-13)"/>
                            </g>
                        </g>
                        <g id="Group_1239" data-name="Group 1239" class="cls-15">
                            <g id="Group_1238" data-name="Group 1238">
                                <path id="Path_585" data-name="Path 585" class="cls-16" d="M5.067 21.992a1.111 1.111 0 0 1 .856-.367h.122v-.979a1.389 1.389 0 0 1 .367-.979 1.389 1.389 0 0 1 .979-.367 1.389 1.389 0 0 1 .979.367c.122.489.367.734.367 1.1v.856h.123a.74.74 0 0 1 .734.367 1.322 1.322 0 0 1 .367.856v.245c0 .122 0 .122-.122.245 0 .122-.122.122-.122.245a1.111 1.111 0 0 1-.856.367h-.246v3.059a1.389 1.389 0 0 1-.367.979 1.389 1.389 0 0 1-.979.367 1.389 1.389 0 0 1-.979-.367 1.389 1.389 0 0 1-.367-.979V23.95a1.111 1.111 0 0 1-.856-.367 1.058 1.058 0 0 1-.367-.734 1.111 1.111 0 0 1 .367-.857z" transform="translate(-4.7 -19.178)"/>
                                <path id="Path_586" data-name="Path 586" class="cls-16" d="M10.746 28.454A1.263 1.263 0 0 1 9.4 27.108v-6.362a.917.917 0 0 1 .122-.612.955.955 0 0 1 .489-.489 1.739 1.739 0 0 1 .734-.245 1.552 1.552 0 0 1 .734.122.955.955 0 0 1 .489.489 1.552 1.552 0 0 1 .122.734v1.224c.122-.122.245-.122.489-.245a4.347 4.347 0 0 1 1.221-.244 2.385 2.385 0 0 1 .979.122 2.249 2.249 0 0 1 1.224 1.224 2.385 2.385 0 0 1 .122.979v3.181a1.347 1.347 0 1 1-2.692 0v-2.569a.928.928 0 0 0-.245-.489.737.737 0 0 0-1.224.489v2.569a1.739 1.739 0 0 1-.245.734.955.955 0 0 1-.489.489c.005.123-.239.245-.484.245z" transform="translate(-3.649 -19.155)"/>
                                <path id="Path_587" data-name="Path 587" class="cls-16" d="M22.252 24.114a1.768 1.768 0 0 1-.245.856 1.426 1.426 0 0 1-.856.245h-3.182l.245.245c.122.122.245.122.367.245.122 0 .245.122.367.122h.612c.245 0 .612-.122.979-.122a1.33 1.33 0 0 1 .612-.122 1.034 1.034 0 0 1 .734.245c.245.245.245.367.245.734v.245c0 .122-.122.245-.245.367l-.367.367a.935.935 0 0 1-.612.245c-.367.122-.734.122-.979.245h-.734a6.2 6.2 0 0 1-1.591-.245 2.539 2.539 0 0 1-1.224-.734 2.889 2.889 0 0 1-.734-1.1A4.4 4.4 0 0 1 15.4 24.6a3.62 3.62 0 0 1 .245-1.224l.734-1.1 1.1-.734a5.258 5.258 0 0 1 1.468-.245 3.453 3.453 0 0 1 1.835.489 2.491 2.491 0 0 1 .856.734 3.718 3.718 0 0 1 .612.856zm-4.16-.245h1.468v-.122c0-.367-.367-.612-.856-.612-.367.122-.489.367-.612.734z" transform="translate(-2.308 -18.731)"/>
                                <path id="Path_588" data-name="Path 588" class="cls-16" d="M20.9 20.724c0-.245.122-.367.122-.612.122-.122.245-.367.489-.489a.917.917 0 0 1 .612-.122H26.9a1.1 1.1 0 0 1 .612.122c.122.122.367.245.489.489a1.314 1.314 0 0 1-.245 1.468 1.111 1.111 0 0 1-.856.367h-.979v5.017a1.739 1.739 0 0 1-.245.734.955.955 0 0 1-.489.489 1.739 1.739 0 0 1-.734.245 1.739 1.739 0 0 1-.734-.245.955.955 0 0 1-.489-.489 1.739 1.739 0 0 1-.245-.734v-5.017H22a1.111 1.111 0 0 1-.857-.367 1.768 1.768 0 0 1-.243-.856z" transform="translate(-1.078 -19.133)"/>
                                <path id="Path_589" data-name="Path 589" class="cls-16" d="M27.256 26.419a5.32 5.32 0 0 1-.489-.856 2.268 2.268 0 0 1-.245-.856c0-.245-.122-.612-.122-.856a2.082 2.082 0 0 1 .122-.856 2.268 2.268 0 0 1 .245-.856 3.067 3.067 0 0 1 .489-.856 7.916 7.916 0 0 1 .979-1.1 13.346 13.346 0 0 1 1.346-.734 6.141 6.141 0 0 1 1.469-.249 3.387 3.387 0 0 1 1.1.122l1.1.367a4.292 4.292 0 0 1 .979.612 5.322 5.322 0 0 1 .734.856 4.614 4.614 0 0 1 .856 2.569 5.2 5.2 0 0 1-.245 1.346 5.715 5.715 0 0 1-.612 1.224c-.245.245-.489.612-.734.857a3.719 3.719 0 0 1-.856.612c-.367.122-.612.245-.979.367a3.388 3.388 0 0 1-1.1.122 6.142 6.142 0 0 1-1.468-.245 3.676 3.676 0 0 1-1.346-.734 1.331 1.331 0 0 1-1.223-.856zm1.958-2.447a3.573 3.573 0 0 0 .245 1.1 1.253 1.253 0 0 0 .612.734 2.305 2.305 0 0 0 .979.245h.367c.245 0 .367-.122.612-.245.122-.122.367-.245.489-.489a2.675 2.675 0 0 0 .367-.612 1.552 1.552 0 0 0 .122-.734V23.6a1.111 1.111 0 0 0-.367-.856 1.474 1.474 0 0 0-.612-.612 1.768 1.768 0 0 0-.856-.245 2.88 2.88 0 0 0-.979.245 1.253 1.253 0 0 0-.612.734 1.348 1.348 0 0 0-.367 1.106z" transform="translate(.151 -19.2)"/>
                                <path id="Path_590" data-name="Path 590" class="cls-16" d="M34.412 19.745a1.032 1.032 0 0 1 .857-.245 1.489 1.489 0 0 1 1.224.734l1.346 1.713 1.346-1.713a1.489 1.489 0 0 1 1.224-.734 3.113 3.113 0 0 1 .857.245 1.689 1.689 0 0 1 .367.489 1.739 1.739 0 0 1 .245.734 1.034 1.034 0 0 1-.245.734l-2.325 2.569v2.814a1.389 1.389 0 0 1-.367.979 1.51 1.51 0 0 1-.979.489 1.113 1.113 0 0 1-.979-.489 1.389 1.389 0 0 1-.367-.979v-2.813L34.045 21.7a.9.9 0 0 1-.245-.734 1.739 1.739 0 0 1 .245-.734 1.689 1.689 0 0 1 .367-.487z" transform="translate(1.806 -19.133)"/>
                                <path id="Path_591" data-name="Path 591" class="cls-16" d="M5.434 34.786a2.669 2.669 0 0 1-.612-.489.917.917 0 0 1-.122-.612 5.3 5.3 0 0 1 .122-.612.885.885 0 0 1 .734-.489h.367l.489.122.489.122.367.122h1.1a.427.427 0 0 0 .245-.122c.122 0 .122-.122.122-.245s0-.122-.122-.245h-.12l-.245-.122h-.856l-.734-.245a2.459 2.459 0 0 1-.979-.489l-.734-.734a2.305 2.305 0 0 1-.245-.979 2.082 2.082 0 0 1 .122-.856c.245-.245.367-.612.612-.734a1.931 1.931 0 0 1 .979-.612c.367-.122.856-.245 1.224-.367h.612a4.162 4.162 0 0 1 1.224.122 8.431 8.431 0 0 1 .979.367.673.673 0 0 1 .367.612v.367a1.1 1.1 0 0 1-.122.612l-.367.367c-.122.122-.245.122-.489.122a1.819 1.819 0 0 1-.734-.122h-.125l-.367-.247h-.122l-.367-.122h-.489c-.245 0-.367 0-.367.122-.122 0-.122.122-.122.245a.12.12 0 0 0 .122.122.12.12 0 0 1 .122.122H8l.367.122.734.245a8.431 8.431 0 0 1 .979.367 1.689 1.689 0 0 1 .489.367 1.689 1.689 0 0 1 .367.489c.122 0 .245.245.245.367 0 .245.122.367.122.612a2.577 2.577 0 0 1-.612 1.591 3.511 3.511 0 0 1-2.814 1.1h-.485a3.956 3.956 0 0 1-1.958-.363z" transform="translate(-4.7 -17.411)"/>
                                <path id="Path_592" data-name="Path 592" class="cls-16" d="m10.934 33.44-.367-.734a1.739 1.739 0 0 1-.245-.734c0-.245-.122-.489-.122-.734a1.552 1.552 0 0 1 .122-.734 1.739 1.739 0 0 1 .245-.734l.367-.734a3.724 3.724 0 0 1 .979-.979 3.827 3.827 0 0 1 1.224-.612 5.2 5.2 0 0 1 1.346-.245 2.385 2.385 0 0 1 .979.122c.367.122.612.245.979.367a2.195 2.195 0 0 1 .856.612 3.244 3.244 0 0 1 .612.734 4.028 4.028 0 0 1 .734 2.325 4.347 4.347 0 0 1-.245 1.224c-.122.367-.367.734-.489 1.1a4.153 4.153 0 0 1-.734.734 5.18 5.18 0 0 1-.856.612 8.431 8.431 0 0 1-.979.367 3.041 3.041 0 0 1-.979.122 5.2 5.2 0 0 1-1.346-.245 3.827 3.827 0 0 1-1.224-.612 10.584 10.584 0 0 0-.857-1.222zm1.835-2.325a2.305 2.305 0 0 0 .245.979 1.474 1.474 0 0 0 .612.612 1.768 1.768 0 0 0 .856.245h.367c.245 0 .367-.122.612-.245.122-.122.367-.245.489-.367a.928.928 0 0 0 .245-.489 1.1 1.1 0 0 0 .122-.612v-.367a1.111 1.111 0 0 0-.367-.856 1.222 1.222 0 0 0-.612-.489 1.739 1.739 0 0 0-.734-.245 1.768 1.768 0 0 0-.856.245 1.474 1.474 0 0 0-.612.612 1.116 1.116 0 0 0-.367.977z" transform="translate(-3.47 -17.411)"/>
                                <path id="Path_593" data-name="Path 593" class="cls-16" d="M20.581 35.2a4.383 4.383 0 0 1-1.346-.489 6.787 6.787 0 0 1-.979-.734 3.208 3.208 0 0 1-.612-1.1 4.4 4.4 0 0 1-.245-1.346v-3.185a1.627 1.627 0 0 1 .367-.979 1.322 1.322 0 0 1 .858-.367 1.111 1.111 0 0 1 .856.367 1.389 1.389 0 0 1 .367.979v3.3a.917.917 0 0 0 .122.612 1.689 1.689 0 0 0 .367.489.935.935 0 0 0 .612.245h.489a.935.935 0 0 0 .612-.245 1.689 1.689 0 0 0 .367-.489 1.1 1.1 0 0 0 .122-.612v-3.3a1.627 1.627 0 0 1 .367-.979 1.183 1.183 0 0 1 1.713 0c.122.122.245.245.245.367a.736.736 0 0 1 .122.489V31.4a4.4 4.4 0 0 1-.245 1.346 4.96 4.96 0 0 1-.612 1.1 1.9 1.9 0 0 1-.979.734 4.383 4.383 0 0 1-1.346.489h-.734c.002.251-.243.131-.488.131z" transform="translate(-1.861 -17.456)"/>
                                <path id="Path_594" data-name="Path 594" class="cls-16" d="M25.424 35.276a1.111 1.111 0 0 1-.856-.367 1.322 1.322 0 0 1-.367-.856v-5.507a1.552 1.552 0 0 1 .122-.734.955.955 0 0 1 .489-.489 1.325 1.325 0 0 1 .734-.122h2.447a4.4 4.4 0 0 1 1.346.245 1.9 1.9 0 0 1 .979.734 2.306 2.306 0 0 1 .489 1.1c0 .245.122.489.122.734a2.053 2.053 0 0 1-.734 1.713l-.489.122-.122.122.979 1.224a1.768 1.768 0 0 1 .245.856 1.1 1.1 0 0 1-.122.612c-.122.122-.245.367-.367.489a1.739 1.739 0 0 1-.734.245 1.489 1.489 0 0 1-1.224-.734l-1.591-2.447v1.835a.917.917 0 0 1-.122.612.955.955 0 0 1-.489.489c-.246.001-.491.124-.735.124zm1.224-4.894h1.1a.491.491 0 1 0 0-.979h-1.1z" transform="translate(-.34 -17.411)"/>
                                <path id="Path_595" data-name="Path 595" class="cls-16" d="M30.656 33.607a5.715 5.715 0 0 1-.612-1.224 5.2 5.2 0 0 1-.245-1.346 4.347 4.347 0 0 1 .245-1.224 3.26 3.26 0 0 1 .734-1.224 3.974 3.974 0 0 1 2.692-1.468c.245 0 .612-.122.856-.122a3.388 3.388 0 0 1 1.1.122 1.992 1.992 0 0 1 .734.367.955.955 0 0 1 .489.489.917.917 0 0 1 .122.612.935.935 0 0 1-.245.612l-.367.367c-.122 0-.245.122-.489.122h-.367a1.739 1.739 0 0 1-.734-.245 5.3 5.3 0 0 0-.612-.122 1.974 1.974 0 0 0-1.1.367 2.366 2.366 0 0 0-.612 1.1v.734a1.312 1.312 0 0 0 .245.734c.122.245.367.367.489.489a1.552 1.552 0 0 0 .734.122 5.385 5.385 0 0 0 1.224-.245h.489a1.111 1.111 0 0 1 .856.367 1.739 1.739 0 0 1 .245.734 1.739 1.739 0 0 1-.245.734 2.822 2.822 0 0 1-1.1.734 4.4 4.4 0 0 1-1.346.245 2.389 2.389 0 0 1-.856-.122 8.514 8.514 0 0 1-1.713-.979c-.243-.237-.488-.363-.611-.73z" transform="translate(.912 -17.456)"/>
                                <path id="Path_596" data-name="Path 596" class="cls-16" d="M35.922 34.3a.736.736 0 0 1-.122-.489v-5.387a.917.917 0 0 1 .122-.612.955.955 0 0 1 .489-.489 1.1 1.1 0 0 1 .612-.122h3.059a.736.736 0 0 1 .489.122l.367.367a.917.917 0 0 1 .122.612 1.1 1.1 0 0 1-.122.612c-.122.122-.245.367-.367.367a.736.736 0 0 1-.489.122h-1.713v.612h1.468a.925.925 0 0 1 .489.122c.122.122.245.122.367.245s.245.245.245.367.122.245.122.367a.872.872 0 0 1-.367.734 1.111 1.111 0 0 1-.857.367h-1.467v.734h1.713a1.111 1.111 0 0 1 .856.367c.122.122.245.245.245.367s.122.245.122.367a.872.872 0 0 1-.367.734 1.111 1.111 0 0 1-.856.367h-2.936a1.739 1.739 0 0 1-.734-.245 2.669 2.669 0 0 1-.49-.608z" transform="translate(2.253 -17.411)"/>
                            </g>
                        </g>
                    </g>
                </g>
            </g>
        </g>
        <g id="Layer_3" transform="translate(.847 7.684)">
            <g id="Group_1257" data-name="Group 1257">
                <path id="Path_597" data-name="Path 597" d="M1.545 28.889a1.709 1.709 0 0 1 .979-.489l.612 3.059L1.3 30.358V29.5z" transform="translate(-.745 -3.053)" style="fill:url(#linear-gradient-14)"/>
                <path id="Path_598" data-name="Path 598" d="M43.835 28.912a2.732 2.732 0 0 0-1.224-.612L42 31.481l2.08-1.1v-.857z" transform="translate(8.354 -3.075)" style="fill:url(#linear-gradient-15)"/>
                <g id="Group_1248" data-name="Group 1248" transform="translate(1.533)">
                    <path id="Path_599" data-name="Path 599" d="M51.532 35.356a3.388 3.388 0 0 0 .122-1.1 3.388 3.388 0 0 0-.122-1.1 3.908 3.908 0 0 0 .367-1.713 4.125 4.125 0 0 0-.612-2.08 4.218 4.218 0 0 0-1.468-1.468c-.122-.122-.245-.122-.367-.245v-.734l1.468-1.591a3.876 3.876 0 0 0 1.1-2.814 4.579 4.579 0 0 0-.612-2.2c-.122-.122-.122-.245-.245-.489a11.841 11.841 0 0 0-2.2-3.181v-.245l.122-.245.122.122.122-.367c.122-.122-.122-.245-.122-.245l-.367-.245 2.447-5.506a.779.779 0 0 0-.979-.489l-2.447 5.506-.245-.122h-.245l-.122.245.122.122.122.245-.856-.979A5.242 5.242 0 0 1 47 13.21a4.209 4.209 0 0 0-.122-2.2 1.186 1.186 0 0 0-.979-.856 1.868 1.868 0 0 0-1.958.734 2.639 2.639 0 0 0-.489 1.713 6.253 6.253 0 0 0 .489 2.2l-.367.367c-.367.245-1.468.489-1.713.734s.122.489.122.489a5.041 5.041 0 0 1-1.1.245c-.367 0-.367.612-.612.856a.12.12 0 0 1-.122.122V16.269h-.122v-.122a.12.12 0 0 1 .122-.122V15.9a.12.12 0 0 1-.122-.122c0-.122 0-.122.122-.122v-.122a.122.122 0 0 1 0-.245v.122a.122.122 0 0 1 0-.245v-.122a.122.122 0 0 1 0-.245v-.122a.122.122 0 0 1 0-.245v-.122a.122.122 0 0 1 0-.245v.122a.122.122 0 0 1 0-.245c0-.122-.122-.367-.245-.367v-1.956a.245.245 0 0 0-.489 0v1.958c-.122.122-.245.245-.245.367a.122.122 0 0 1 0 .245v.122a.122.122 0 0 1 0 .245v.122a.122.122 0 0 1 0 .245v.122a.122.122 0 0 1 0 .245v.122a.12.12 0 0 1 .122.122h-.612l-.122-.612h-.612v-.245H36.6l-.245-.489h-.367v.367h-.979v-.122l.245-.245v-1.1l-.245-.367.122-2.2a.24.24 0 0 0-.245-.245v-.245a.263.263 0 0 0-.245-.245c-.122 0-.245.245-.245.245l-.122 1.591h-.122a1.178 1.178 0 0 0-1.224-.856.612.612 0 0 0-.979 0s-.734-.122-1.224.856h-.122l-.122-1.591s-.122-.245-.245-.245a.263.263 0 0 0-.245.245v.369a.24.24 0 0 0-.245.245l.122 2.2-.245.367v.979l.245.245v.122H28.9v-.367h-.367l.367.245h-1.227v.245h-.612l-.122.612h-.612a.12.12 0 0 1 .122-.122v-.122a.122.122 0 0 1 0-.245v-.122a.122.122 0 0 1 0-.245v-.122a.122.122 0 0 1 0-.245v.122a.122.122 0 0 1 0-.245c0-.122-.122-.367-.245-.367v-1.961a.245.245 0 1 0-.489 0v1.958c-.122.122-.245.245-.245.367a.122.122 0 1 1 0 .245v.122a.122.122 0 1 1 0 .245v.122a.122.122 0 1 1 0 .245v.122a.122.122 0 1 1 0 .245v.122a.122.122 0 1 1 0 .245v.122a.122.122 0 1 1 0 .245v.122a.12.12 0 0 1 .122.122c0 .122 0 .122-.122.122v.122a.12.12 0 0 1 .122.122h-.122V17v-.367.612a14.493 14.493 0 0 0-.979-1.468c-.245-.245-.122-.979-1.1-.979v-.734s.122-.245-.245-.245h-.489s-.245 0-.245.367v.614l-.979 1.224-.612-.245.122-1.1-.612-.367v-.856a.532.532 0 0 0 0-.856l2.569-2.327s.367-.367-.245-.122l-2.814 1.835-.122-.734.245-.856s.122-.367-.245 0l-.245.612-.245-.122-.122-.245-.612-.122-.612.122v.245l-.245.122-.245-.612c-.245-.245-.245 0-.245 0l.245.856-.122.734-2.814-1.835c-.612-.122-.245.122-.245.122l2.571 2.327a.532.532 0 0 0 0 .856v.856l-.245.245.122 1.1-.612.245-.979-1.224v-.612c0-.367-.245-.367-.245-.367h-.489c-.367 0-.245.245-.245.245v.734c-1.1 0-.856.734-1.1.979-.122.122-.489.856-.856 1.468a12.875 12.875 0 0 0-1.224-1.1 6.652 6.652 0 0 0 .979-.489c.245-.245.122-.734 0-1.1-.122-.245-.489-1.224-.489-1.224a2.778 2.778 0 0 0-.122-1.346 1.941 1.941 0 0 0-1.591-1.346.339.339 0 0 0-.489 0c-1.346.122-1.468 1.713-1.468 1.713a13.77 13.77 0 0 0-.856 1.835 1.139 1.139 0 0 0 0 .734 2.51 2.51 0 0 1-.612-1.468c.489-.367-.122-2.08-.122-2.08l.489-.734c.245-.245.367 0 .489-.245.245-.245.122-.489-.245-.489a1.046 1.046 0 0 0-.734.367 2.067 2.067 0 0 1-.612-.245 2.2 2.2 0 0 1-.489-1.1c0-.245 0-.979-.245-1.1s-.367.367-.245.734c0 .367 0 .856-.122.856s-.245-.245-.245-.367c.367-.489 0-.856-.367-.367-.245.367-.367.489.122.979 0 0-.367-.122-.489.122s.245.489.245.489c-.122-.122-.612 0-.245.489a1.79 1.79 0 0 1 .367.612 21.572 21.572 0 0 0-.245 2.325c0 .122.367.489.367.489a26 26 0 0 0 .734 3.426 4.8 4.8 0 0 1-.489 2.2 4.523 4.523 0 0 0-.612 1.346h-.123A4.17 4.17 0 0 0 2.1 24.1a3.8 3.8 0 0 0 1.224 2.937v1.224a2.694 2.694 0 0 0 .122.979 6.937 6.937 0 0 0-.979 1.591 5.542 5.542 0 0 0-.367 1.956 5.072 5.072 0 0 0 .367 1.958 3.908 3.908 0 0 0-.367 1.712v.122a4.225 4.225 0 0 0 .612 2.2A3.855 3.855 0 0 0 4.425 40.5a6.582 6.582 0 0 0 3.3.856h.615a6.777 6.777 0 0 0 3.915-1.1 3.792 3.792 0 0 0 1.591.734 6.875 6.875 0 0 0 4.16.122A6.146 6.146 0 0 0 19.6 40.5a2.56 2.56 0 0 0 .734-.489 5.32 5.32 0 0 0 .856.489 7.382 7.382 0 0 0 2.325.734 3.772 3.772 0 0 0 1.224.122 3.772 3.772 0 0 0 1.224-.122 10.335 10.335 0 0 0 2.08-.612 4.028 4.028 0 0 0 2.325.734h.122a4.323 4.323 0 0 0 2.08-.489 4.022 4.022 0 0 0 2.08.489 4.412 4.412 0 0 0 2.447-.734 5.868 5.868 0 0 0 2.08.612 6.552 6.552 0 0 0 3.793-.367h.122a4.91 4.91 0 0 0 1.835.367h2.937a4.385 4.385 0 0 0 2.937-1.1l.122-.122a4.17 4.17 0 0 0 1.346-3.059 3.387 3.387 0 0 0-.367-1.591c-.37.116-.37.116-.37-.006z" transform="translate(-2.1 -7.684)" style="fill:url(#linear-gradient-16)"/>
                    <path id="Path_600" data-name="Path 600" class="cls-2" d="M49.94 33.4a4.347 4.347 0 0 0 .245-1.224 3.573 3.573 0 0 0-.245-1.1v-.122l.122-.122a3.258 3.258 0 0 0 .367-1.468 2.906 2.906 0 0 0-.367-1.468 2.4 2.4 0 0 0-1.1-1.1 1.627 1.627 0 0 0-.979-.367v-2.2l1.835-1.958a3 3 0 0 0 .734-1.958 2.459 2.459 0 0 0-.489-1.591 3.3 3.3 0 0 0-.857-.979 2.878 2.878 0 0 0-1.958-.612 3.346 3.346 0 0 0-2.569 1.224 3.113 3.113 0 0 0-2.569-1.224 3.7 3.7 0 0 0-1.958.612l-.367.367a.928.928 0 0 0-.489-.245 7.485 7.485 0 0 0-1.468-.612 7.468 7.468 0 0 0-3.671.122 6.558 6.558 0 0 0-1.346.612c-.122-.122-.367-.245-.489-.367a3.47 3.47 0 0 0-1.591-.489h-4.773a2.906 2.906 0 0 0-1.468.367 2.4 2.4 0 0 0-1.1 1.1 5.965 5.965 0 0 0-.367.857 6.142 6.142 0 0 0-1.468-.245 5.716 5.716 0 0 0-2.08.367 13.347 13.347 0 0 0-1.346.734 5.053 5.053 0 0 0-1.346-.857 3.358 3.358 0 0 0-1.591-.245c-.122-.245-.122-.367-.245-.612a2.4 2.4 0 0 0-1.1-1.1A3.987 3.987 0 0 0 12.254 17a2.459 2.459 0 0 0-1.591.489 1.222 1.222 0 0 0-.612.489A3.064 3.064 0 0 0 7.85 17a3.064 3.064 0 0 0-2.2.979 2.851 2.851 0 0 0-.856 1.835c-.122.122-.245.122-.367.245a3.064 3.064 0 0 0-.979 2.2 2.866 2.866 0 0 0 .856 2.08c-.122 0 0 .122.122.245V26.3a3.62 3.62 0 0 0 .245 1.224l-.371.366a5.052 5.052 0 0 0-.856 1.346 3.358 3.358 0 0 0-.244 1.59 3.186 3.186 0 0 0 .489 1.835l.122.122-.122.122A3.47 3.47 0 0 0 3.2 34.5v.122a3.387 3.387 0 0 0 .367 1.591 2.188 2.188 0 0 0 1.224 1.1 7.806 7.806 0 0 0 2.814.734h.612a5.531 5.531 0 0 0 3.915-1.468l.245.245a4.52 4.52 0 0 0 1.713.856 5.072 5.072 0 0 0 1.958.367 6.141 6.141 0 0 0 1.468-.245 4.383 4.383 0 0 0 1.346-.489 7.428 7.428 0 0 0 1.224-.856l.122-.122a5.433 5.433 0 0 0 1.346.979 9.169 9.169 0 0 0 1.958.612c.245 0 .612.122.979.122a2.385 2.385 0 0 0 .979-.122 9.169 9.169 0 0 0 1.958-.612c.122-.122.367-.122.489-.245a3.064 3.064 0 0 0 2.2.979 2.459 2.459 0 0 0 1.591-.489 1.689 1.689 0 0 1 .489-.367 3.3 3.3 0 0 0 2.08.734 3.641 3.641 0 0 0 1.835-.612.955.955 0 0 0 .489-.489 7.328 7.328 0 0 0 2.447.979c.367 0 .734.122 1.1.122a4.659 4.659 0 0 0 1.958-.367 2.067 2.067 0 0 1 .612-.245 2.924 2.924 0 0 0 1.713.612h2.937a2.866 2.866 0 0 0 2.08-.856 2.866 2.866 0 0 0 .856-2.08 3.573 3.573 0 0 0-.245-1.1c.126-.127.004-.372-.119-.49z" transform="translate(-1.854 -5.602)"/>
                    <g id="Group_1247" data-name="Group 1247" transform="translate(3.181 12.867)">
                        <g id="Group_1244" data-name="Group 1244">
                            <g id="Group_1243" data-name="Group 1243">
                                <path id="Path_601" data-name="Path 601" d="M5.067 20.992a1.111 1.111 0 0 1 .856-.367h.122v-.979a1.389 1.389 0 0 1 .367-.979 1.389 1.389 0 0 1 .979-.367 1.389 1.389 0 0 1 .979.367 2.323 2.323 0 0 1 .367 1.1v.856h.123a.74.74 0 0 1 .734.367 1.111 1.111 0 0 1 .367.856v.245c0 .122 0 .122-.122.245 0 .122-.122.122-.122.245a1.111 1.111 0 0 1-.856.367h-.123v3.059a1.389 1.389 0 0 1-.367.979 1.389 1.389 0 0 1-.979.367 1.389 1.389 0 0 1-.979-.367 1.389 1.389 0 0 1-.367-.979V22.95h-.122a1.111 1.111 0 0 1-.856-.367 1.058 1.058 0 0 1-.367-.734 1.111 1.111 0 0 1 .366-.857z" transform="translate(-4.7 -18.178)" style="fill:url(#linear-gradient-17)"/>
                                <path id="Path_602" data-name="Path 602" d="M10.746 27.354A1.263 1.263 0 0 1 9.4 26.008v-6.362a.917.917 0 0 1 .122-.612.955.955 0 0 1 .489-.489 1.739 1.739 0 0 1 .734-.245 1.552 1.552 0 0 1 .734.122.955.955 0 0 1 .489.489 1.552 1.552 0 0 1 .122.734v1.224c.122-.122.245-.122.489-.245a4.347 4.347 0 0 1 1.221-.244 2.385 2.385 0 0 1 .979.122 2.249 2.249 0 0 1 1.224 1.224 2.385 2.385 0 0 1 .122.979v3.181a1.347 1.347 0 1 1-2.692 0v-2.569a.928.928 0 0 0-.245-.489.737.737 0 0 0-1.224.489v2.569a1.739 1.739 0 0 1-.245.734.955.955 0 0 1-.489.489c.005.245-.239.245-.484.245z" transform="translate(-3.649 -18.178)" style="fill:url(#linear-gradient-18)"/>
                                <path id="Path_603" data-name="Path 603" d="M22.352 23.114a1.768 1.768 0 0 1-.245.857 1.426 1.426 0 0 1-.856.245h-3.182l.245.245c.122.122.245.122.367.245.122 0 .245.122.367.122h.612c.245 0 .612-.122.979-.122a1.33 1.33 0 0 1 .612-.122 1.034 1.034 0 0 1 .734.245c.245.245.245.367.245.734v.245c0 .122-.122.245-.245.367l-.367.367a.935.935 0 0 1-.612.245c-.367.122-.734.122-.979.245h-.734a6.2 6.2 0 0 1-1.591-.245 2.539 2.539 0 0 1-1.224-.734 2.889 2.889 0 0 1-.734-1.1A4.4 4.4 0 0 1 15.5 23.6a3.62 3.62 0 0 1 .245-1.224l.734-1.1 1.1-.734a5.258 5.258 0 0 1 1.468-.245 3.453 3.453 0 0 1 1.835.489 2.491 2.491 0 0 1 .856.734 3.718 3.718 0 0 1 .612.856.77.77 0 0 0 .002.738zm-4.282-.245h1.468v-.122c0-.367-.367-.612-.856-.612a1.253 1.253 0 0 0-.612.734z" transform="translate(-2.285 -17.731)" style="fill:url(#linear-gradient-19)"/>
                                <path id="Path_604" data-name="Path 604" d="M20.9 19.724c0-.245.122-.367.122-.612.122-.122.245-.367.489-.489a.917.917 0 0 1 .612-.122H26.9a1.1 1.1 0 0 1 .612.122c.122.122.367.245.489.489a1.314 1.314 0 0 1-.245 1.468 1.111 1.111 0 0 1-.856.367h-.979v5.017a1.739 1.739 0 0 1-.245.734.955.955 0 0 1-.489.489 1.739 1.739 0 0 1-.734.245 1.739 1.739 0 0 1-.734-.245.955.955 0 0 1-.489-.489 1.739 1.739 0 0 1-.245-.734v-5.017H22a1.111 1.111 0 0 1-.857-.367 2.269 2.269 0 0 1-.243-.856z" transform="translate(-1.078 -18.133)" style="fill:url(#linear-gradient-20)"/>
                                <path id="Path_605" data-name="Path 605" d="M27.256 25.419a5.32 5.32 0 0 1-.489-.857 2.268 2.268 0 0 1-.245-.856c0-.245-.122-.612-.122-.856a2.082 2.082 0 0 1 .122-.857 2.268 2.268 0 0 1 .245-.856 3.067 3.067 0 0 1 .489-.857 7.916 7.916 0 0 1 .979-1.1 13.347 13.347 0 0 1 1.346-.734 6.142 6.142 0 0 1 1.469-.246 3.387 3.387 0 0 1 1.1.122l1.1.367a4.292 4.292 0 0 1 .979.612 5.322 5.322 0 0 1 .734.856 4.614 4.614 0 0 1 .856 2.569 5.2 5.2 0 0 1-.245 1.346 5.715 5.715 0 0 1-.612 1.224c-.245.245-.489.612-.734.856a3.718 3.718 0 0 1-.856.612c-.367.122-.612.245-.979.367a3.387 3.387 0 0 1-1.1.122 6.142 6.142 0 0 1-1.468-.245 3.676 3.676 0 0 1-1.346-.734 1.331 1.331 0 0 1-1.223-.855zm1.958-2.447a3.573 3.573 0 0 0 .245 1.1 1.253 1.253 0 0 0 .612.734 2.305 2.305 0 0 0 .979.245h.367c.245 0 .367-.122.612-.245.122-.122.367-.245.489-.489a2.675 2.675 0 0 0 .367-.612 1.552 1.552 0 0 0 .122-.734V22.6a1.111 1.111 0 0 0-.367-.856 1.474 1.474 0 0 0-.612-.612 1.768 1.768 0 0 0-.856-.245 2.88 2.88 0 0 0-.979.245 1.253 1.253 0 0 0-.612.734 1.974 1.974 0 0 0-.367 1.106z" transform="translate(.151 -18.2)" style="fill:url(#linear-gradient-21)"/>
                                <path id="Path_606" data-name="Path 606" d="M34.367 18.745a1.032 1.032 0 0 1 .857-.245 1.489 1.489 0 0 1 1.224.734l1.346 1.713 1.346-1.713a1.489 1.489 0 0 1 1.224-.734 3.113 3.113 0 0 1 .857.245 1.689 1.689 0 0 1 .367.489 1.739 1.739 0 0 1 .245.734 1.034 1.034 0 0 1-.245.734l-2.325 2.569v2.814a1.389 1.389 0 0 1-.367.979 1.51 1.51 0 0 1-.979.489 1.113 1.113 0 0 1-.979-.489 1.389 1.389 0 0 1-.367-.979v-2.813L34.245 20.7a.9.9 0 0 1-.245-.732 1.739 1.739 0 0 1 .245-.734c-.123-.245 0-.489.122-.489z" transform="translate(1.851 -18.133)" style="fill:url(#linear-gradient-22)"/>
                                <path id="Path_607" data-name="Path 607" d="M5.434 33.786a2.669 2.669 0 0 1-.612-.489.917.917 0 0 1-.122-.612 5.3 5.3 0 0 1 .122-.612.885.885 0 0 1 .734-.489h.367l.489.122.489.122.367.122h1.1a.427.427 0 0 0 .245-.122c.122 0 .122-.122.122-.245s0-.122-.122-.245h-.12l-.245-.122h-.122l-.612-.122h-.122l-.612-.244a2.924 2.924 0 0 1-1.1-.367l-.734-.734a2.305 2.305 0 0 1-.245-.979 2.082 2.082 0 0 1 .122-.857 2.56 2.56 0 0 1 .489-.734 1.931 1.931 0 0 1 .979-.612c.367-.122.856-.245 1.224-.367h.612a4.162 4.162 0 0 1 1.224.122 8.431 8.431 0 0 1 .979.367.673.673 0 0 1 .367.612v.367a1.1 1.1 0 0 1-.122.612l-.367.367c-.122.122-.245.122-.489.122a1.819 1.819 0 0 1-.734-.122H8.86l-.245-.247h-.122l-.367-.122h-.489c-.245 0-.367 0-.367.122-.122 0-.122.122-.122.245a.12.12 0 0 0 .122.122.12.12 0 0 1 .122.122H8l.367.122.734.245a8.43 8.43 0 0 1 .979.367 1.689 1.689 0 0 1 .489.367 1.689 1.689 0 0 1 .367.489c.122 0 .245.245.245.367 0 .245.122.367.122.612a2.577 2.577 0 0 1-.612 1.591 3.511 3.511 0 0 1-2.814 1.1h-.485a4.29 4.29 0 0 1-1.958-.363z" transform="translate(-4.7 -16.411)" style="fill:url(#linear-gradient-23)"/>
                                <path id="Path_608" data-name="Path 608" d="m10.934 32.44-.367-.734a1.739 1.739 0 0 1-.245-.734c0-.245-.122-.489-.122-.734a1.552 1.552 0 0 1 .122-.734 1.739 1.739 0 0 1 .245-.734l.367-.734a3.724 3.724 0 0 1 .979-.979 3.827 3.827 0 0 1 1.224-.612 5.2 5.2 0 0 1 1.346-.245 2.385 2.385 0 0 1 .979.122c.367.122.612.245.979.367a2.195 2.195 0 0 1 .856.612 3.244 3.244 0 0 1 .612.734 4.028 4.028 0 0 1 .734 2.325 4.347 4.347 0 0 1-.245 1.224c-.122.367-.367.734-.489 1.1a4.153 4.153 0 0 1-.734.734 5.18 5.18 0 0 1-.856.612 8.43 8.43 0 0 1-.979.367 3.041 3.041 0 0 1-.979.122 5.2 5.2 0 0 1-1.346-.245 3.827 3.827 0 0 1-1.224-.612 5.272 5.272 0 0 0-.857-1.222zm1.835-2.325a2.305 2.305 0 0 0 .245.979 1.474 1.474 0 0 0 .612.612 1.768 1.768 0 0 0 .856.245h.367c.245 0 .367-.122.612-.245.122-.122.367-.245.489-.367a.928.928 0 0 0 .245-.489 1.1 1.1 0 0 0 .122-.612v-.367a1.111 1.111 0 0 0-.367-.857 1.222 1.222 0 0 0-.612-.489 1.739 1.739 0 0 0-.734-.245 1.768 1.768 0 0 0-.856.245 1.474 1.474 0 0 0-.612.612 1.116 1.116 0 0 0-.367.978z" transform="translate(-3.47 -16.411)" style="fill:url(#linear-gradient-24)"/>
                                <path id="Path_609" data-name="Path 609" d="M20.581 34.2a4.383 4.383 0 0 1-1.346-.489 6.787 6.787 0 0 1-.979-.734 3.208 3.208 0 0 1-.612-1.1 4.4 4.4 0 0 1-.245-1.346v-3.185a1.627 1.627 0 0 1 .367-.979 1.322 1.322 0 0 1 .858-.367 1.111 1.111 0 0 1 .856.367 1.389 1.389 0 0 1 .367.979v3.3a.917.917 0 0 0 .122.612 1.689 1.689 0 0 0 .367.489.935.935 0 0 0 .612.245h.489a.935.935 0 0 0 .612-.245 1.689 1.689 0 0 0 .367-.489 1.1 1.1 0 0 0 .122-.612v-3.3a1.627 1.627 0 0 1 .367-.979 1.183 1.183 0 0 1 1.713 0c.122.122.245.245.245.367a.736.736 0 0 1 .122.489V30.4a4.4 4.4 0 0 1-.245 1.346 4.959 4.959 0 0 1-.612 1.1 1.9 1.9 0 0 1-.979.734 4.383 4.383 0 0 1-1.346.489h-.734c.002.131-.243.131-.488.131z" transform="translate(-1.861 -16.456)" style="fill:url(#linear-gradient-25)"/>
                                <path id="Path_610" data-name="Path 610" d="M25.424 34.276a1.111 1.111 0 0 1-.856-.367 1.322 1.322 0 0 1-.367-.856v-5.507a1.552 1.552 0 0 1 .122-.734.955.955 0 0 1 .489-.489 1.325 1.325 0 0 1 .734-.122h2.447a4.4 4.4 0 0 1 1.346.245 1.9 1.9 0 0 1 .979.734 2.306 2.306 0 0 1 .489 1.1c0 .245.122.489.122.734a2.053 2.053 0 0 1-.734 1.713l-.489.122-.122.122.979 1.224a1.768 1.768 0 0 1 .245.856 1.1 1.1 0 0 1-.122.612c-.122.122-.245.367-.367.489a1.739 1.739 0 0 1-.734.245 1.489 1.489 0 0 1-1.224-.734l-1.591-2.447v1.835a.917.917 0 0 1-.122.612.955.955 0 0 1-.489.489c-.246.001-.491.124-.735.124zm1.346-5.017h1.1a.521.521 0 0 0 .367-.856h-1.468z" transform="translate(-.34 -16.411)" style="fill:url(#linear-gradient-26)"/>
                                <path id="Path_611" data-name="Path 611" d="M30.656 32.607a5.715 5.715 0 0 1-.612-1.224 5.2 5.2 0 0 1-.245-1.346 4.347 4.347 0 0 1 .245-1.224 3.26 3.26 0 0 1 .734-1.224 3.974 3.974 0 0 1 2.692-1.468c.245 0 .612-.122.856-.122a3.388 3.388 0 0 1 1.1.122 1.992 1.992 0 0 1 .734.367.955.955 0 0 1 .489.489.917.917 0 0 1 .122.612.935.935 0 0 1-.245.612l-.367.367c-.122 0-.245.122-.489.122h-.367a1.739 1.739 0 0 1-.734-.245 5.3 5.3 0 0 0-.612-.122 1.974 1.974 0 0 0-1.1.367 2.366 2.366 0 0 0-.612 1.1v.734a1.312 1.312 0 0 0 .245.734c.122.245.367.367.489.489a1.552 1.552 0 0 0 .734.122 5.385 5.385 0 0 0 1.224-.245h.489a1.111 1.111 0 0 1 .856.367 1.739 1.739 0 0 1 .245.734 1.739 1.739 0 0 1-.245.734 2.822 2.822 0 0 1-1.1.734 4.4 4.4 0 0 1-1.346.245 2.389 2.389 0 0 1-.856-.122c-.489-.245-1.1-.612-1.713-.979-.243-.237-.367-.485-.611-.73z" transform="translate(.912 -16.456)" style="fill:url(#linear-gradient-27)"/>
                                <path id="Path_612" data-name="Path 612" d="M36.022 33.3a.736.736 0 0 1-.122-.489v-5.387a.917.917 0 0 1 .122-.612.955.955 0 0 1 .489-.489 1.1 1.1 0 0 1 .612-.122h3.059a.736.736 0 0 1 .489.122l.367.367a.917.917 0 0 1 .122.612 1.1 1.1 0 0 1-.122.612c-.122.122-.245.367-.367.367a.736.736 0 0 1-.489.122h-1.713v.612h1.468a.925.925 0 0 1 .489.122c.122.122.245.122.367.245s.245.245.245.367.122.245.122.367a.872.872 0 0 1-.367.734 1.111 1.111 0 0 1-.856.367h-1.468v.734h1.713a1.111 1.111 0 0 1 .856.367c.122.122.245.245.245.367s.122.245.122.367a.872.872 0 0 1-.367.734 1.111 1.111 0 0 1-.856.367h-2.936a1.739 1.739 0 0 1-.734-.245.813.813 0 0 1-.49-.608z" transform="translate(2.275 -16.411)" style="fill:url(#linear-gradient-28)"/>
                            </g>
                        </g>
                        <g id="Group_1246" data-name="Group 1246" class="cls-15">
                            <g id="Group_1245" data-name="Group 1245">
                                <path id="Path_613" data-name="Path 613" class="cls-16" d="M5.067 20.992a1.111 1.111 0 0 1 .856-.367h.122v-.979a1.389 1.389 0 0 1 .367-.979 1.389 1.389 0 0 1 .979-.367 1.389 1.389 0 0 1 .979.367 2.323 2.323 0 0 1 .367 1.1v.856h.123a.74.74 0 0 1 .734.367 1.111 1.111 0 0 1 .367.856v.245c0 .122 0 .122-.122.245 0 .122-.122.122-.122.245a1.111 1.111 0 0 1-.856.367h-.123v3.059a1.389 1.389 0 0 1-.367.979 1.389 1.389 0 0 1-.979.367 1.389 1.389 0 0 1-.979-.367 1.389 1.389 0 0 1-.367-.979V22.95h-.122a1.111 1.111 0 0 1-.856-.367 1.058 1.058 0 0 1-.367-.734 1.111 1.111 0 0 1 .366-.857z" transform="translate(-4.7 -18.178)"/>
                                <path id="Path_614" data-name="Path 614" class="cls-16" d="M10.746 27.354A1.263 1.263 0 0 1 9.4 26.008v-6.362a.917.917 0 0 1 .122-.612.955.955 0 0 1 .489-.489 1.739 1.739 0 0 1 .734-.245 1.552 1.552 0 0 1 .734.122.955.955 0 0 1 .489.489 1.552 1.552 0 0 1 .122.734v1.224c.122-.122.245-.122.489-.245a4.347 4.347 0 0 1 1.221-.244 2.385 2.385 0 0 1 .979.122 2.249 2.249 0 0 1 1.224 1.224 2.385 2.385 0 0 1 .122.979v3.181a1.347 1.347 0 1 1-2.692 0v-2.569a.928.928 0 0 0-.245-.489.737.737 0 0 0-1.224.489v2.569a1.739 1.739 0 0 1-.245.734.955.955 0 0 1-.489.489c.005.245-.239.245-.484.245z" transform="translate(-3.649 -18.178)"/>
                                <path id="Path_615" data-name="Path 615" class="cls-16" d="M22.352 23.114a1.768 1.768 0 0 1-.245.857 1.426 1.426 0 0 1-.856.245h-3.182l.245.245c.122.122.245.122.367.245.122 0 .245.122.367.122h.612c.245 0 .612-.122.979-.122a1.33 1.33 0 0 1 .612-.122 1.034 1.034 0 0 1 .734.245c.245.245.245.367.245.734v.245c0 .122-.122.245-.245.367l-.367.367a.935.935 0 0 1-.612.245c-.367.122-.734.122-.979.245h-.734a6.2 6.2 0 0 1-1.591-.245 2.539 2.539 0 0 1-1.224-.734 2.889 2.889 0 0 1-.734-1.1A4.4 4.4 0 0 1 15.5 23.6a3.62 3.62 0 0 1 .245-1.224l.734-1.1 1.1-.734a5.258 5.258 0 0 1 1.468-.245 3.453 3.453 0 0 1 1.835.489 2.491 2.491 0 0 1 .856.734 3.718 3.718 0 0 1 .612.856.77.77 0 0 0 .002.738zm-4.282-.245h1.468v-.122c0-.367-.367-.612-.856-.612a1.253 1.253 0 0 0-.612.734z" transform="translate(-2.285 -17.731)"/>
                                <path id="Path_616" data-name="Path 616" class="cls-16" d="M20.9 19.724c0-.245.122-.367.122-.612.122-.122.245-.367.489-.489a.917.917 0 0 1 .612-.122H26.9a1.1 1.1 0 0 1 .612.122c.122.122.367.245.489.489a1.314 1.314 0 0 1-.245 1.468 1.111 1.111 0 0 1-.856.367h-.979v5.017a1.739 1.739 0 0 1-.245.734.955.955 0 0 1-.489.489 1.739 1.739 0 0 1-.734.245 1.739 1.739 0 0 1-.734-.245.955.955 0 0 1-.489-.489 1.739 1.739 0 0 1-.245-.734v-5.017H22a1.111 1.111 0 0 1-.857-.367 2.269 2.269 0 0 1-.243-.856z" transform="translate(-1.078 -18.133)"/>
                                <path id="Path_617" data-name="Path 617" class="cls-16" d="M27.256 25.419a5.32 5.32 0 0 1-.489-.857 2.268 2.268 0 0 1-.245-.856c0-.245-.122-.612-.122-.856a2.082 2.082 0 0 1 .122-.857 2.268 2.268 0 0 1 .245-.856 3.067 3.067 0 0 1 .489-.857 7.916 7.916 0 0 1 .979-1.1 13.347 13.347 0 0 1 1.346-.734 6.142 6.142 0 0 1 1.469-.246 3.387 3.387 0 0 1 1.1.122l1.1.367a4.292 4.292 0 0 1 .979.612 5.322 5.322 0 0 1 .734.856 4.614 4.614 0 0 1 .856 2.569 5.2 5.2 0 0 1-.245 1.346 5.715 5.715 0 0 1-.612 1.224c-.245.245-.489.612-.734.856a3.718 3.718 0 0 1-.856.612c-.367.122-.612.245-.979.367a3.387 3.387 0 0 1-1.1.122 6.142 6.142 0 0 1-1.468-.245 3.676 3.676 0 0 1-1.346-.734 1.331 1.331 0 0 1-1.223-.855zm1.958-2.447a3.573 3.573 0 0 0 .245 1.1 1.253 1.253 0 0 0 .612.734 2.305 2.305 0 0 0 .979.245h.367c.245 0 .367-.122.612-.245.122-.122.367-.245.489-.489a2.675 2.675 0 0 0 .367-.612 1.552 1.552 0 0 0 .122-.734V22.6a1.111 1.111 0 0 0-.367-.856 1.474 1.474 0 0 0-.612-.612 1.768 1.768 0 0 0-.856-.245 2.88 2.88 0 0 0-.979.245 1.253 1.253 0 0 0-.612.734 1.974 1.974 0 0 0-.367 1.106z" transform="translate(.151 -18.2)"/>
                                <path id="Path_618" data-name="Path 618" class="cls-16" d="M34.367 18.745a1.032 1.032 0 0 1 .857-.245 1.489 1.489 0 0 1 1.224.734l1.346 1.713 1.346-1.713a1.489 1.489 0 0 1 1.224-.734 3.113 3.113 0 0 1 .857.245 1.689 1.689 0 0 1 .367.489 1.739 1.739 0 0 1 .245.734 1.034 1.034 0 0 1-.245.734l-2.325 2.569v2.814a1.389 1.389 0 0 1-.367.979 1.51 1.51 0 0 1-.979.489 1.113 1.113 0 0 1-.979-.489 1.389 1.389 0 0 1-.367-.979v-2.813L34.245 20.7a.9.9 0 0 1-.245-.732 1.739 1.739 0 0 1 .245-.734c-.123-.245 0-.489.122-.489z" transform="translate(1.851 -18.133)"/>
                                <path id="Path_619" data-name="Path 619" class="cls-16" d="M5.434 33.786a2.669 2.669 0 0 1-.612-.489.917.917 0 0 1-.122-.612 5.3 5.3 0 0 1 .122-.612.885.885 0 0 1 .734-.489h.367l.489.122.489.122.367.122h1.1a.427.427 0 0 0 .245-.122c.122 0 .122-.122.122-.245s0-.122-.122-.245h-.12l-.245-.122h-.122l-.612-.122h-.122l-.612-.244a2.924 2.924 0 0 1-1.1-.367l-.734-.734a2.305 2.305 0 0 1-.245-.979 2.082 2.082 0 0 1 .122-.857 2.56 2.56 0 0 1 .489-.734 1.931 1.931 0 0 1 .979-.612c.367-.122.856-.245 1.224-.367h.612a4.162 4.162 0 0 1 1.224.122 8.431 8.431 0 0 1 .979.367.673.673 0 0 1 .367.612v.367a1.1 1.1 0 0 1-.122.612l-.367.367c-.122.122-.245.122-.489.122a1.819 1.819 0 0 1-.734-.122H8.86l-.245-.247h-.122l-.367-.122h-.489c-.245 0-.367 0-.367.122-.122 0-.122.122-.122.245a.12.12 0 0 0 .122.122.12.12 0 0 1 .122.122H8l.367.122.734.245a8.43 8.43 0 0 1 .979.367 1.689 1.689 0 0 1 .489.367 1.689 1.689 0 0 1 .367.489c.122 0 .245.245.245.367 0 .245.122.367.122.612a2.577 2.577 0 0 1-.612 1.591 3.511 3.511 0 0 1-2.814 1.1h-.485a4.29 4.29 0 0 1-1.958-.363z" transform="translate(-4.7 -16.411)"/>
                                <path id="Path_620" data-name="Path 620" class="cls-16" d="m10.934 32.44-.367-.734a1.739 1.739 0 0 1-.245-.734c0-.245-.122-.489-.122-.734a1.552 1.552 0 0 1 .122-.734 1.739 1.739 0 0 1 .245-.734l.367-.734a3.724 3.724 0 0 1 .979-.979 3.827 3.827 0 0 1 1.224-.612 5.2 5.2 0 0 1 1.346-.245 2.385 2.385 0 0 1 .979.122c.367.122.612.245.979.367a2.195 2.195 0 0 1 .856.612 3.244 3.244 0 0 1 .612.734 4.028 4.028 0 0 1 .734 2.325 4.347 4.347 0 0 1-.245 1.224c-.122.367-.367.734-.489 1.1a4.153 4.153 0 0 1-.734.734 5.18 5.18 0 0 1-.856.612 8.43 8.43 0 0 1-.979.367 3.041 3.041 0 0 1-.979.122 5.2 5.2 0 0 1-1.346-.245 3.827 3.827 0 0 1-1.224-.612 5.272 5.272 0 0 0-.857-1.222zm1.835-2.325a2.305 2.305 0 0 0 .245.979 1.474 1.474 0 0 0 .612.612 1.768 1.768 0 0 0 .856.245h.367c.245 0 .367-.122.612-.245.122-.122.367-.245.489-.367a.928.928 0 0 0 .245-.489 1.1 1.1 0 0 0 .122-.612v-.367a1.111 1.111 0 0 0-.367-.857 1.222 1.222 0 0 0-.612-.489 1.739 1.739 0 0 0-.734-.245 1.768 1.768 0 0 0-.856.245 1.474 1.474 0 0 0-.612.612 1.116 1.116 0 0 0-.367.978z" transform="translate(-3.47 -16.411)"/>
                                <path id="Path_621" data-name="Path 621" class="cls-16" d="M20.581 34.2a4.383 4.383 0 0 1-1.346-.489 6.787 6.787 0 0 1-.979-.734 3.208 3.208 0 0 1-.612-1.1 4.4 4.4 0 0 1-.245-1.346v-3.185a1.627 1.627 0 0 1 .367-.979 1.322 1.322 0 0 1 .858-.367 1.111 1.111 0 0 1 .856.367 1.389 1.389 0 0 1 .367.979v3.3a.917.917 0 0 0 .122.612 1.689 1.689 0 0 0 .367.489.935.935 0 0 0 .612.245h.489a.935.935 0 0 0 .612-.245 1.689 1.689 0 0 0 .367-.489 1.1 1.1 0 0 0 .122-.612v-3.3a1.627 1.627 0 0 1 .367-.979 1.183 1.183 0 0 1 1.713 0c.122.122.245.245.245.367a.736.736 0 0 1 .122.489V30.4a4.4 4.4 0 0 1-.245 1.346 4.959 4.959 0 0 1-.612 1.1 1.9 1.9 0 0 1-.979.734 4.383 4.383 0 0 1-1.346.489h-.734c.002.131-.243.131-.488.131z" transform="translate(-1.861 -16.456)"/>
                                <path id="Path_622" data-name="Path 622" class="cls-16" d="M25.424 34.276a1.111 1.111 0 0 1-.856-.367 1.322 1.322 0 0 1-.367-.856v-5.507a1.552 1.552 0 0 1 .122-.734.955.955 0 0 1 .489-.489 1.325 1.325 0 0 1 .734-.122h2.447a4.4 4.4 0 0 1 1.346.245 1.9 1.9 0 0 1 .979.734 2.306 2.306 0 0 1 .489 1.1c0 .245.122.489.122.734a2.053 2.053 0 0 1-.734 1.713l-.489.122-.122.122.979 1.224a1.768 1.768 0 0 1 .245.856 1.1 1.1 0 0 1-.122.612c-.122.122-.245.367-.367.489a1.739 1.739 0 0 1-.734.245 1.489 1.489 0 0 1-1.224-.734l-1.591-2.447v1.835a.917.917 0 0 1-.122.612.955.955 0 0 1-.489.489c-.246.001-.491.124-.735.124zm1.346-5.017h1.1a.521.521 0 0 0 .367-.856h-1.468z" transform="translate(-.34 -16.411)"/>
                                <path id="Path_623" data-name="Path 623" class="cls-16" d="M30.656 32.607a5.715 5.715 0 0 1-.612-1.224 5.2 5.2 0 0 1-.245-1.346 4.347 4.347 0 0 1 .245-1.224 3.26 3.26 0 0 1 .734-1.224 3.974 3.974 0 0 1 2.692-1.468c.245 0 .612-.122.856-.122a3.388 3.388 0 0 1 1.1.122 1.992 1.992 0 0 1 .734.367.955.955 0 0 1 .489.489.917.917 0 0 1 .122.612.935.935 0 0 1-.245.612l-.367.367c-.122 0-.245.122-.489.122h-.367a1.739 1.739 0 0 1-.734-.245 5.3 5.3 0 0 0-.612-.122 1.974 1.974 0 0 0-1.1.367 2.366 2.366 0 0 0-.612 1.1v.734a1.312 1.312 0 0 0 .245.734c.122.245.367.367.489.489a1.552 1.552 0 0 0 .734.122 5.385 5.385 0 0 0 1.224-.245h.489a1.111 1.111 0 0 1 .856.367 1.739 1.739 0 0 1 .245.734 1.739 1.739 0 0 1-.245.734 2.822 2.822 0 0 1-1.1.734 4.4 4.4 0 0 1-1.346.245 2.389 2.389 0 0 1-.856-.122c-.489-.245-1.1-.612-1.713-.979-.243-.237-.367-.485-.611-.73z" transform="translate(.912 -16.456)"/>
                                <path id="Path_624" data-name="Path 624" class="cls-16" d="M36.022 33.3a.736.736 0 0 1-.122-.489v-5.387a.917.917 0 0 1 .122-.612.955.955 0 0 1 .489-.489 1.1 1.1 0 0 1 .612-.122h3.059a.736.736 0 0 1 .489.122l.367.367a.917.917 0 0 1 .122.612 1.1 1.1 0 0 1-.122.612c-.122.122-.245.367-.367.367a.736.736 0 0 1-.489.122h-1.713v.612h1.468a.925.925 0 0 1 .489.122c.122.122.245.122.367.245s.245.245.245.367.122.245.122.367a.872.872 0 0 1-.367.734 1.111 1.111 0 0 1-.856.367h-1.468v.734h1.713a1.111 1.111 0 0 1 .856.367c.122.122.245.245.245.367s.122.245.122.367a.872.872 0 0 1-.367.734 1.111 1.111 0 0 1-.856.367h-2.936a1.739 1.739 0 0 1-.734-.245.813.813 0 0 1-.49-.608z" transform="translate(2.275 -16.411)"/>
                            </g>
                        </g>
                    </g>
                </g>
                <path id="Path_625" data-name="Path 625" d="M53.036 28.8v.245c0 3.059-11.5 5.506-25.695 5.506S1.646 32.1 1.646 29.045V28.8a2.838 2.838 0 0 0-.734 2.447c.856 3.793 9.666 7.953 26.429 7.953s25.573-4.16 26.429-7.953a2.838 2.838 0 0 0-.734-2.447z" transform="translate(-.847 -2.964)" style="fill:url(#radial-gradient)"/>
                <g id="Group_1256" data-name="Group 1256" transform="translate(6.305 30.853)">
                    <g id="Group_1252" data-name="Group 1252">
                        <g id="Group_1251" data-name="Group 1251">
                            <g id="Group_1250" data-name="Group 1250">
                                <path id="Path_626" data-name="Path 626" d="M6.245 34.246A4.541 4.541 0 0 1 6 33.145v-.122l.122-.122h.122c.122 0 .245.122.245.367 0 .367.122.489.122.734.122-.245.122-.367.245-.612s.245-.367.367-.367h.122a.12.12 0 0 1 .122.122.427.427 0 0 1 .122.245 1.312 1.312 0 0 0 .245.734c.122-.245.122-.367.245-.612.122-.122.245-.245.367-.245a.12.12 0 0 1 .122.122l.122.122v.122a12.7 12.7 0 0 1-.49 1.225c0 .122-.122.122-.122.245h-.243c-.122 0-.122-.122-.245-.122-.122-.122-.122-.122-.122-.245A5.1 5.1 0 0 0 7.224 34l-.245.489a.12.12 0 0 1-.122.122.12.12 0 0 0-.122.122h-.123c-.122 0-.122 0-.122-.122l-.122-.122a.379.379 0 0 1-.123-.243z" transform="translate(-6 -32.9)" style="fill:url(#linear-gradient-29)"/>
                                <path id="Path_627" data-name="Path 627" d="M9.222 35.468c0-.122-.122-.122-.122-.245v-1.468c0-.122 0-.122.122-.245.122 0 .122-.122.245 0 .122 0 .122.122.245.122v.734c.245 0 .367.122.612.122V34a.12.12 0 0 1 .122-.122c.122 0 .122-.122.245-.122h.122a.12.12 0 0 1 .122.122v2.08a.12.12 0 0 1-.122.122c-.122 0-.122.122-.245 0h-.122a.12.12 0 0 1-.122-.122c-.122-.122-.122-.122-.122-.245v-.489c-.245 0-.367-.122-.612-.122v.489c0 .122 0 .122-.122.245h-.246c.123-.246.123-.246 0-.368z" transform="translate(-5.307 -32.776)" style="fill:url(#linear-gradient-30)"/>
                                <path id="Path_628" data-name="Path 628" d="M12.045 35.735c0-.122-.122-.122-.122-.245s0-.122-.122-.245v-.489c0-.122 0-.122.122-.245 0-.122.122-.122.122-.245l.245-.245a.449.449 0 0 1 .367-.122h.367c.122 0 .245 0 .245.122.122 0 .122.122.245.122s.122.122.245.245.122.122.122.245a.809.809 0 0 1 .122.734v.367c0 .122-.122.245-.122.367s-.122.122-.245.245c-.122 0-.122.122-.245.122s-.122 0-.245.122H12.9a.45.45 0 0 1-.367-.122c-.122 0-.245-.122-.367-.245.123-.243.001-.365-.121-.488zm.489-.612v.245c0 .122.122.122.122.245.122 0 .122.122.245.122h.245a.12.12 0 0 0 .122-.122l.122-.122v-.367c0-.122 0-.122-.122-.245a.12.12 0 0 0-.122-.122c-.122 0-.122-.122-.245-.122h-.245a.12.12 0 0 0-.122.122v.367z" transform="translate(-4.703 -32.676)" style="fill:url(#linear-gradient-31)"/>
                                <path id="Path_629" data-name="Path 629" d="M15.167 36.647c-.122 0-.245 0-.245-.122-.122-.125-.122-.125-.122-.245a8.078 8.078 0 0 1 .122-1.713v-.122a.12.12 0 0 1 .122-.122c.122-.122.122-.122.245-.122h.122a.12.12 0 0 1 .122.122c.122.122.122.122.122.245a6.466 6.466 0 0 1-.122 1.468h.612l.122.122v.122c0 .122 0 .122-.122.245a.427.427 0 0 1-.245.122.77.77 0 0 1-.733 0z" transform="translate(-4.033 -32.609)" style="fill:url(#linear-gradient-32)"/>
                                <path id="Path_630" data-name="Path 630" d="M17 36.6v-.12a8.078 8.078 0 0 1 .122-1.713v-.245l.122-.122h1.1l.122.122v.245l-.122.122h-.612v.245h.489a.12.12 0 0 1 .122.122.12.12 0 0 0 .122.122v.122c0 .122 0 .245-.122.245-.122.122-.122.122-.245.122h-.367v.245h.489c.122 0 .122 0 .245.122a.12.12 0 0 0 .122.122v.122c0 .122 0 .122-.122.245-.122 0-.122.122-.245.122h-.734c-.122 0-.122 0-.122-.122-.242.002-.242-.123-.364-.123z" transform="translate(-3.541 -32.565)" style="fill:url(#linear-gradient-33)"/>
                                <path id="Path_631" data-name="Path 631" d="M19.422 36.869a.12.12 0 0 1-.122-.122v-.489c0-.122.122-.122.245-.122h.855v-.122h-.122c-.122 0-.122 0-.245-.122a.427.427 0 0 1-.245-.122c-.122-.122-.122-.122-.122-.245v-.612c0-.122.122-.122.122-.245l.245-.245c.122 0 .245-.122.367-.122h.489a.427.427 0 0 1 .245.122l.122.122v.367l-.122.122h-.489c.122 0 .122 0 .245.122a.427.427 0 0 1 .245.122l.122.122.122.122v.367c0 .245-.122.367-.122.489a.545.545 0 0 1-.734.245H20.4c-.733.369-.855.246-.978.246z" transform="translate(-3.027 -32.587)" style="fill:url(#linear-gradient-34)"/>
                                <path id="Path_632" data-name="Path 632" d="M21.822 36.969a.12.12 0 0 1-.122-.122v-.489a7.914 7.914 0 0 0 .489-1.591.263.263 0 0 1 .245-.245.379.379 0 0 1 .245-.122c.122 0 .245 0 .245.122l.245.245c.245.612.245.979.489 1.591v.489l-.122.122h-.122c-.122 0-.122 0-.245-.122a.427.427 0 0 1-.122-.245v-.122h-.734v.12c0 .122-.122.122-.122.245a.427.427 0 0 1-.245.122zm.612-.979h.366a1.552 1.552 0 0 1-.122-.734 5.1 5.1 0 0 0-.244.735z" transform="translate(-2.49 -32.565)" style="fill:url(#linear-gradient-35)"/>
                                <path id="Path_633" data-name="Path 633" d="M24.667 36.947c-.122 0-.245 0-.245-.122-.122-.125-.122-.125-.122-.245v-1.835a.12.12 0 0 1 .122-.122c.122-.122.122-.122.245-.122h.122a.12.12 0 0 1 .122.122c.122.122.122.122.122.245v1.468h.612l.122.122v.122c0 .122 0 .122-.122.245a.427.427 0 0 1-.245.122z" transform="translate(-1.909 -32.542)" style="fill:url(#linear-gradient-36)"/>
                                <path id="Path_634" data-name="Path 634" d="M26.5 36.7v-2.08l.122-.122h1.1a.12.12 0 0 1 .122.122v.245a.12.12 0 0 1-.122.122h-.612v.245h.49a.12.12 0 0 1 .122.122.12.12 0 0 0 .122.122v.124c0 .122 0 .245-.122.245 0 .122-.122.122-.245.122h-.367v.245h.49c.122 0 .122 0 .245.122a.12.12 0 0 0 .122.122v.122c0 .122 0 .122-.122.245 0 .122-.122.122-.245.122h-.856c-.122-.12-.122-.245-.244-.245z" transform="translate(-1.417 -32.542)" style="fill:url(#linear-gradient-37)"/>
                                <path id="Path_635" data-name="Path 635" d="M30.667 36.158c-.122-.122-.122-.245-.245-.367 0-.122-.122-.245-.122-.367v-.367c0-.122.122-.245.122-.367a1.124 1.124 0 0 1 .734-.489h.489c.122 0 .122 0 .245.122l.122.122v.367a.12.12 0 0 1-.122.122h-.612c-.122 0-.245 0-.245.122a.449.449 0 0 0-.122.367v.245c0 .122 0 .122.122.245a.12.12 0 0 0 .122.122h.245a.449.449 0 0 0 .367-.122h.122c.122 0 .122 0 .245.122a.427.427 0 0 1 .122.245v.245c0 .122-.122.122-.245.245-.122 0-.245.122-.367.122H31.4a1.1 1.1 0 0 1-.612-.122c.001-.49.001-.49-.121-.612z" transform="translate(-.567 -32.609)" style="fill:url(#linear-gradient-38)"/>
                                <path id="Path_636" data-name="Path 636" d="M33.489 36.2h-.245c-.122 0-.122-.122-.122-.245A6.977 6.977 0 0 0 33 34.367v-.122a.12.12 0 0 1 .122-.122c.122-.122.122-.122.245-.122h.122a.12.12 0 0 1 .122.122c.122.122.122.122.122.245a5.019 5.019 0 0 0 .122 1.346.736.736 0 0 0 .489-.122h.122a.12.12 0 0 1 .122.122v.122c0 .122 0 .122-.122.245 0 .122-.122.122-.245.122a.77.77 0 0 0-.732-.003z" transform="translate(.036 -32.654)" style="fill:url(#linear-gradient-39)"/>
                                <path id="Path_637" data-name="Path 637" d="M36.156 35.6h-.367c-.122 0-.245 0-.245-.122-.122 0-.122-.122-.122-.245s-.122-.245-.122-.367v-.856c0-.122 0-.245.122-.245 0-.122.122-.122.245-.122h.245c.122 0 .122.122.122.245v.979a.12.12 0 0 0 .122.122h.367a.12.12 0 0 0 .122-.122l.122-.122v-.979c0-.122 0-.122.122-.245 0-.122.122-.122.245-.122h.245l.122.122v1.224a.427.427 0 0 1-.122.245l-.245.245c-.122.122-.245.122-.367.245h-.122c-.366.12-.366.12-.489.12z" transform="translate(.551 -32.788)" style="fill:url(#linear-gradient-40)"/>
                                <path id="Path_638" data-name="Path 638" d="M38.389 34.835h-.245a.12.12 0 0 1-.122-.122 5.068 5.068 0 0 0-.122-1.224v-.122a.12.12 0 0 1 .122-.122l.122-.122c.122 0 .245-.122.367-.122h.367C39 33 39 33 39 33.122l.122.122v.122c0 .122 0 .122-.122.245h.122l.122.122v.245a5550.2 5550.2 0 0 0-.245.245l-.122.122c-.122 0-.122.122-.245.122.124.246.002.246-.243.368zm.245-.489c.122 0 .122 0 .245-.122-.122 0-.122 0-.245.122zm0-.612z" transform="translate(1.132 -32.878)" style="fill:url(#linear-gradient-41)"/>
                            </g>
                        </g>
                    </g>
                    <g id="Group_1255" data-name="Group 1255" class="cls-15">
                        <g id="Group_1254" data-name="Group 1254">
                            <g id="Group_1253" data-name="Group 1253">
                                <path id="Path_639" data-name="Path 639" class="cls-46" d="M6.245 34.246A4.541 4.541 0 0 1 6 33.145v-.122l.122-.122h.122c.122 0 .245.122.245.367 0 .367.122.489.122.734.122-.245.122-.367.245-.612s.245-.367.367-.367h.122a.12.12 0 0 1 .122.122.427.427 0 0 1 .122.245 1.312 1.312 0 0 0 .245.734c.122-.245.122-.367.245-.612.122-.122.245-.245.367-.245a.12.12 0 0 1 .122.122l.122.122v.122a12.7 12.7 0 0 1-.49 1.225c0 .122-.122.122-.122.245h-.243c-.122 0-.122-.122-.245-.122-.122-.122-.122-.122-.122-.245A5.1 5.1 0 0 0 7.224 34l-.245.489a.12.12 0 0 1-.122.122.12.12 0 0 0-.122.122h-.123c-.122 0-.122 0-.122-.122l-.122-.122a.379.379 0 0 1-.123-.243z" transform="translate(-6 -32.9)"/>
                                <path id="Path_640" data-name="Path 640" class="cls-46" d="M9.222 35.468c0-.122-.122-.122-.122-.245v-1.468c0-.122 0-.122.122-.245.122 0 .122-.122.245 0 .122 0 .122.122.245.122v.734c.245 0 .367.122.612.122V34a.12.12 0 0 1 .122-.122c.122 0 .122-.122.245-.122h.122a.12.12 0 0 1 .122.122v2.08a.12.12 0 0 1-.122.122c-.122 0-.122.122-.245 0h-.122a.12.12 0 0 1-.122-.122c-.122-.122-.122-.122-.122-.245v-.489c-.245 0-.367-.122-.612-.122v.489c0 .122 0 .122-.122.245h-.246c.123-.246.123-.246 0-.368z" transform="translate(-5.307 -32.776)"/>
                                <path id="Path_641" data-name="Path 641" class="cls-46" d="M12.045 35.735c0-.122-.122-.122-.122-.245s0-.122-.122-.245v-.489c0-.122 0-.122.122-.245 0-.122.122-.122.122-.245l.245-.245a.449.449 0 0 1 .367-.122h.367c.122 0 .245 0 .245.122.122 0 .122.122.245.122s.122.122.245.245.122.122.122.245a.809.809 0 0 1 .122.734v.367c0 .122-.122.245-.122.367s-.122.122-.245.245c-.122 0-.122.122-.245.122s-.122 0-.245.122H12.9a.45.45 0 0 1-.367-.122c-.122 0-.245-.122-.367-.245.123-.243.001-.365-.121-.488zm.489-.612v.245c0 .122.122.122.122.245.122 0 .122.122.245.122h.245a.12.12 0 0 0 .122-.122l.122-.122v-.367c0-.122 0-.122-.122-.245a.12.12 0 0 0-.122-.122c-.122 0-.122-.122-.245-.122h-.245a.12.12 0 0 0-.122.122v.367z" transform="translate(-4.703 -32.676)"/>
                                <path id="Path_642" data-name="Path 642" class="cls-46" d="M15.167 36.647c-.122 0-.245 0-.245-.122-.122-.125-.122-.125-.122-.245a8.078 8.078 0 0 1 .122-1.713v-.122a.12.12 0 0 1 .122-.122c.122-.122.122-.122.245-.122h.122a.12.12 0 0 1 .122.122c.122.122.122.122.122.245a6.466 6.466 0 0 1-.122 1.468h.612l.122.122v.122c0 .122 0 .122-.122.245a.427.427 0 0 1-.245.122.77.77 0 0 1-.733 0z" transform="translate(-4.033 -32.609)"/>
                                <path id="Path_643" data-name="Path 643" class="cls-46" d="M17 36.6v-.12a8.078 8.078 0 0 1 .122-1.713v-.245l.122-.122h1.1l.122.122v.245l-.122.122h-.612v.245h.489a.12.12 0 0 1 .122.122.12.12 0 0 0 .122.122v.122c0 .122 0 .245-.122.245-.122.122-.122.122-.245.122h-.367v.245h.489c.122 0 .122 0 .245.122a.12.12 0 0 0 .122.122v.122c0 .122 0 .122-.122.245-.122 0-.122.122-.245.122h-.734c-.122 0-.122 0-.122-.122-.242.002-.242-.123-.364-.123z" transform="translate(-3.541 -32.565)"/>
                                <path id="Path_644" data-name="Path 644" class="cls-46" d="M19.422 36.869a.12.12 0 0 1-.122-.122v-.489c0-.122.122-.122.245-.122h.855v-.122h-.122c-.122 0-.122 0-.245-.122a.427.427 0 0 1-.245-.122c-.122-.122-.122-.122-.122-.245v-.612c0-.122.122-.122.122-.245l.245-.245c.122 0 .245-.122.367-.122h.489a.427.427 0 0 1 .245.122l.122.122v.367l-.122.122h-.489c.122 0 .122 0 .245.122a.427.427 0 0 1 .245.122l.122.122.122.122v.367c0 .245-.122.367-.122.489a.545.545 0 0 1-.734.245H20.4c-.733.369-.855.246-.978.246z" transform="translate(-3.027 -32.587)"/>
                                <path id="Path_645" data-name="Path 645" class="cls-46" d="M21.822 36.969a.12.12 0 0 1-.122-.122v-.489a7.914 7.914 0 0 0 .489-1.591.263.263 0 0 1 .245-.245.379.379 0 0 1 .245-.122c.122 0 .245 0 .245.122l.245.245c.245.612.245.979.489 1.591v.489l-.122.122h-.122c-.122 0-.122 0-.245-.122a.427.427 0 0 1-.122-.245v-.122h-.734v.12c0 .122-.122.122-.122.245a.427.427 0 0 1-.245.122zm.612-.979h.366a1.552 1.552 0 0 1-.122-.734 5.1 5.1 0 0 0-.244.735z" transform="translate(-2.49 -32.565)"/>
                                <path id="Path_646" data-name="Path 646" class="cls-46" d="M24.667 36.947c-.122 0-.245 0-.245-.122-.122-.125-.122-.125-.122-.245v-1.835a.12.12 0 0 1 .122-.122c.122-.122.122-.122.245-.122h.122a.12.12 0 0 1 .122.122c.122.122.122.122.122.245v1.468h.612l.122.122v.122c0 .122 0 .122-.122.245a.427.427 0 0 1-.245.122z" transform="translate(-1.909 -32.542)"/>
                                <path id="Path_647" data-name="Path 647" class="cls-46" d="M26.5 36.7v-2.08l.122-.122h1.1a.12.12 0 0 1 .122.122v.245a.12.12 0 0 1-.122.122h-.612v.245h.49a.12.12 0 0 1 .122.122.12.12 0 0 0 .122.122v.124c0 .122 0 .245-.122.245 0 .122-.122.122-.245.122h-.367v.245h.49c.122 0 .122 0 .245.122a.12.12 0 0 0 .122.122v.122c0 .122 0 .122-.122.245 0 .122-.122.122-.245.122h-.856c-.122-.12-.122-.245-.244-.245z" transform="translate(-1.417 -32.542)"/>
                                <path id="Path_648" data-name="Path 648" class="cls-46" d="M30.667 36.158c-.122-.122-.122-.245-.245-.367 0-.122-.122-.245-.122-.367v-.367c0-.122.122-.245.122-.367a1.124 1.124 0 0 1 .734-.489h.489c.122 0 .122 0 .245.122l.122.122v.367a.12.12 0 0 1-.122.122h-.612c-.122 0-.245 0-.245.122a.449.449 0 0 0-.122.367v.245c0 .122 0 .122.122.245a.12.12 0 0 0 .122.122h.245a.449.449 0 0 0 .367-.122h.122c.122 0 .122 0 .245.122a.427.427 0 0 1 .122.245v.245c0 .122-.122.122-.245.245-.122 0-.245.122-.367.122H31.4a1.1 1.1 0 0 1-.612-.122c.001-.49.001-.49-.121-.612z" transform="translate(-.567 -32.609)"/>
                                <path id="Path_649" data-name="Path 649" class="cls-46" d="M33.489 36.2h-.245c-.122 0-.122-.122-.122-.245A6.977 6.977 0 0 0 33 34.367v-.122a.12.12 0 0 1 .122-.122c.122-.122.122-.122.245-.122h.122a.12.12 0 0 1 .122.122c.122.122.122.122.122.245a5.019 5.019 0 0 0 .122 1.346.736.736 0 0 0 .489-.122h.122a.12.12 0 0 1 .122.122v.122c0 .122 0 .122-.122.245 0 .122-.122.122-.245.122a.77.77 0 0 0-.732-.003z" transform="translate(.036 -32.654)"/>
                                <path id="Path_650" data-name="Path 650" class="cls-46" d="M36.156 35.6h-.367c-.122 0-.245 0-.245-.122-.122 0-.122-.122-.122-.245s-.122-.245-.122-.367v-.856c0-.122 0-.245.122-.245 0-.122.122-.122.245-.122h.245c.122 0 .122.122.122.245v.979a.12.12 0 0 0 .122.122h.367a.12.12 0 0 0 .122-.122l.122-.122v-.979c0-.122 0-.122.122-.245 0-.122.122-.122.245-.122h.245l.122.122v1.224a.427.427 0 0 1-.122.245l-.245.245c-.122.122-.245.122-.367.245h-.122c-.366.12-.366.12-.489.12z" transform="translate(.551 -32.788)"/>
                                <path id="Path_651" data-name="Path 651" class="cls-46" d="M38.389 34.835h-.245a.12.12 0 0 1-.122-.122 5.068 5.068 0 0 0-.122-1.224v-.122a.12.12 0 0 1 .122-.122l.122-.122c.122 0 .245-.122.367-.122h.367C39 33 39 33 39 33.122l.122.122v.122c0 .122 0 .122-.122.245h.122l.122.122v.245a5550.2 5550.2 0 0 0-.245.245l-.122.122c-.122 0-.122.122-.245.122.124.246.002.246-.243.368zm.245-.489c.122 0 .122 0 .245-.122-.122 0-.122 0-.245.122zm0-.612z" transform="translate(1.132 -32.878)"/>
                            </g>
                        </g>
                    </g>
                </g>
            </g>
        </g>
    </g>
</svg>
